# Blender 5.2.1 LTS
# www.blender.org
mtllib path.mtl
o Plane
v -15.078458 0.000000 5.503361
v -13.664241 -0.000000 6.917568
v 2.109065 -0.000000 -14.315594
v 3.590984 0.000000 -15.658693
v -14.931838 0.056805 5.649979
v -13.810861 0.056805 6.770950
v 3.437346 0.056805 -15.519447
v 2.262703 0.056805 -14.454840
v 2.544117 -0.000000 -13.792450
v 2.979168 -0.000000 -13.269304
v 3.407505 -0.000000 -12.753645
v 3.829794 -0.000000 -12.245153
v 4.252366 -0.000000 -11.736912
v 4.675235 -0.000000 -11.228905
v 5.098398 -0.000000 -10.721134
v 5.483067 -0.000000 -10.193756
v 5.842286 -0.000000 -9.653503
v 6.202335 -0.000000 -9.113811
v 6.563231 -0.000000 -8.574654
v 6.861115 -0.000000 -8.017523
v 7.130404 0.000000 -7.452656
v 7.402411 0.000000 -6.889027
v 7.595831 0.000000 -6.322754
v 7.742269 0.000000 -5.756180
v 7.858953 -0.000000 -5.199800
v 7.851294 0.000000 -4.675707
v 7.799053 0.000000 -4.183149
v 7.651400 0.000000 -3.744577
v 7.393644 -0.000000 -3.389984
v 7.074426 0.000000 -3.086218
v 6.683010 0.000000 -2.840361
v 6.211946 0.000000 -2.700699
v 5.721821 0.000000 -2.640652
v 5.242610 0.000000 -2.657856
v 4.795943 0.000000 -2.764341
v 4.359619 0.000000 -3.000267
v 3.859637 0.000000 -3.362017
v 3.304818 0.000000 -3.755413
v 2.733179 0.000000 -4.151512
v 2.149115 -0.000000 -4.543018
v 1.542819 0.000000 -4.922516
v 0.906487 0.000000 -5.281612
v 0.234964 0.000000 -5.612926
v -0.484086 0.000000 -5.900597
v -1.266053 0.000000 -6.116405
v -2.120427 0.000000 -6.211826
v -3.023277 0.000000 -6.121031
v -3.893951 0.000000 -5.804428
v -4.645830 0.000000 -5.297920
v -5.263079 -0.000000 -4.666849
v -5.733335 0.000000 -3.850857
v -5.976694 0.000000 -2.948563
v -5.991403 0.000000 -2.026236
v -5.789551 0.000000 -1.134380
v -5.390354 0.000000 -0.319340
v -4.825216 0.000000 0.376884
v -4.139452 0.000000 0.925602
v -3.383518 -0.000000 1.320866
v -2.598660 0.000000 1.579090
v -1.808901 0.000000 1.728642
v -1.028015 -0.000000 1.798473
v -0.309321 0.000000 1.769070
v 0.354812 -0.000000 1.746799
v 0.950587 0.000000 1.740593
v 1.472131 0.000000 1.830296
v 1.960966 -0.000000 1.998821
v 2.411313 -0.000000 2.237606
v 2.813479 0.000000 2.545223
v 3.157269 -0.000000 2.915752
v 3.432690 0.000000 3.339222
v 3.630723 -0.000000 3.802372
v 3.744152 0.000000 4.289616
v 3.768389 0.000000 4.784336
v 3.702118 -0.000000 5.270668
v 3.536157 0.000000 5.730713
v 3.281221 0.000000 6.153416
v 2.938118 -0.000000 6.540287
v 2.557292 -0.000000 6.883705
v 2.141098 -0.000000 7.152634
v 1.678203 -0.000000 7.304058
v 1.184784 0.000000 7.370350
v 0.666118 0.000000 7.357140
v 0.129912 0.000000 7.269985
v -0.415338 0.000000 7.116661
v -0.957585 0.000000 6.885715
v -1.490136 0.000000 6.607418
v -2.011596 -0.000000 6.291985
v -2.520024 -0.000000 5.942902
v -3.001889 -0.000000 5.549717
v -3.463358 0.000000 5.133396
v -3.914919 0.000000 4.680164
v -4.377056 0.000000 4.177101
v -4.912693 0.000000 3.650772
v -5.469507 0.000000 3.137611
v -6.166051 0.000000 2.704960
v -6.909858 0.000000 2.349300
v -7.716839 -0.000000 2.103523
v -8.553504 0.000000 2.029751
v -9.380808 -0.000000 2.066406
v -10.186230 -0.000000 2.209164
v -10.935873 0.000000 2.468571
v -11.641653 0.000000 2.791119
v -12.308414 0.000000 3.163052
v -12.936286 0.000000 3.577698
v -13.523745 0.000000 4.031742
v -14.079515 0.000000 4.514812
v -14.598402 -0.000000 5.016792
v -13.188599 0.000000 6.435406
v -12.730002 -0.000000 5.990894
v -12.259077 -0.000000 5.581135
v -11.770183 -0.000000 5.202568
v -11.262561 -0.000000 4.867809
v -10.742434 -0.000000 4.577568
v -10.213858 -0.000000 4.333698
v -9.679020 0.000000 4.143780
v -9.145158 -0.000000 4.052475
v -8.620852 -0.000000 4.028614
v -8.105402 -0.000000 4.065414
v -7.612379 -0.000000 4.221855
v -7.139457 -0.000000 4.452091
v -6.676764 -0.000000 4.732143
v -6.241739 0.000000 5.145309
v -5.808181 -0.000000 5.574200
v -5.350010 -0.000000 6.073189
v -4.841352 -0.000000 6.582924
v -4.292844 0.000000 7.077278
v -3.719471 0.000000 7.543316
v -3.106799 0.000000 7.965462
v -2.465098 0.000000 8.353687
v -1.792148 -0.000000 8.703270
v -1.081154 -0.000000 9.002583
v -0.317573 -0.000000 9.219280
v 0.485491 -0.000000 9.348969
v 1.320799 -0.000000 9.365719
v 2.169164 0.000000 9.242863
v 2.996128 0.000000 8.960648
v 3.729882 0.000000 8.503899
v 4.359115 0.000000 7.947681
v 4.909310 -0.000000 7.315025
v 5.350872 -0.000000 6.571438
v 5.643736 0.000000 5.750366
v 5.765635 -0.000000 4.889252
v 5.726785 -0.000000 4.026638
v 5.534962 -0.000000 3.190922
v 5.201444 -0.000000 2.405674
v 4.738849 0.000000 1.691578
v 4.161716 0.000000 1.067978
v 3.488301 0.000000 0.552345
v 2.741367 0.000000 0.157360
v 1.946090 -0.000000 -0.112736
v 1.126173 -0.000000 -0.251682
v 0.363177 0.000000 -0.253185
v -0.332673 -0.000000 -0.230797
v -0.973488 -0.000000 -0.200787
v -1.546388 -0.000000 -0.254055
v -2.089226 -0.000000 -0.354942
v -2.594543 0.000000 -0.516933
v -3.044501 -0.000000 -0.748039
v -3.421269 0.000000 -1.047520
v -3.711713 -0.000000 -1.406612
v -3.907446 -0.000000 -1.810894
v -4.002952 -0.000000 -2.240862
v -3.995923 -0.000000 -2.671896
v -3.889244 -0.000000 -3.076691
v -3.686653 -0.000000 -3.436043
v -3.351509 0.000000 -3.773211
v -2.981924 -0.000000 -4.024481
v -2.582437 0.000000 -4.170219
v -2.138466 -0.000000 -4.211906
v -1.645757 -0.000000 -4.152781
v -1.119817 -0.000000 -4.004324
v -0.577938 -0.000000 -3.785582
v -0.030377 -0.000000 -3.514614
v 0.518088 0.000000 -3.204981
v 1.065125 -0.000000 -2.862255
v 1.611166 0.000000 -2.495890
v 2.157938 -0.000000 -2.116917
v 2.713194 0.000000 -1.723217
v 3.319233 -0.000000 -1.292171
v 4.083263 -0.000000 -0.895630
v 4.947806 0.000000 -0.679703
v 5.819365 -0.000000 -0.643032
v 6.672071 -0.000000 -0.754345
v 7.501439 -0.000000 -1.015488
v 8.267035 0.000000 -1.480701
v 8.923390 -0.000000 -2.101624
v 9.439906 -0.000000 -2.849451
v 9.738892 -0.000000 -3.696299
v 9.846609 -0.000000 -4.538872
v 9.851216 0.000000 -5.375525
v 9.703873 0.000000 -6.146202
v 9.511446 -0.000000 -6.897572
v 9.266719 -0.000000 -7.613153
v 8.952382 0.000000 -8.277521
v 8.635324 0.000000 -8.940662
v 8.291978 0.000000 -9.580355
v 7.898405 0.000000 -10.173693
v 7.503980 0.000000 -10.766506
v 7.108727 0.000000 -11.358757
v 6.692356 0.000000 -11.929150
v 6.245415 0.000000 -12.467667
v 5.798183 0.000000 -13.005947
v 5.350657 0.000000 -13.543989
v 4.902844 0.000000 -14.081787
v 4.461087 0.000000 -14.612404
v 4.026036 0.000000 -15.135548
v -14.452240 0.056805 5.163868
v -13.939603 0.056805 4.667847
v -13.392634 0.056805 4.192379
v -12.815390 0.056805 3.746159
v -12.199984 0.056805 3.339794
v -11.548434 0.056805 2.976334
v -10.861029 0.056805 2.661945
v -10.133655 0.056805 2.409737
v -9.356386 0.056805 2.272312
v -8.560498 0.056805 2.236980
v -7.757133 0.056805 2.306923
v -6.982702 0.056805 2.543434
v -6.266979 0.056805 2.886089
v -5.594684 0.056805 3.302917
v -5.050493 0.056805 3.805710
v -4.525440 0.056805 4.321934
v -4.063712 0.056805 4.824577
v -3.606234 0.056805 5.283665
v -3.135740 0.056805 5.708080
v -2.644388 0.056805 6.108814
v -2.125152 0.056805 6.465473
v -1.591228 0.056805 6.788456
v -1.044121 0.056805 7.074146
v -0.484378 0.056805 7.312183
v 0.083508 0.056805 7.472073
v 0.647378 0.056805 7.563641
v 1.198874 0.056805 7.577221
v 1.729094 0.056805 7.505070
v 2.229733 0.056805 7.340084
v 2.678849 0.056805 7.051685
v 3.085433 0.056805 6.686207
v 3.450007 0.056805 6.273857
v 3.724295 0.056805 5.817886
v 3.903411 0.056805 5.320412
v 3.975452 0.056805 4.795223
v 3.949702 0.056805 4.262360
v 3.828148 0.056805 3.738991
v 3.616072 0.056805 3.242447
v 3.321247 0.056805 2.788845
v 2.953267 0.056805 2.392078
v 2.522981 0.056805 2.062893
v 2.041886 0.056805 1.807911
v 1.521283 0.056805 1.628853
v 0.968803 0.056805 1.534046
v 0.355693 0.056805 1.539452
v -0.311726 0.056805 1.561729
v -1.022344 0.056805 1.591198
v -1.781669 0.056805 1.523087
v -2.545825 0.056805 1.378582
v -3.301706 0.056805 1.130341
v -4.025918 0.056805 0.752098
v -4.679646 0.056805 0.229225
v -5.216311 0.056805 -0.432049
v -5.594417 0.056805 -1.204494
v -5.785247 0.056805 -2.048470
v -5.771339 0.056805 -2.919861
v -5.542156 0.056805 -3.770573
v -5.099653 0.056805 -4.539230
v -4.511657 0.056805 -5.139830
v -3.799417 0.056805 -5.619879
v -2.977591 0.056805 -5.918774
v -2.122319 0.056805 -6.004482
v -1.305436 0.056805 -5.912828
v -0.550011 0.056805 -5.704004
v 0.150672 0.056805 -5.423481
v 0.809341 0.056805 -5.098427
v 1.436564 0.056805 -4.744457
v 2.036720 0.056805 -4.368771
v 2.616839 0.056805 -3.979876
v 3.185903 0.056805 -3.585548
v 3.740769 0.056805 -3.192122
v 4.251746 0.056805 -2.823185
v 4.722045 0.056805 -2.570606
v 5.212034 0.056805 -2.452772
v 5.731924 0.056805 -2.433548
v 6.259640 0.056805 -2.498907
v 6.767848 0.056805 -2.651163
v 7.198062 0.056805 -2.919760
v 7.552235 0.056805 -3.256405
v 7.836822 0.056805 -3.651766
v 8.000163 0.056805 -4.132664
v 8.058159 0.056805 -4.661510
v 8.065501 0.056805 -5.218008
v 7.945643 0.056805 -5.796604
v 7.794436 0.056805 -6.382336
v 7.595699 0.056805 -6.964088
v 7.319304 0.056805 -7.538164
v 7.045063 0.056805 -8.113218
v 6.742467 0.056805 -8.678909
v 6.378181 0.056805 -9.223686
v 6.014565 0.056805 -9.768890
v 5.651611 0.056805 -10.314531
v 5.263659 0.056805 -10.846367
v 4.838026 0.056805 -11.357330
v 4.412634 0.056805 -11.868473
v 3.987470 0.056805 -12.379810
v 3.562534 0.056805 -12.891342
v 3.132807 0.056805 -13.408550
v 2.697755 0.056805 -13.931694
v -13.334761 0.056805 6.288330
v -12.869914 0.056805 5.837864
v -12.390193 0.056805 5.420498
v -11.891079 0.056805 5.034107
v -11.370991 0.056805 4.691067
v -10.835662 0.056805 4.392357
v -10.288713 0.056805 4.140331
v -9.731606 0.056805 3.943207
v -9.169590 0.056805 3.846569
v -8.613872 0.056805 3.821381
v -8.065119 0.056805 3.862015
v -7.539546 0.056805 4.027718
v -7.038540 0.056805 4.270958
v -6.551603 0.056805 4.566830
v -6.103951 0.056805 4.990360
v -5.659810 0.056805 5.429356
v -5.201227 0.056805 5.928764
v -4.698489 0.056805 6.432644
v -4.159005 0.056805 6.918907
v -3.595119 0.056805 7.377388
v -2.993254 0.056805 7.791962
v -2.364020 0.056805 8.172642
v -1.705626 0.056805 8.514835
v -1.012127 0.056805 8.807056
v -0.271181 0.056805 9.017185
v 0.504216 0.056805 9.142464
v 1.306696 0.056805 9.158848
v 2.118263 0.056805 9.041859
v 2.907481 0.056805 8.773201
v 3.608312 0.056805 8.335926
v 4.211791 0.056805 7.801773
v 4.740517 0.056805 7.194595
v 5.162730 0.056805 6.484276
v 5.442437 0.056805 5.700634
v 5.558569 0.056805 4.878376
v 5.521235 0.056805 4.053902
v 5.337540 0.056805 3.254314
v 5.018068 0.056805 2.502460
v 4.574879 0.056805 1.818497
v 4.021938 0.056805 1.221134
v 3.376645 0.056805 0.727066
v 2.660460 0.056805 0.348274
v 1.896954 0.056805 0.088711
v 1.107970 0.056805 -0.045132
v 0.362311 0.056805 -0.045834
v -0.330250 0.056805 -0.023460
v -0.979139 0.056805 0.006489
v -1.573602 0.056805 -0.048500
v -2.142039 0.056805 -0.154430
v -2.676338 0.056805 -0.326401
v -3.158019 0.056805 -0.574520
v -3.566823 0.056805 -0.899841
v -3.885746 0.056805 -1.293888
v -4.102573 0.056805 -1.740753
v -4.209105 0.056805 -2.218609
v -4.201281 0.056805 -2.700577
v -4.080432 0.056805 -3.156948
v -3.850091 0.056805 -3.563644
v -3.485700 0.056805 -3.931284
v -3.076481 0.056805 -4.209017
v -2.628144 0.056805 -4.372471
v -2.136599 0.056805 -4.419249
v -1.606393 0.056805 -4.356359
v -1.053909 0.056805 -4.200922
v -0.493662 0.056805 -3.975033
v 0.066751 0.056805 -3.697809
v 0.624325 0.056805 -3.383047
v 1.177506 0.056805 -3.036509
v 1.727490 0.056805 -2.667538
v 2.276840 0.056805 -2.286791
v 2.832051 0.056805 -1.893120
v 3.427094 0.056805 -1.469257
v 4.157149 0.056805 -1.089371
v 4.978369 0.056805 -0.884789
v 5.809250 0.056805 -0.850136
v 6.624366 0.056805 -0.956135
v 7.416586 0.056805 -1.204681
v 8.143390 0.056805 -1.647154
v 8.764792 0.056805 -2.235193
v 9.254481 0.056805 -2.942253
v 9.537778 0.056805 -3.746773
v 9.639744 0.056805 -4.553059
v 9.644668 0.056805 -5.357304
v 9.500504 0.056805 -6.105766
v 9.312844 0.056805 -6.837976
v 9.073437 0.056805 -7.538078
v 8.763488 0.056805 -8.192001
v 8.451383 0.056805 -8.844954
v 8.112750 0.056805 -9.476086
v 7.722565 0.056805 -10.063808
v 7.331703 0.056805 -10.651115
v 6.940186 0.056805 -11.237974
v 6.527102 0.056805 -11.803905
v 6.082626 0.056805 -12.339237
v 5.637920 0.056805 -12.874378
v 5.192981 0.056805 -13.409332
v 4.747814 0.056805 -13.944092
v 4.307449 0.056805 -14.473158
v 3.872397 0.056805 -14.996302
vn 0.2033 0.9644 -0.1691
vn -0.2033 0.9644 0.1691
vn -0.0000 1.0000 -0.0000
vn -0.1881 0.9645 -0.1856
vn -0.1859 0.9645 -0.1878
vn -0.1786 0.9645 -0.1947
vn -0.1675 0.9645 -0.2043
vn -0.1537 0.9645 -0.2149
vn -0.1372 0.9645 -0.2258
vn -0.1373 0.9645 -0.2258
vn -0.1194 0.9644 -0.2358
vn -0.0984 0.9644 -0.2453
vn -0.0982 0.9644 -0.2454
vn -0.0664 0.9645 -0.2555
vn -0.0289 0.9644 -0.2628
vn -0.0290 0.9644 -0.2628
vn 0.0056 0.9644 -0.2644
vn 0.0058 0.9644 -0.2644
vn 0.0502 0.9646 -0.2589
vn 0.0503 0.9646 -0.2589
vn 0.0960 0.9644 -0.2463
vn 0.0957 0.9644 -0.2464
vn 0.1270 0.9644 -0.2321
vn 0.1271 0.9644 -0.2320
vn 0.1597 0.9646 -0.2099
vn 0.1825 0.9644 -0.1915
vn 0.1824 0.9644 -0.1917
vn 0.1900 0.9644 -0.1837
vn 0.1909 0.9645 -0.1827
vn 0.1910 0.9645 -0.1827
vn 0.1821 0.9645 -0.1914
vn 0.1721 0.9645 -0.2006
vn 0.1721 0.9645 -0.2005
vn 0.1584 0.9645 -0.2114
vn 0.1433 0.9645 -0.2221
vn 0.1432 0.9645 -0.2221
vn 0.1296 0.9644 -0.2303
vn 0.1297 0.9644 -0.2303
vn 0.1129 0.9644 -0.2389
vn 0.1131 0.9644 -0.2389
vn 0.0877 0.9645 -0.2491
vn 0.0876 0.9645 -0.2491
vn 0.0572 0.9644 -0.2581
vn 0.0570 0.9644 -0.2581
vn 0.0245 0.9644 -0.2632
vn 0.0246 0.9644 -0.2632
vn -0.0146 0.9644 -0.2640
vn -0.0143 0.9644 -0.2640
vn -0.0595 0.9644 -0.2576
vn -0.0589 0.9644 -0.2577
vn -0.1133 0.9647 -0.2379
vn -0.1134 0.9647 -0.2378
vn -0.1603 0.9644 -0.2104
vn -0.1609 0.9644 -0.2099
vn -0.1880 0.9643 -0.1864
vn -0.1879 0.9643 -0.1864
vn -0.2131 0.9645 -0.1562
vn -0.2128 0.9645 -0.1565
vn -0.2386 0.9645 -0.1133
vn -0.2385 0.9645 -0.1136
vn -0.2564 0.9645 -0.0630
vn -0.2640 0.9645 -0.0117
vn -0.2640 0.9645 -0.0114
vn -0.2617 0.9645 0.0364
vn -0.2617 0.9645 0.0366
vn -0.2512 0.9645 0.0821
vn -0.2511 0.9645 0.0822
vn -0.2332 0.9645 0.1243
vn -0.2331 0.9645 0.1245
vn -0.2084 0.9645 0.1624
vn -0.2084 0.9645 0.1625
vn -0.1778 0.9645 0.1955
vn -0.1426 0.9645 0.2225
vn -0.1427 0.9645 0.2224
vn -0.1051 0.9644 0.2425
vn -0.1053 0.9644 0.2424
vn -0.0654 0.9645 0.2559
vn -0.0657 0.9645 0.2559
vn -0.0213 0.9646 0.2630
vn -0.0211 0.9646 0.2630
vn 0.0056 0.9644 0.2645
vn 0.0057 0.9644 0.2645
vn 0.0098 0.9644 0.2643
vn 0.0099 0.9644 0.2643
vn -0.0063 0.9645 0.2640
vn -0.0064 0.9645 0.2640
vn -0.0365 0.9644 0.2618
vn -0.0364 0.9644 0.2618
vn -0.0659 0.9644 0.2559
vn -0.0660 0.9644 0.2559
vn -0.1027 0.9645 0.2434
vn -0.1029 0.9645 0.2434
vn -0.1443 0.9645 0.2212
vn -0.1444 0.9645 0.2212
vn -0.1862 0.9645 0.1874
vn -0.1861 0.9645 0.1875
vn -0.2227 0.9645 0.1421
vn -0.2226 0.9645 0.1423
vn -0.2492 0.9645 0.0877
vn -0.2492 0.9645 0.0880
vn -0.2629 0.9644 0.0272
vn -0.2629 0.9644 0.0273
vn -0.2617 0.9644 -0.0368
vn -0.2442 0.9644 -0.1011
vn -0.2441 0.9644 -0.1013
vn -0.2106 0.9645 -0.1592
vn -0.2102 0.9645 -0.1597
vn -0.1691 0.9644 -0.2033
vn -0.1694 0.9644 -0.2031
vn -0.1198 0.9645 -0.2355
vn -0.1199 0.9645 -0.2354
vn -0.0588 0.9645 -0.2575
vn -0.0587 0.9645 -0.2575
vn 0.0014 0.9645 -0.2642
vn 0.0015 0.9645 -0.2642
vn 0.0500 0.9645 -0.2595
vn 0.0844 0.9645 -0.2504
vn 0.1076 0.9645 -0.2413
vn 0.1234 0.9645 -0.2336
vn 0.1350 0.9645 -0.2271
vn 0.1351 0.9645 -0.2271
vn 0.1437 0.9645 -0.2217
vn 0.1488 0.9645 -0.2183
vn 0.1517 0.9645 -0.2164
vn 0.1539 0.9644 -0.2150
vn 0.1404 0.9644 -0.2242
vn 0.1406 0.9644 -0.2240
vn 0.0940 0.9647 -0.2462
vn 0.0360 0.9644 -0.2619
vn 0.0356 0.9644 -0.2620
vn -0.0115 0.9644 -0.2643
vn -0.0113 0.9644 -0.2643
vn -0.0545 0.9644 -0.2589
vn -0.0538 0.9644 -0.2590
vn -0.1084 0.9647 -0.2400
vn -0.1086 0.9647 -0.2400
vn -0.1619 0.9644 -0.2093
vn -0.1625 0.9644 -0.2088
vn -0.1997 0.9643 -0.1742
vn -0.1993 0.9643 -0.1746
vn -0.2341 0.9647 -0.1204
vn -0.2338 0.9647 -0.1209
vn -0.2579 0.9645 -0.0574
vn -0.2581 0.9645 -0.0563
vn -0.2645 0.9642 -0.0161
vn -0.2645 0.9642 -0.0160
vn -0.2624 0.9646 0.0251
vn -0.2624 0.9646 0.0253
vn -0.2578 0.9643 0.0600
vn -0.2578 0.9643 0.0602
vn -0.2532 0.9644 0.0758
vn -0.2444 0.9645 0.1000
vn -0.2443 0.9645 0.1004
vn -0.2385 0.9644 0.1143
vn -0.2358 0.9645 0.1192
vn -0.2359 0.9645 0.1192
vn -0.2265 0.9645 0.1358
vn -0.2264 0.9645 0.1360
vn -0.2199 0.9644 0.1469
vn -0.2200 0.9644 0.1465
vn -0.2168 0.9645 0.1511
vn -0.2168 0.9645 0.1510
vn -0.2083 0.9645 0.1625
vn -0.2031 0.9644 0.1692
vn -0.2031 0.9644 0.1691
vn -0.2031 0.9645 0.1690
vn -0.2032 0.9644 0.1689
vn -0.2033 0.9644 0.1689
vn -0.2033 0.9644 0.1690
vn -0.2034 0.9644 0.1690
vn 0.1881 0.9645 0.1856
vn 0.1860 0.9645 0.1877
vn 0.1787 0.9645 0.1946
vn 0.1677 0.9645 0.2042
vn 0.1537 0.9645 0.2149
vn 0.1372 0.9645 0.2258
vn 0.1198 0.9644 0.2356
vn 0.0997 0.9644 0.2448
vn 0.0995 0.9644 0.2449
vn 0.0666 0.9646 0.2553
vn 0.0283 0.9644 0.2629
vn 0.0285 0.9644 0.2629
vn -0.0034 0.9643 0.2646
vn -0.0038 0.9643 0.2646
vn -0.0495 0.9647 0.2588
vn -0.0497 0.9647 0.2588
vn -0.0981 0.9644 0.2455
vn -0.0977 0.9644 0.2457
vn -0.1266 0.9643 0.2325
vn -0.1267 0.9643 0.2324
vn -0.1600 0.9646 0.2095
vn -0.1599 0.9646 0.2096
vn -0.1842 0.9643 0.1901
vn -0.1841 0.9643 0.1902
vn -0.1903 0.9644 0.1834
vn -0.1909 0.9645 0.1827
vn -0.1820 0.9645 0.1915
vn -0.1718 0.9645 0.2007
vn -0.1719 0.9645 0.2007
vn -0.1584 0.9645 0.2114
vn -0.1434 0.9645 0.2219
vn -0.1434 0.9645 0.2220
vn -0.1294 0.9644 0.2304
vn -0.1122 0.9645 0.2392
vn -0.1123 0.9645 0.2392
vn -0.0875 0.9645 0.2492
vn -0.0874 0.9645 0.2492
vn -0.0573 0.9644 0.2580
vn -0.0572 0.9644 0.2580
vn -0.0238 0.9644 0.2632
vn 0.0164 0.9644 0.2638
vn 0.0162 0.9644 0.2638
vn 0.0620 0.9644 0.2569
vn 0.0616 0.9644 0.2570
vn 0.1130 0.9646 0.2383
vn 0.1131 0.9646 0.2383
vn 0.1579 0.9644 0.2120
vn 0.1582 0.9644 0.2118
vn 0.1878 0.9644 0.1863
vn 0.2141 0.9645 0.1547
vn 0.2140 0.9645 0.1549
vn 0.2391 0.9645 0.1123
vn 0.2390 0.9645 0.1125
vn 0.2564 0.9645 0.0632
vn 0.2639 0.9645 0.0127
vn 0.2639 0.9645 0.0125
vn 0.2618 0.9645 -0.0356
vn 0.2618 0.9645 -0.0357
vn 0.2513 0.9645 -0.0815
vn 0.2513 0.9645 -0.0816
vn 0.2334 0.9645 -0.1239
vn 0.2333 0.9645 -0.1240
vn 0.2086 0.9645 -0.1621
vn 0.2086 0.9645 -0.1622
vn 0.1779 0.9645 -0.1953
vn 0.1779 0.9645 -0.1954
vn 0.1426 0.9645 -0.2225
vn 0.1045 0.9644 -0.2427
vn 0.1047 0.9644 -0.2427
vn 0.0647 0.9645 -0.2562
vn 0.0649 0.9645 -0.2561
vn 0.0224 0.9645 -0.2630
vn 0.0223 0.9645 -0.2630
vn -0.0040 0.9644 -0.2644
vn -0.0041 0.9644 -0.2644
vn -0.0104 0.9644 -0.2643
vn 0.0060 0.9645 -0.2639
vn 0.0061 0.9645 -0.2639
vn 0.0365 0.9644 -0.2619
vn 0.0364 0.9644 -0.2619
vn 0.0646 0.9644 -0.2563
vn 0.0648 0.9644 -0.2563
vn 0.1010 0.9645 -0.2442
vn 0.1013 0.9645 -0.2440
vn 0.1432 0.9645 -0.2219
vn 0.1434 0.9645 -0.2218
vn 0.1860 0.9645 -0.1875
vn 0.1859 0.9645 -0.1876
vn 0.2231 0.9645 -0.1415
vn 0.2229 0.9645 -0.1418
vn 0.2496 0.9645 -0.0867
vn 0.2495 0.9645 -0.0871
vn 0.2630 0.9644 -0.0266
vn 0.2630 0.9644 -0.0269
vn 0.2619 0.9644 0.0362
vn 0.2449 0.9644 0.0994
vn 0.2448 0.9644 0.0998
vn 0.2105 0.9646 0.1589
vn 0.2101 0.9646 0.1594
vn 0.1689 0.9644 0.2037
vn 0.1691 0.9644 0.2034
vn 0.1204 0.9645 0.2351
vn 0.0581 0.9645 0.2575
vn -0.0033 0.9645 0.2642
vn -0.0031 0.9645 0.2642
vn -0.0517 0.9644 0.2592
vn -0.0516 0.9644 0.2592
vn -0.0854 0.9644 0.2501
vn -0.1081 0.9644 0.2411
vn -0.1236 0.9645 0.2336
vn -0.1351 0.9645 0.2271
vn -0.1438 0.9645 0.2217
vn -0.1489 0.9645 0.2183
vn -0.1517 0.9645 0.2164
vn -0.1531 0.9644 0.2155
vn -0.1379 0.9644 0.2255
vn -0.0934 0.9646 0.2467
vn -0.0933 0.9646 0.2467
vn -0.0378 0.9644 0.2616
vn -0.0376 0.9644 0.2616
vn 0.0117 0.9644 0.2642
vn 0.0115 0.9644 0.2642
vn 0.0572 0.9644 0.2581
vn 0.0567 0.9644 0.2582
vn 0.1088 0.9646 0.2403
vn 0.1089 0.9646 0.2402
vn 0.1603 0.9644 0.2103
vn 0.1606 0.9644 0.2100
vn 0.2009 0.9644 0.1722
vn 0.2007 0.9644 0.1724
vn 0.2349 0.9646 0.1197
vn 0.2348 0.9646 0.1201
vn 0.2569 0.9645 0.0612
vn 0.2570 0.9645 0.0607
vn 0.2641 0.9643 0.0175
vn 0.2626 0.9646 -0.0241
vn 0.2626 0.9646 -0.0243
vn 0.2582 0.9644 -0.0577
vn 0.2582 0.9644 -0.0579
vn 0.2532 0.9644 -0.0756
vn 0.2447 0.9645 -0.0993
vn 0.2446 0.9645 -0.0995
vn 0.2388 0.9644 -0.1136
vn 0.2357 0.9645 -0.1195
vn 0.2267 0.9645 -0.1355
vn 0.2266 0.9645 -0.1357
vn 0.2202 0.9644 -0.1463
vn 0.2199 0.9644 -0.1465
vn 0.2166 0.9645 -0.1513
vn 0.2167 0.9645 -0.1512
vn 0.2085 0.9645 -0.1623
vn 0.2084 0.9645 -0.1624
vn 0.2033 0.9644 -0.1689
vn 0.2032 0.9645 -0.1689
vn 0.2031 0.9645 -0.1690
vn 0.2032 0.9644 -0.1691
vt 0.858618 15.199999
vt 1.000000 15.199997
vt 1.000000 15.500000
vt 0.858618 15.500000
vt 0.000000 15.200001
vt 0.141382 15.199997
vt 0.141382 15.500000
vt 0.000000 15.500000
vt 0.141382 -14.500000
vt 0.858618 -14.500000
vt 0.858618 -14.200001
vt 0.141382 -14.200001
vt 0.858618 -13.900000
vt 0.141382 -13.900000
vt 0.858618 -13.600000
vt 0.141382 -13.600000
vt 0.858618 -13.300000
vt 0.141382 -13.300000
vt 0.858618 -13.000000
vt 0.141382 -13.000000
vt 0.858618 -12.700000
vt 0.141382 -12.700000
vt 0.858618 -12.400001
vt 0.141382 -12.400001
vt 0.858618 -12.100000
vt 0.141382 -12.100000
vt 0.858618 -11.800000
vt 0.141382 -11.800000
vt 0.858618 -11.500000
vt 0.141382 -11.500000
vt 0.858618 -11.200001
vt 0.141382 -11.200001
vt 0.858618 -10.900000
vt 0.141382 -10.900000
vt 0.858618 -10.600000
vt 0.141382 -10.600000
vt 0.858618 -10.300000
vt 0.141382 -10.300000
vt 0.858618 -10.000001
vt 0.141382 -10.000001
vt 0.858618 -9.700000
vt 0.141382 -9.700000
vt 0.858618 -9.400001
vt 0.141382 -9.400001
vt 0.858618 -9.100000
vt 0.141382 -9.100000
vt 0.858618 -8.800000
vt 0.141382 -8.800000
vt 0.858618 -8.500000
vt 0.141382 -8.500000
vt 0.858618 -8.200001
vt 0.141382 -8.200001
vt 0.858618 -7.900001
vt 0.141382 -7.900001
vt 0.858618 -7.600001
vt 0.141382 -7.600001
vt 0.858618 -7.300001
vt 0.141382 -7.300001
vt 0.858618 -7.000001
vt 0.141382 -7.000001
vt 0.858618 -6.700001
vt 0.141382 -6.700000
vt 0.858618 -6.400002
vt 0.141382 -6.400001
vt 0.858618 -6.100001
vt 0.141382 -6.100000
vt 0.858618 -5.800001
vt 0.141382 -5.800001
vt 0.858618 -5.500000
vt 0.141382 -5.500000
vt 0.858618 -5.200001
vt 0.141382 -5.200001
vt 0.858618 -4.900001
vt 0.141382 -4.900000
vt 0.858618 -4.600000
vt 0.141382 -4.600000
vt 0.858618 -4.300001
vt 0.141382 -4.300001
vt 0.858618 -4.000001
vt 0.141382 -4.000001
vt 0.858618 -3.700001
vt 0.141382 -3.700001
vt 0.858618 -3.400002
vt 0.141382 -3.400002
vt 0.858618 -3.100002
vt 0.141382 -3.100002
vt 0.858618 -2.800002
vt 0.141382 -2.800002
vt 0.858618 -2.500002
vt 0.141382 -2.500000
vt 0.858618 -2.200001
vt 0.141382 -2.200001
vt 0.858618 -1.900001
vt 0.141382 -1.900000
vt 0.858618 -1.600001
vt 0.141382 -1.600001
vt 0.858618 -1.300001
vt 0.141382 -1.300001
vt 0.858618 -1.000001
vt 0.141382 -1.000001
vt 0.858618 -0.700001
vt 0.141382 -0.700001
vt 0.858618 -0.400001
vt 0.141382 -0.400001
vt 0.858618 -0.100001
vt 0.141382 -0.100001
vt 0.858618 0.199999
vt 0.141382 0.200000
vt 0.858618 0.499999
vt 0.141382 0.500000
vt 0.858618 0.800000
vt 0.141382 0.800000
vt 0.858618 1.099999
vt 0.141382 1.099999
vt 0.858618 1.399999
vt 0.141382 1.399999
vt 0.858618 1.699999
vt 0.141382 1.699999
vt 0.858618 1.999999
vt 0.141382 1.999999
vt 0.858618 2.299998
vt 0.141382 2.300000
vt 0.858618 2.599998
vt 0.141382 2.599998
vt 0.858618 2.899998
vt 0.141382 2.899998
vt 0.858618 3.199997
vt 0.141382 3.199997
vt 0.858618 3.499997
vt 0.141382 3.499997
vt 0.858618 3.799997
vt 0.141382 3.799997
vt 0.858618 4.099997
vt 0.141382 4.099997
vt 0.858618 4.399996
vt 0.141382 4.399996
vt 0.858618 4.699996
vt 0.141382 4.699996
vt 0.858618 4.999995
vt 0.141382 4.999995
vt 0.858618 5.299995
vt 0.141382 5.299995
vt 0.858618 5.599996
vt 0.141382 5.599996
vt 0.858618 5.899995
vt 0.141382 5.899995
vt 0.858618 6.199994
vt 0.141382 6.199994
vt 0.858618 6.499994
vt 0.141382 6.499994
vt 0.858618 6.799994
vt 0.141382 6.799994
vt 0.858618 7.099994
vt 0.141382 7.099996
vt 0.858618 7.399993
vt 0.141382 7.399993
vt 0.858618 7.699993
vt 0.141382 7.699993
vt 0.858618 7.999993
vt 0.141382 7.999993
vt 0.858618 8.299993
vt 0.141382 8.299994
vt 0.858618 8.599993
vt 0.141382 8.599994
vt 0.858618 8.899992
vt 0.141382 8.899992
vt 0.858618 9.199991
vt 0.141382 9.199993
vt 0.858618 9.499990
vt 0.141382 9.499990
vt 0.858618 9.799992
vt 0.141382 9.799993
vt 0.858618 10.099991
vt 0.141382 10.099991
vt 0.858618 10.399992
vt 0.141382 10.399992
vt 0.858618 10.699992
vt 0.141382 10.699994
vt 0.858618 10.999991
vt 0.141382 10.999991
vt 0.858618 11.299994
vt 0.141382 11.299994
vt 0.858618 11.599993
vt 0.141382 11.599993
vt 0.858618 11.899993
vt 0.141382 11.899993
vt 0.858618 12.199990
vt 0.141382 12.199992
vt 0.858618 12.499992
vt 0.141382 12.499992
vt 0.858618 12.799994
vt 0.141382 12.799995
vt 0.858618 13.099995
vt 0.141382 13.099997
vt 0.858618 13.399996
vt 0.141382 13.399997
vt 0.858618 13.699998
vt 0.141382 13.699996
vt 0.858618 13.999998
vt 0.141382 13.999998
vt 0.858618 14.299997
vt 0.141382 14.299997
vt 0.858618 14.599998
vt 0.141382 14.599998
vt 0.858618 14.900000
vt 0.141382 14.900000
vt 0.000000 -14.500000
vt 0.000000 -14.200001
vt 0.000000 -13.900000
vt 0.000000 -13.599999
vt 0.000000 -13.299999
vt 0.000000 -13.000000
vt 0.000000 -12.699999
vt 0.000000 -12.399999
vt 0.000000 -12.099998
vt 0.000000 -11.799998
vt 0.000000 -11.499998
vt 0.000000 -11.199998
vt 0.000000 -10.899998
vt 0.000000 -10.599998
vt 0.000000 -10.299997
vt 0.000000 -9.999997
vt 0.000000 -9.699997
vt 0.000000 -9.399997
vt 0.000000 -9.099997
vt 0.000000 -8.799996
vt 0.000000 -8.499997
vt 0.000000 -8.199996
vt 0.000000 -7.899996
vt 0.000000 -7.599996
vt 0.000000 -7.299996
vt 0.000000 -6.999996
vt 0.000000 -6.699995
vt 0.000000 -6.399995
vt 0.000000 -6.099996
vt 0.000000 -5.799995
vt 0.000000 -5.499994
vt 0.000000 -5.199994
vt 0.000000 -4.899994
vt 0.000000 -4.599994
vt 0.000000 -4.299994
vt 0.000000 -3.999994
vt 0.000000 -3.699993
vt 0.000000 -3.399994
vt 0.000000 -3.099993
vt 0.000000 -2.799992
vt 0.000000 -2.499993
vt 0.000000 -2.199993
vt 0.000000 -1.899992
vt 0.000000 -1.599992
vt 0.000000 -1.299992
vt 0.000000 -0.999991
vt 0.000000 -0.699992
vt 0.000000 -0.399992
vt 0.000000 -0.099992
vt 0.000000 0.200007
vt 0.000000 0.500007
vt 0.000000 0.800007
vt 0.000000 1.100007
vt 0.000000 1.400006
vt 0.000000 1.700006
vt 0.000000 2.000006
vt 0.000000 2.300005
vt 0.000000 2.600005
vt 0.000000 2.900005
vt 0.000000 3.200005
vt 0.000000 3.500004
vt 0.000000 3.800004
vt 0.000000 4.100004
vt 0.000000 4.400003
vt 0.000000 4.700004
vt 0.000000 5.000003
vt 0.000000 5.300002
vt 0.000000 5.600002
vt 0.000000 5.900002
vt 0.000000 6.200002
vt 0.000000 6.500003
vt 0.000000 6.800003
vt 0.000000 7.100003
vt 0.000000 7.400002
vt 0.000000 7.700002
vt 0.000000 8.000002
vt 0.000000 8.300001
vt 0.000000 8.600001
vt 0.000000 8.900002
vt 0.000000 9.200003
vt 0.000000 9.500002
vt 0.000000 9.800002
vt 0.000000 10.100001
vt 0.000000 10.400002
vt 0.000000 10.700001
vt 0.000000 11.000001
vt 0.000000 11.300000
vt 0.000000 11.600000
vt 0.000000 11.900000
vt 0.000000 12.200000
vt 0.000000 12.500002
vt 0.000000 12.800003
vt 0.000000 13.100002
vt 0.000000 13.400002
vt 0.000000 13.700003
vt 0.000000 14.000002
vt 0.000000 14.300001
vt 0.000000 14.600000
vt 0.000000 14.900000
vt 1.000000 -14.500000
vt 1.000000 -14.200001
vt 1.000000 -13.900000
vt 1.000000 -13.600000
vt 1.000000 -13.300000
vt 1.000000 -13.000000
vt 1.000000 -12.700000
vt 1.000000 -12.400001
vt 1.000000 -12.100000
vt 1.000000 -11.800000
vt 1.000000 -11.500000
vt 1.000000 -11.200001
vt 1.000000 -10.900000
vt 1.000000 -10.600000
vt 1.000000 -10.300000
vt 1.000000 -10.000001
vt 1.000000 -9.700000
vt 1.000000 -9.400001
vt 1.000000 -9.100000
vt 1.000000 -8.800000
vt 1.000000 -8.500000
vt 1.000000 -8.200001
vt 1.000000 -7.900001
vt 1.000000 -7.600001
vt 1.000000 -7.300001
vt 1.000000 -7.000001
vt 1.000000 -6.700001
vt 1.000000 -6.400002
vt 1.000000 -6.100001
vt 1.000000 -5.800001
vt 1.000000 -5.500000
vt 1.000000 -5.200001
vt 1.000000 -4.900001
vt 1.000000 -4.600000
vt 1.000000 -4.300001
vt 1.000000 -4.000001
vt 1.000000 -3.700001
vt 1.000000 -3.400002
vt 1.000000 -3.100002
vt 1.000000 -2.800002
vt 1.000000 -2.500002
vt 1.000000 -2.200001
vt 1.000000 -1.900001
vt 1.000000 -1.600001
vt 1.000000 -1.300001
vt 1.000000 -1.000001
vt 1.000000 -0.700001
vt 1.000000 -0.400001
vt 1.000000 -0.100001
vt 1.000000 0.199999
vt 1.000000 0.499999
vt 1.000000 0.800000
vt 1.000000 1.099999
vt 1.000000 1.399999
vt 1.000000 1.699999
vt 1.000000 1.999999
vt 1.000000 2.299998
vt 1.000000 2.599998
vt 1.000000 2.899998
vt 1.000000 3.199997
vt 1.000000 3.499997
vt 1.000000 3.799997
vt 1.000000 4.099997
vt 1.000000 4.399996
vt 1.000000 4.699996
vt 1.000000 4.999995
vt 1.000000 5.299995
vt 1.000000 5.599996
vt 1.000000 5.899995
vt 1.000000 6.199994
vt 1.000000 6.499994
vt 1.000000 6.799994
vt 1.000000 7.099994
vt 1.000000 7.399993
vt 1.000000 7.699993
vt 1.000000 7.999993
vt 1.000000 8.299993
vt 1.000000 8.599993
vt 1.000000 8.899992
vt 1.000000 9.199991
vt 1.000000 9.499990
vt 1.000000 9.799992
vt 1.000000 10.099991
vt 1.000000 10.399992
vt 1.000000 10.699992
vt 1.000000 10.999990
vt 1.000000 11.299992
vt 1.000000 11.599993
vt 1.000000 11.899993
vt 1.000000 12.199992
vt 1.000000 12.499992
vt 1.000000 12.799992
vt 1.000000 13.099995
vt 1.000000 13.399996
vt 1.000000 13.699996
vt 1.000000 13.999998
vt 1.000000 14.299997
vt 1.000000 14.599998
vt 1.000000 14.899997
s 1
f 404/1/1 206/2/1 4/3/1 7/4/1
f 9/5/2 305/6/2 8/7/2 3/8/2
f 305/6/3 404/1/3 7/4/3 8/7/3
f 5/9/3 6/10/3 306/11/3 207/12/3
f 207/12/3 306/11/3 307/13/3 208/14/3
f 208/14/3 307/13/3 308/15/3 209/16/3
f 209/16/3 308/15/3 309/17/3 210/18/3
f 210/18/3 309/17/3 310/19/3 211/20/3
f 211/20/3 310/19/3 311/21/3 212/22/3
f 212/22/3 311/21/3 312/23/3 213/24/3
f 213/24/3 312/23/3 313/25/3 214/26/3
f 214/26/3 313/25/3 314/27/3 215/28/3
f 215/28/3 314/27/3 315/29/3 216/30/3
f 216/30/3 315/29/3 316/31/3 217/32/3
f 217/32/3 316/31/3 317/33/3 218/34/3
f 218/34/3 317/33/3 318/35/3 219/36/3
f 219/36/3 318/35/3 319/37/3 220/38/3
f 220/38/3 319/37/3 320/39/3 221/40/3
f 221/40/3 320/39/3 321/41/3 222/42/3
f 222/42/3 321/41/3 322/43/3 223/44/3
f 223/44/3 322/43/3 323/45/3 224/46/3
f 224/46/3 323/45/3 324/47/3 225/48/3
f 225/48/3 324/47/3 325/49/3 226/50/3
f 226/50/3 325/49/3 326/51/3 227/52/3
f 227/52/3 326/51/3 327/53/3 228/54/3
f 228/54/3 327/53/3 328/55/3 229/56/3
f 229/56/3 328/55/3 329/57/3 230/58/3
f 230/58/3 329/57/3 330/59/3 231/60/3
f 231/60/3 330/59/3 331/61/3 232/62/3
f 232/62/3 331/61/3 332/63/3 233/64/3
f 233/64/3 332/63/3 333/65/3 234/66/3
f 234/66/3 333/65/3 334/67/3 235/68/3
f 235/68/3 334/67/3 335/69/3 236/70/3
f 236/70/3 335/69/3 336/71/3 237/72/3
f 237/72/3 336/71/3 337/73/3 238/74/3
f 238/74/3 337/73/3 338/75/3 239/76/3
f 239/76/3 338/75/3 339/77/3 240/78/3
f 240/78/3 339/77/3 340/79/3 241/80/3
f 241/80/3 340/79/3 341/81/3 242/82/3
f 242/82/3 341/81/3 342/83/3 243/84/3
f 243/84/3 342/83/3 343/85/3 244/86/3
f 244/86/3 343/85/3 344/87/3 245/88/3
f 245/88/3 344/87/3 345/89/3 246/90/3
f 246/90/3 345/89/3 346/91/3 247/92/3
f 247/92/3 346/91/3 347/93/3 248/94/3
f 248/94/3 347/93/3 348/95/3 249/96/3
f 249/96/3 348/95/3 349/97/3 250/98/3
f 250/98/3 349/97/3 350/99/3 251/100/3
f 251/100/3 350/99/3 351/101/3 252/102/3
f 252/102/3 351/101/3 352/103/3 253/104/3
f 253/104/3 352/103/3 353/105/3 254/106/3
f 254/106/3 353/105/3 354/107/3 255/108/3
f 255/108/3 354/107/3 355/109/3 256/110/3
f 256/110/3 355/109/3 356/111/3 257/112/3
f 257/112/3 356/111/3 357/113/3 258/114/3
f 258/114/3 357/113/3 358/115/3 259/116/3
f 259/116/3 358/115/3 359/117/3 260/118/3
f 260/118/3 359/117/3 360/119/3 261/120/3
f 261/120/3 360/119/3 361/121/3 262/122/3
f 262/122/3 361/121/3 362/123/3 263/124/3
f 263/124/3 362/123/3 363/125/3 264/126/3
f 264/126/3 363/125/3 364/127/3 265/128/3
f 265/128/3 364/127/3 365/129/3 266/130/3
f 266/130/3 365/129/3 366/131/3 267/132/3
f 267/132/3 366/131/3 367/133/3 268/134/3
f 268/134/3 367/133/3 368/135/3 269/136/3
f 269/136/3 368/135/3 369/137/3 270/138/3
f 270/138/3 369/137/3 370/139/3 271/140/3
f 271/140/3 370/139/3 371/141/3 272/142/3
f 272/142/3 371/141/3 372/143/3 273/144/3
f 273/144/3 372/143/3 373/145/3 274/146/3
f 274/146/3 373/145/3 374/147/3 275/148/3
f 275/148/3 374/147/3 375/149/3 276/150/3
f 276/150/3 375/149/3 376/151/3 277/152/3
f 277/152/3 376/151/3 377/153/3 278/154/3
f 278/154/3 377/153/3 378/155/3 279/156/3
f 279/156/3 378/155/3 379/157/3 280/158/3
f 280/158/3 379/157/3 380/159/3 281/160/3
f 281/160/3 380/159/3 381/161/3 282/162/3
f 282/162/3 381/161/3 382/163/3 283/164/3
f 283/164/3 382/163/3 383/165/3 284/166/3
f 284/166/3 383/165/3 384/167/3 285/168/3
f 285/168/3 384/167/3 385/169/3 286/170/3
f 286/170/3 385/169/3 386/171/3 287/172/3
f 287/172/3 386/171/3 387/173/3 288/174/3
f 288/174/3 387/173/3 388/175/3 289/176/3
f 289/176/3 388/175/3 389/177/3 290/178/3
f 290/178/3 389/177/3 390/179/3 291/180/3
f 291/180/3 390/179/3 391/181/3 292/182/3
f 292/182/3 391/181/3 392/183/3 293/184/3
f 293/184/3 392/183/3 393/185/3 294/186/3
f 294/186/3 393/185/3 394/187/3 295/188/3
f 295/188/3 394/187/3 395/189/3 296/190/3
f 296/190/3 395/189/3 396/191/3 297/192/3
f 297/192/3 396/191/3 397/193/3 298/194/3
f 298/194/3 397/193/3 398/195/3 299/196/3
f 299/196/3 398/195/3 399/197/3 300/198/3
f 300/198/3 399/197/3 400/199/3 301/200/3
f 301/200/3 400/199/3 401/201/3 302/202/3
f 302/202/3 401/201/3 402/203/3 303/204/3
f 303/204/3 402/203/3 403/205/3 304/206/3
f 304/206/3 403/205/3 404/1/3 305/6/3
f 1/207/4 5/9/4 207/12/5 107/208/5
f 107/208/5 207/12/5 208/14/6 106/209/6
f 106/209/6 208/14/6 209/16/7 105/210/7
f 105/210/7 209/16/7 210/18/8 104/211/8
f 104/211/8 210/18/8 211/20/9 103/212/10
f 103/212/10 211/20/9 212/22/11 102/213/11
f 102/213/11 212/22/11 213/24/12 101/214/13
f 101/214/13 213/24/12 214/26/14 100/215/14
f 100/215/14 214/26/14 215/28/15 99/216/16
f 99/216/16 215/28/15 216/30/17 98/217/18
f 98/217/18 216/30/17 217/32/19 97/218/20
f 97/218/20 217/32/19 218/34/21 96/219/22
f 96/219/22 218/34/21 219/36/23 95/220/24
f 95/220/24 219/36/23 220/38/25 94/221/25
f 94/221/25 220/38/25 221/40/26 93/222/27
f 93/222/27 221/40/26 222/42/28 92/223/28
f 92/223/28 222/42/28 223/44/29 91/224/30
f 91/224/30 223/44/29 224/46/31 90/225/31
f 90/225/31 224/46/31 225/48/32 89/226/33
f 89/226/33 225/48/32 226/50/34 88/227/34
f 88/227/34 226/50/34 227/52/35 87/228/36
f 87/228/36 227/52/35 228/54/37 86/229/38
f 86/229/38 228/54/37 229/56/39 85/230/40
f 85/230/40 229/56/39 230/58/41 84/231/42
f 84/231/42 230/58/41 231/60/43 83/232/44
f 83/232/44 231/60/43 232/62/45 82/233/46
f 82/233/46 232/62/45 233/64/47 81/234/48
f 81/234/48 233/64/47 234/66/49 80/235/50
f 80/235/50 234/66/49 235/68/51 79/236/52
f 79/236/52 235/68/51 236/70/53 78/237/54
f 78/237/54 236/70/53 237/72/55 77/238/56
f 77/238/56 237/72/55 238/74/57 76/239/58
f 76/239/58 238/74/57 239/76/59 75/240/60
f 75/240/60 239/76/59 240/78/61 74/241/61
f 74/241/61 240/78/61 241/80/62 73/242/63
f 73/242/63 241/80/62 242/82/64 72/243/65
f 72/243/65 242/82/64 243/84/66 71/244/67
f 71/244/67 243/84/66 244/86/68 70/245/69
f 70/245/69 244/86/68 245/88/70 69/246/71
f 69/246/71 245/88/70 246/90/72 68/247/72
f 68/247/72 246/90/72 247/92/73 67/248/74
f 67/248/74 247/92/73 248/94/75 66/249/76
f 66/249/76 248/94/75 249/96/77 65/250/78
f 65/250/78 249/96/77 250/98/79 64/251/80
f 64/251/80 250/98/79 251/100/81 63/252/82
f 63/252/82 251/100/81 252/102/83 62/253/84
f 62/253/84 252/102/83 253/104/85 61/254/86
f 61/254/86 253/104/85 254/106/87 60/255/88
f 60/255/88 254/106/87 255/108/89 59/256/90
f 59/256/90 255/108/89 256/110/91 58/257/92
f 58/257/92 256/110/91 257/112/93 57/258/94
f 57/258/94 257/112/93 258/114/95 56/259/96
f 56/259/96 258/114/95 259/116/97 55/260/98
f 55/260/98 259/116/97 260/118/99 54/261/100
f 54/261/100 260/118/99 261/120/101 53/262/102
f 53/262/102 261/120/101 262/122/103 52/263/103
f 52/263/103 262/122/103 263/124/104 51/264/105
f 51/264/105 263/124/104 264/126/106 50/265/107
f 50/265/107 264/126/106 265/128/108 49/266/109
f 49/266/109 265/128/108 266/130/110 48/267/111
f 48/267/111 266/130/110 267/132/112 47/268/113
f 47/268/113 267/132/112 268/134/114 46/269/115
f 46/269/115 268/134/114 269/136/116 45/270/116
f 45/270/116 269/136/116 270/138/117 44/271/117
f 44/271/117 270/138/117 271/140/118 43/272/118
f 43/272/118 271/140/118 272/142/119 42/273/119
f 42/273/119 272/142/119 273/144/120 41/274/121
f 41/274/121 273/144/120 274/146/122 40/275/122
f 40/275/122 274/146/122 275/148/123 39/276/123
f 39/276/123 275/148/123 276/150/124 38/277/124
f 38/277/124 276/150/124 277/152/125 37/278/125
f 37/278/125 277/152/125 278/154/126 36/279/127
f 36/279/127 278/154/126 279/156/128 35/280/128
f 35/280/128 279/156/128 280/158/129 34/281/130
f 34/281/130 280/158/129 281/160/131 33/282/132
f 33/282/132 281/160/131 282/162/133 32/283/134
f 32/283/134 282/162/133 283/164/135 31/284/136
f 31/284/136 283/164/135 284/166/137 30/285/138
f 30/285/138 284/166/137 285/168/139 29/286/140
f 29/286/140 285/168/139 286/170/141 28/287/142
f 28/287/142 286/170/141 287/172/143 27/288/144
f 27/288/144 287/172/143 288/174/145 26/289/146
f 26/289/146 288/174/145 289/176/147 25/290/148
f 25/290/148 289/176/147 290/178/149 24/291/150
f 24/291/150 290/178/149 291/180/151 23/292/151
f 23/292/151 291/180/151 292/182/152 22/293/153
f 22/293/153 292/182/152 293/184/154 21/294/154
f 21/294/154 293/184/154 294/186/155 20/295/156
f 20/295/156 294/186/155 295/188/157 19/296/158
f 19/296/158 295/188/157 296/190/159 18/297/159
f 18/297/159 296/190/159 297/192/160 17/298/160
f 17/298/160 297/192/160 298/194/161 16/299/162
f 16/299/162 298/194/161 299/196/70 15/300/163
f 15/300/163 299/196/70 300/198/164 14/301/165
f 14/301/165 300/198/164 301/200/166 13/302/166
f 13/302/166 301/200/166 302/202/167 12/303/167
f 12/303/167 302/202/167 303/204/168 11/304/168
f 11/304/168 303/204/168 304/206/169 10/305/170
f 10/305/170 304/206/169 305/6/2 9/5/2
f 6/10/171 2/306/171 108/307/172 306/11/172
f 306/11/172 108/307/172 109/308/173 307/13/173
f 307/13/173 109/308/173 110/309/174 308/15/174
f 308/15/174 110/309/174 111/310/175 309/17/175
f 309/17/175 111/310/175 112/311/176 310/19/176
f 310/19/176 112/311/176 113/312/177 311/21/177
f 311/21/177 113/312/177 114/313/178 312/23/179
f 312/23/179 114/313/178 115/314/180 313/25/180
f 313/25/180 115/314/180 116/315/181 314/27/182
f 314/27/182 116/315/181 117/316/183 315/29/184
f 315/29/184 117/316/183 118/317/185 316/31/186
f 316/31/186 118/317/185 119/318/187 317/33/188
f 317/33/188 119/318/187 120/319/189 318/35/190
f 318/35/190 120/319/189 121/320/191 319/37/192
f 319/37/192 121/320/191 122/321/193 320/39/194
f 320/39/194 122/321/193 123/322/195 321/41/195
f 321/41/195 123/322/195 124/323/196 322/43/196
f 322/43/196 124/323/196 125/324/197 323/45/197
f 323/45/197 125/324/197 126/325/198 324/47/199
f 324/47/199 126/325/198 127/326/200 325/49/200
f 325/49/200 127/326/200 128/327/201 326/51/202
f 326/51/202 128/327/201 129/328/203 327/53/203
f 327/53/203 129/328/203 130/329/204 328/55/205
f 328/55/205 130/329/204 131/330/206 329/57/207
f 329/57/207 131/330/206 132/331/208 330/59/209
f 330/59/209 132/331/208 133/332/210 331/61/210
f 331/61/210 133/332/210 134/333/211 332/63/212
f 332/63/212 134/333/211 135/334/213 333/65/214
f 333/65/214 135/334/213 136/335/215 334/67/216
f 334/67/216 136/335/215 137/336/217 335/69/218
f 335/69/218 137/336/217 138/337/219 336/71/219
f 336/71/219 138/337/219 139/338/220 337/73/221
f 337/73/221 139/338/220 140/339/222 338/75/223
f 338/75/223 140/339/222 141/340/224 339/77/224
f 339/77/224 141/340/224 142/341/225 340/79/226
f 340/79/226 142/341/225 143/342/227 341/81/228
f 341/81/228 143/342/227 144/343/229 342/83/230
f 342/83/230 144/343/229 145/344/231 343/85/232
f 343/85/232 145/344/231 146/345/233 344/87/234
f 344/87/234 146/345/233 147/346/235 345/89/236
f 345/89/236 147/346/235 148/347/237 346/91/237
f 346/91/237 148/347/237 149/348/238 347/93/239
f 347/93/239 149/348/238 150/349/240 348/95/241
f 348/95/241 150/349/240 151/350/242 349/97/243
f 349/97/243 151/350/242 152/351/244 350/99/245
f 350/99/245 152/351/244 153/352/246 351/101/246
f 351/101/246 153/352/246 154/353/247 352/103/248
f 352/103/248 154/353/247 155/354/249 353/105/250
f 353/105/250 155/354/249 156/355/251 354/107/252
f 354/107/252 156/355/251 157/356/253 355/109/254
f 355/109/254 157/356/253 158/357/255 356/111/256
f 356/111/256 158/357/255 159/358/257 357/113/258
f 357/113/258 159/358/257 160/359/259 358/115/260
f 358/115/260 160/359/259 161/360/261 359/117/262
f 359/117/262 161/360/261 162/361/263 360/119/264
f 360/119/264 162/361/263 163/362/265 361/121/265
f 361/121/265 163/362/265 164/363/266 362/123/267
f 362/123/267 164/363/266 165/364/268 363/125/269
f 363/125/269 165/364/268 166/365/270 364/127/271
f 364/127/271 166/365/270 167/366/272 365/129/272
f 365/129/272 167/366/272 168/367/273 366/131/273
f 366/131/273 168/367/273 169/368/274 367/133/275
f 367/133/275 169/368/274 170/369/276 368/135/277
f 368/135/277 170/369/276 171/370/278 369/137/278
f 369/137/278 171/370/278 172/371/279 370/139/279
f 370/139/279 172/371/279 173/372/280 371/141/280
f 371/141/280 173/372/280 174/373/281 372/143/281
f 372/143/281 174/373/281 175/374/282 373/145/282
f 373/145/282 175/374/282 176/375/283 374/147/283
f 374/147/283 176/375/283 177/376/284 375/149/284
f 375/149/284 177/376/284 178/377/285 376/151/285
f 376/151/285 178/377/285 179/378/286 377/153/286
f 377/153/286 179/378/286 180/379/287 378/155/288
f 378/155/288 180/379/287 181/380/289 379/157/290
f 379/157/290 181/380/289 182/381/291 380/159/292
f 380/159/292 182/381/291 183/382/293 381/161/294
f 381/161/294 183/382/293 184/383/295 382/163/296
f 382/163/296 184/383/295 185/384/297 383/165/298
f 383/165/298 185/384/297 186/385/299 384/167/300
f 384/167/300 186/385/299 187/386/301 385/169/302
f 385/169/302 187/386/301 188/387/303 386/171/304
f 386/171/304 188/387/303 189/388/305 387/173/305
f 387/173/305 189/388/305 190/389/306 388/175/307
f 388/175/307 190/389/306 191/390/308 389/177/309
f 389/177/309 191/390/308 192/391/310 390/179/310
f 390/179/310 192/391/310 193/392/311 391/181/312
f 391/181/312 193/392/311 194/393/313 392/183/313
f 392/183/313 194/393/313 195/394/314 393/185/314
f 393/185/314 195/394/314 196/395/315 394/187/316
f 394/187/316 196/395/315 197/396/317 395/189/317
f 395/189/317 197/396/317 198/397/318 396/191/318
f 396/191/318 198/397/318 199/398/319 397/193/320
f 397/193/320 199/398/319 200/399/321 398/195/322
f 398/195/322 200/399/321 201/400/323 399/197/323
f 399/197/323 201/400/323 202/401/324 400/199/324
f 400/199/324 202/401/324 203/402/325 401/201/325
f 401/201/325 203/402/325 204/403/326 402/203/326
f 402/203/326 204/403/326 205/404/1 403/205/1
f 403/205/1 205/404/1 206/2/1 404/1/1
