# Blender 5.2.1 LTS
# www.blender.org
mtllib enemy_flying.mtl
o Cube
v -0.421476 -0.470787 0.367632
v -0.421476 -0.427454 0.410965
v -0.464809 -0.427454 0.367632
v -0.464809 0.413385 0.367632
v -0.421476 0.415499 0.410965
v -0.421476 0.458831 0.367632
v -0.464809 -0.427454 -0.367632
v -0.421476 -0.427454 -0.410965
v -0.421476 -0.470787 -0.367632
v -0.421476 0.276466 -0.372055
v -0.421476 0.214062 -0.410965
v -0.464809 0.232998 -0.367632
v 0.464809 -0.427454 0.367632
v 0.421476 -0.427454 0.410965
v 0.421476 -0.470787 0.367632
v 0.421476 0.458831 0.367632
v 0.421476 0.415499 0.410965
v 0.464809 0.413385 0.367632
v 0.421476 -0.470787 -0.367632
v 0.421476 -0.427454 -0.410965
v 0.464809 -0.427454 -0.367632
v 0.421476 0.276466 -0.372055
v 0.464809 0.232998 -0.367632
v 0.421476 0.214062 -0.410965
v -0.464809 -0.427454 -0.000000
v -0.421476 -0.470787 -0.000000
v -0.464809 0.413300 -0.000000
v -0.421476 0.449295 0.002211
v 0.464809 -0.427454 -0.000000
v 0.421476 -0.470787 -0.000000
v 0.464809 0.413300 -0.000000
v 0.421476 0.449295 0.002211
v -0.347037 -0.353014 0.410965
v -0.347037 0.341059 0.410965
v 0.347037 0.341059 0.410965
v 0.347037 -0.353014 0.410965
v -0.347037 -0.353014 0.384485
v -0.347037 0.341059 0.384485
v 0.347037 0.341059 0.384485
v 0.347037 -0.353014 0.384485
v -0.803915 -0.381118 0.682151
v -0.731370 -0.433220 0.682151
v -0.680104 -0.381118 0.733417
v -0.680104 -0.433220 0.805962
v -0.731370 -0.381118 0.857229
v -0.803915 -0.433220 0.857229
v -0.855182 -0.381118 0.805962
v -0.855182 -0.433220 0.733418
v -0.619171 -0.433220 0.411246
v -0.916116 -0.381118 0.411246
v -0.409199 -0.381118 0.621217
v -0.409199 -0.433220 0.918162
v -0.619171 -0.381118 1.128134
v -0.916116 -0.433220 1.128134
v -1.126087 -0.381118 0.918162
v -1.126087 -0.433220 0.621217
v -0.769903 -0.433220 0.411246
v -0.765383 -0.381118 0.411246
v -0.409199 -0.433220 0.767429
v -0.409199 -0.381118 0.771950
v -0.765383 -0.433220 1.128134
v -0.769903 -0.381118 1.128134
v -1.126087 -0.433220 0.771950
v -1.126087 -0.381118 0.767429
v -0.767643 -0.451982 0.246184
v -0.767643 -0.362356 0.246184
v -0.397468 -0.451982 0.399515
v -0.397468 -0.362356 0.399515
v -0.244137 -0.451982 0.769690
v -0.244137 -0.362356 0.769690
v -0.397468 -0.451982 1.139864
v -0.397468 -0.362356 1.139864
v -0.767643 -0.451982 1.293196
v -0.767643 -0.362356 1.293196
v -1.137817 -0.451982 1.139864
v -1.137817 -0.362356 1.139864
v -1.291149 -0.451982 0.769690
v -1.291149 -0.362356 0.769690
v -1.137817 -0.451982 0.399515
v -1.137817 -0.362356 0.399515
v -0.438264 -0.362356 0.440311
v -1.097021 -0.362356 0.440311
v -1.097021 -0.362356 1.099068
v -0.438264 -0.362356 1.099068
v -1.233454 -0.362356 0.769690
v -0.301831 -0.362356 0.769690
v -0.767643 -0.362356 0.303878
v -0.767643 -0.362356 1.235501
v -0.767643 -0.451982 0.303878
v -0.301831 -0.451982 0.769690
v -0.767643 -0.451982 1.235501
v -1.233454 -0.451982 0.769690
v -0.438264 -0.451982 1.099068
v -1.097021 -0.451982 0.440311
v -0.438264 -0.451982 0.440311
v -1.097021 -0.451982 1.099068
v -0.383250 -0.451982 -0.012726
v -0.383250 -0.362356 -0.012726
v 0.803915 -0.381118 0.682151
v 0.731370 -0.433220 0.682151
v 0.680104 -0.381118 0.733417
v 0.680104 -0.433220 0.805962
v 0.731370 -0.381118 0.857229
v 0.803915 -0.433220 0.857229
v 0.855182 -0.381118 0.805962
v 0.855182 -0.433220 0.733418
v 0.619171 -0.433220 0.411246
v 0.916116 -0.381118 0.411245
v 0.409199 -0.381118 0.621217
v 0.409199 -0.433220 0.918162
v 0.619171 -0.381118 1.128134
v 0.916116 -0.433220 1.128134
v 1.126087 -0.381118 0.918162
v 1.126087 -0.433220 0.621217
v 0.769903 -0.433220 0.411245
v 0.765383 -0.381118 0.411245
v 0.409199 -0.433220 0.767429
v 0.409199 -0.381118 0.771950
v 0.765383 -0.433220 1.128134
v 0.769903 -0.381118 1.128134
v 1.126087 -0.433220 0.771950
v 1.126087 -0.381118 0.767429
v 0.767643 -0.451982 0.246184
v 0.767643 -0.362356 0.246184
v 0.397468 -0.451982 0.399515
v 0.397468 -0.362356 0.399515
v 0.244137 -0.451982 0.769690
v 0.244137 -0.362356 0.769690
v 0.397468 -0.451982 1.139864
v 0.397468 -0.362356 1.139864
v 0.767643 -0.451982 1.293196
v 0.767643 -0.362356 1.293196
v 1.137817 -0.451982 1.139864
v 1.137817 -0.362356 1.139864
v 1.291149 -0.451982 0.769690
v 1.291149 -0.362356 0.769690
v 1.137817 -0.451982 0.399515
v 1.137817 -0.362356 0.399515
v 0.438264 -0.362356 0.440311
v 1.097021 -0.362356 0.440311
v 1.097021 -0.362356 1.099068
v 0.438264 -0.362356 1.099068
v 1.233454 -0.362356 0.769690
v 0.301831 -0.362356 0.769690
v 0.767643 -0.362356 0.303878
v 0.767643 -0.362356 1.235501
v 0.767643 -0.451982 0.303878
v 0.301831 -0.451982 0.769690
v 0.767643 -0.451982 1.235501
v 1.233454 -0.451982 0.769690
v 0.438264 -0.451982 1.099068
v 1.097021 -0.451982 0.440311
v 0.438264 -0.451982 0.440311
v 1.097021 -0.451982 1.099068
v 0.383250 -0.451982 -0.012726
v 0.383250 -0.362356 -0.012726
v -0.803915 -0.381118 -0.682151
v -0.731370 -0.433220 -0.682151
v -0.680104 -0.381118 -0.733418
v -0.680104 -0.433220 -0.805962
v -0.731370 -0.381118 -0.857229
v -0.803915 -0.433220 -0.857229
v -0.855182 -0.381118 -0.805962
v -0.855182 -0.433220 -0.733417
v -0.619171 -0.433220 -0.411246
v -0.916116 -0.381118 -0.411246
v -0.409199 -0.381118 -0.621217
v -0.409199 -0.433220 -0.918162
v -0.619170 -0.381118 -1.128134
v -0.916116 -0.433220 -1.128134
v -1.126087 -0.381118 -0.918162
v -1.126087 -0.433220 -0.621217
v -0.769903 -0.433220 -0.411245
v -0.765383 -0.381118 -0.411245
v -0.409199 -0.433220 -0.767429
v -0.409199 -0.381118 -0.771950
v -0.765383 -0.433220 -1.128134
v -0.769903 -0.381118 -1.128134
v -1.126087 -0.433220 -0.771950
v -1.126087 -0.381118 -0.767429
v -0.767643 -0.451982 -0.246184
v -0.767643 -0.362356 -0.246184
v -0.397468 -0.451982 -0.399515
v -0.397468 -0.362356 -0.399515
v -0.244137 -0.451983 -0.769690
v -0.244137 -0.362356 -0.769690
v -0.397468 -0.451983 -1.139864
v -0.397468 -0.362356 -1.139864
v -0.767643 -0.451983 -1.293196
v -0.767643 -0.362356 -1.293196
v -1.137817 -0.451983 -1.139864
v -1.137817 -0.362356 -1.139864
v -1.291149 -0.451983 -0.769690
v -1.291149 -0.362356 -0.769690
v -1.137817 -0.451982 -0.399515
v -1.137817 -0.362356 -0.399515
v -0.438264 -0.362356 -0.440311
v -1.097021 -0.362356 -0.440311
v -1.097021 -0.362356 -1.099068
v -0.438264 -0.362356 -1.099068
v -1.233454 -0.362356 -0.769690
v -0.301831 -0.362356 -0.769690
v -0.767643 -0.362356 -0.303878
v -0.767643 -0.362356 -1.235501
v -0.767643 -0.451982 -0.303878
v -0.301831 -0.451983 -0.769690
v -0.767643 -0.451983 -1.235501
v -1.233454 -0.451983 -0.769690
v -0.438264 -0.451983 -1.099068
v -1.097021 -0.451982 -0.440311
v -0.438264 -0.451982 -0.440311
v -1.097021 -0.451983 -1.099068
v -0.383250 -0.451982 0.012726
v -0.383250 -0.362356 0.012726
v 0.803915 -0.381118 -0.682151
v 0.731370 -0.433220 -0.682151
v 0.680104 -0.381118 -0.733417
v 0.680104 -0.433220 -0.805962
v 0.731370 -0.381118 -0.857229
v 0.803915 -0.433220 -0.857229
v 0.855182 -0.381118 -0.805962
v 0.855182 -0.433220 -0.733417
v 0.619171 -0.433220 -0.411245
v 0.916116 -0.381118 -0.411246
v 0.409199 -0.381118 -0.621217
v 0.409199 -0.433220 -0.918162
v 0.619171 -0.381118 -1.128134
v 0.916116 -0.433220 -1.128134
v 1.126087 -0.381118 -0.918162
v 1.126087 -0.433220 -0.621217
v 0.769904 -0.433220 -0.411245
v 0.765383 -0.381118 -0.411246
v 0.409199 -0.433220 -0.767429
v 0.409199 -0.381118 -0.771950
v 0.765383 -0.433220 -1.128134
v 0.769904 -0.381118 -1.128134
v 1.126087 -0.433220 -0.771950
v 1.126087 -0.381118 -0.767429
v 0.767643 -0.451982 -0.246184
v 0.767643 -0.362356 -0.246184
v 0.397468 -0.451982 -0.399515
v 0.397468 -0.362356 -0.399515
v 0.244137 -0.451983 -0.769690
v 0.244137 -0.362356 -0.769690
v 0.397468 -0.451983 -1.139864
v 0.397468 -0.362356 -1.139864
v 0.767643 -0.451983 -1.293195
v 0.767643 -0.362356 -1.293195
v 1.137817 -0.451983 -1.139864
v 1.137817 -0.362356 -1.139864
v 1.291149 -0.451983 -0.769690
v 1.291149 -0.362356 -0.769690
v 1.137817 -0.451982 -0.399515
v 1.137817 -0.362356 -0.399515
v 0.438264 -0.362356 -0.440311
v 1.097021 -0.362356 -0.440311
v 1.097021 -0.362356 -1.099068
v 0.438264 -0.362356 -1.099068
v 1.233454 -0.362356 -0.769690
v 0.301831 -0.362356 -0.769690
v 0.767643 -0.362356 -0.303878
v 0.767643 -0.362356 -1.235501
v 0.767643 -0.451982 -0.303878
v 0.301831 -0.451983 -0.769690
v 0.767643 -0.451983 -1.235501
v 1.233454 -0.451983 -0.769690
v 0.438264 -0.451983 -1.099068
v 1.097021 -0.451982 -0.440311
v 0.438264 -0.451982 -0.440311
v 1.097021 -0.451983 -1.099068
v 0.383250 -0.451982 0.012726
v 0.383250 -0.362356 0.012726
vn -0.2418 -0.6861 0.6861
vn -0.3416 -0.3416 0.8756
vn -0.6861 -0.2418 0.6861
vn -0.6934 0.2324 0.6821
vn -0.3446 0.3435 0.8737
vn -0.2484 0.6850 0.6849
vn -0.8756 -0.3416 -0.3416
vn -0.3416 -0.3416 -0.8756
vn -0.3416 -0.8756 -0.3416
vn -0.3095 0.7303 -0.6091
vn -0.3368 0.2322 -0.9125
vn -0.8557 0.2852 -0.4318
vn 0.6861 -0.2418 0.6861
vn 0.3416 -0.3416 0.8756
vn 0.2418 -0.6861 0.6861
vn 0.2484 0.6850 0.6849
vn 0.3446 0.3435 0.8737
vn 0.6934 0.2324 0.6821
vn 0.3416 -0.8756 -0.3416
vn 0.3416 -0.3416 -0.8756
vn 0.8756 -0.3416 -0.3416
vn 0.3095 0.7303 -0.6091
vn 0.8557 0.2852 -0.4318
vn 0.3368 0.2322 -0.9125
vn -0.3827 -0.9239 -0.0000
vn -0.9239 -0.3827 -0.0000
vn -0.3484 0.9148 -0.2046
vn -0.8921 0.4370 -0.1149
vn 0.3827 -0.9239 -0.0000
vn 0.9239 -0.3827 -0.0000
vn 0.3484 0.9148 -0.2046
vn 0.3660 0.9304 -0.0192
vn 0.9178 0.3971 -0.0052
vn 0.8921 0.4370 -0.1149
vn -0.3660 0.9304 -0.0192
vn -0.9178 0.3971 -0.0052
vn -0.0000 -0.0000 1.0000
vn -0.7071 -0.7071 -0.0000
vn 0.7071 -0.7071 -0.0000
vn -0.7071 0.7071 -0.0000
vn 0.7071 0.7071 -0.0000
vn -0.5664 -0.2233 -0.7933
vn -0.3377 -0.4701 -0.8155
vn -0.7933 0.2233 -0.5664
vn 0.5664 0.2233 -0.7933
vn 0.3377 0.4701 -0.8155
vn 0.7933 -0.2233 -0.5664
vn 0.8155 -0.4701 -0.3377
vn 0.7933 0.2233 0.5664
vn 0.8155 0.4701 0.3377
vn 0.5664 -0.2233 0.7933
vn 0.3377 -0.4701 0.8155
vn -0.5664 0.2233 0.7933
vn -0.3377 0.4701 0.8155
vn -0.7933 -0.2233 0.5664
vn -0.8155 -0.4701 0.3377
vn -0.8155 0.4701 -0.3377
vn 0.2384 -0.9689 -0.0663
vn 0.3190 -0.9436 -0.0887
vn 0.4270 -0.8964 -0.1188
vn 0.1188 0.8964 -0.4270
vn 0.0663 0.9689 -0.2384
vn 0.0887 0.9436 -0.3190
vn -0.0663 -0.9689 -0.2384
vn -0.0887 -0.9436 -0.3190
vn -0.1188 -0.8964 -0.4270
vn -0.4270 0.8964 -0.1188
vn -0.2384 0.9689 -0.0663
vn -0.3190 0.9436 -0.0887
vn -0.4270 -0.8964 0.1188
vn -0.2384 -0.9689 0.0663
vn -0.3190 -0.9436 0.0887
vn -0.1188 0.8964 0.4270
vn -0.0663 0.9689 0.2384
vn -0.0887 0.9436 0.3190
vn 0.4270 0.8964 0.1188
vn 0.2384 0.9689 0.0663
vn 0.3190 0.9436 0.0887
vn 0.0663 -0.9689 0.2384
vn 0.0887 -0.9436 0.3190
vn 0.1188 -0.8964 0.4270
vn -0.0000 -1.0000 -0.0000
vn -0.0000 1.0000 -0.0000
vn -0.0000 -0.0000 -1.0000
vn 1.0000 -0.0000 -0.0000
vn -1.0000 -0.0000 -0.0000
vn -0.3231 -0.7303 -0.6019
vn 0.4045 -0.5514 -0.7296
vn 0.6417 -0.7581 -0.1162
vn 0.6417 0.7581 -0.1162
vn 0.7764 0.6302 -0.0000
vn 0.7764 -0.6302 -0.0000
vn 0.5490 0.6302 0.5490
vn 0.5490 -0.6302 0.5490
vn -0.0000 0.6302 0.7764
vn -0.0000 -0.6302 0.7764
vn -0.5490 0.6302 0.5490
vn -0.5490 -0.6302 0.5490
vn -0.7764 0.6302 -0.0000
vn -0.7764 -0.6302 -0.0000
vn -0.3231 0.7303 -0.6019
vn -0.5490 0.6302 -0.5490
vn -0.5490 -0.6302 -0.5490
vn -0.7071 -0.0000 0.7071
vn -0.7071 -0.0000 -0.7071
vn 0.7071 -0.0000 -0.7071
vn 0.7071 -0.0000 0.7071
vn 0.4045 0.5514 -0.7296
vn 0.5664 -0.2233 -0.7933
vn 0.7933 0.2233 -0.5664
vn 0.3377 -0.4701 -0.8155
vn -0.5664 0.2233 -0.7933
vn -0.7933 -0.2233 -0.5664
vn -0.3377 0.4701 -0.8155
vn -0.8155 -0.4701 -0.3377
vn -0.7933 0.2233 0.5664
vn -0.5664 -0.2233 0.7933
vn -0.8155 0.4701 0.3377
vn -0.3377 -0.4701 0.8155
vn 0.5664 0.2233 0.7933
vn 0.7933 -0.2233 0.5664
vn 0.3377 0.4701 0.8155
vn 0.8155 -0.4701 0.3377
vn 0.8155 0.4701 -0.3377
vn -0.2384 -0.9689 -0.0663
vn -0.4270 -0.8964 -0.1188
vn -0.3190 -0.9436 -0.0887
vn -0.1188 0.8964 -0.4270
vn -0.0887 0.9436 -0.3190
vn -0.0663 0.9689 -0.2384
vn 0.0663 -0.9689 -0.2384
vn 0.1188 -0.8964 -0.4270
vn 0.0887 -0.9436 -0.3190
vn 0.4270 0.8964 -0.1188
vn 0.3190 0.9436 -0.0887
vn 0.2384 0.9689 -0.0663
vn 0.4270 -0.8964 0.1188
vn 0.3190 -0.9436 0.0887
vn 0.2384 -0.9689 0.0663
vn 0.1188 0.8964 0.4270
vn 0.0887 0.9436 0.3190
vn 0.0663 0.9689 0.2384
vn -0.4270 0.8964 0.1188
vn -0.3190 0.9436 0.0887
vn -0.2384 0.9689 0.0663
vn -0.0663 -0.9689 0.2384
vn -0.1188 -0.8964 0.4270
vn -0.0887 -0.9436 0.3190
vn 0.3231 -0.7303 -0.6019
vn -0.6417 -0.7581 -0.1162
vn -0.4045 -0.5514 -0.7296
vn -0.6417 0.7581 -0.1162
vn 0.3231 0.7303 -0.6019
vn 0.5490 -0.6302 -0.5490
vn 0.5490 0.6302 -0.5490
vn -0.4045 0.5514 -0.7296
vn -0.3231 -0.7303 0.6019
vn 0.6417 -0.7581 0.1162
vn 0.4045 -0.5514 0.7296
vn 0.6417 0.7581 0.1162
vn -0.0000 -0.6302 -0.7764
vn -0.0000 0.6302 -0.7764
vn -0.3231 0.7303 0.6019
vn 0.4045 0.5514 0.7296
vn 0.8154 0.4701 0.3377
vn 0.3231 -0.7303 0.6019
vn -0.4045 -0.5514 0.7296
vn -0.6418 -0.7581 0.1162
vn -0.6418 0.7581 0.1162
vn 0.3231 0.7303 0.6019
vn -0.4045 0.5514 0.7296
vt 0.142554 0.514250
vt 0.142554 0.536496
vt 0.120308 0.536496
vt 0.120308 0.968167
vt 0.142554 0.969252
vt 0.142554 0.991498
vt 0.821137 0.699219
vt 0.487492 0.536496
vt 0.465246 0.536496
vt 0.465246 0.514250
vt 0.465246 0.991498
vt 0.465246 0.969252
vt 0.487492 0.968167
vt 0.776678 0.775249
vt 0.500644 0.505099
vt 0.004830 0.505099
vt 0.004830 0.527909
vt 0.500644 0.527909
vt 0.245428 0.222515
vt 0.004830 0.994448
vt 0.501808 0.989428
vt 0.500644 0.970480
vt 0.004830 0.970525
vt 0.180770 0.931036
vt 0.427030 0.931036
vt 0.200386 0.277867
vt 0.427030 0.574712
vt 0.180770 0.574712
vt 0.990814 0.009378
vt 0.990814 0.491843
vt 0.508349 0.491843
vt 0.508349 0.009378
vt 0.320312 0.294062
s 1
usemtl Material.001
f 1/1/1 2/2/2 3/3/3
f 4/4/4 5/5/5 6/6/6
f 7/7/7 8/7/8 9/7/9
f 10/7/10 11/7/11 12/7/12
f 13/8/13 14/9/14 15/10/15
f 16/11/16 17/12/17 18/13/18
f 19/7/19 20/7/20 21/7/21
f 22/14/22 23/14/23 24/14/24
f 26/15/25 1/16/25 3/17/26 25/18/26
f 2/2/2 5/5/5 4/4/4 3/3/3
f 28/7/27 10/7/10 12/7/12 27/7/28
f 11/7/11 8/7/8 7/7/7 12/7/12
f 19/7/19 9/7/9 8/7/8 20/7/20
f 10/7/10 22/7/22 24/7/24 11/7/11
f 23/7/23 21/7/21 20/7/20 24/7/24
f 30/7/29 19/7/19 21/7/21 29/7/30
f 32/19/31 16/19/32 18/19/33 31/19/34
f 17/12/17 14/9/14 13/8/13 18/13/18
f 1/1/1 15/10/15 14/9/14 2/2/2
f 16/11/16 6/6/6 5/5/5 17/12/17
f 9/7/9 26/7/25 25/7/26 7/7/7
f 6/20/35 28/21/27 27/22/28 4/23/36
f 15/19/29 30/19/29 29/19/30 13/19/30
f 22/7/22 32/7/31 31/7/34 23/7/23
f 3/17/26 4/23/36 27/22/28 25/18/26
f 17/12/17 5/5/5 34/24/37 35/25/37
f 26/19/25 30/19/29 15/19/29 1/19/25
f 32/19/31 28/19/27 6/19/35 16/19/32
f 8/7/8 11/7/11 24/7/24 20/7/20
f 9/7/9 19/7/19 30/7/29 26/7/25
f 25/7/26 27/7/28 12/7/12 7/7/7
f 22/7/22 10/7/10 28/7/27 32/7/31
f 29/19/30 31/19/34 18/19/33 13/19/30
f 21/7/21 23/7/23 31/7/34 29/7/30
f 35/26/38 34/26/39 38/26/39 39/26/38
f 2/2/2 14/9/14 36/27/37 33/28/37
f 5/5/5 2/2/2 33/28/37 34/24/37
f 14/9/14 17/12/17 35/25/37 36/27/37
f 40/29/37 39/30/37 38/31/37 37/32/37
f 36/26/40 35/26/38 39/26/38 40/26/40
f 33/26/41 36/26/40 40/26/40 37/26/41
f 34/26/39 33/26/41 37/26/41 38/26/39
usemtl 
f 41/33/42 42/33/43 48/33/44
f 42/33/45 41/33/46 43/33/47
f 43/33/47 44/33/48 42/33/45
f 44/33/49 43/33/50 45/33/51
f 45/33/51 46/33/52 44/33/49
f 46/33/53 45/33/54 47/33/55
f 47/33/55 48/33/56 46/33/53
f 48/33/44 47/33/57 41/33/42
f 61/33/58 46/33/59 45/33/60 53/33/60
f 48/33/61 56/33/61 64/33/62 47/33/63
f 59/33/64 44/33/65 43/33/66 51/33/66
f 46/33/67 54/33/67 62/33/68 45/33/69
f 41/33/70 50/33/70 57/33/71 42/33/72
f 44/33/73 52/33/73 60/33/74 43/33/75
f 42/33/76 49/33/76 58/33/77 41/33/78
f 63/33/79 48/33/80 47/33/81 55/33/81
f 42/33/72 57/33/71 49/33/82
f 48/33/82 42/33/82 44/33/82 46/33/82
f 41/33/78 58/33/77 50/33/83
f 43/33/83 41/33/83 47/33/83 45/33/83
f 44/33/65 59/33/64 52/33/82
f 43/33/75 60/33/74 51/33/83
f 46/33/59 61/33/58 54/33/82
f 45/33/69 62/33/68 53/33/83
f 48/33/80 63/33/79 56/33/82
f 47/33/63 64/33/62 55/33/83
f 57/33/84 50/33/84 58/33/84 49/33/84
f 59/33/85 51/33/85 60/33/85 52/33/85
f 61/33/37 53/33/37 62/33/37 54/33/37
f 63/33/86 55/33/86 64/33/86 56/33/86
f 65/33/87 97/33/88 67/33/89
f 67/33/89 68/33/90 70/33/91 69/33/92
f 69/33/92 70/33/91 72/33/93 71/33/94
f 71/33/94 72/33/93 74/33/95 73/33/96
f 73/33/96 74/33/95 76/33/97 75/33/98
f 75/33/98 76/33/97 78/33/99 77/33/100
f 66/33/101 87/33/83 81/33/83 68/33/90
f 70/33/91 68/33/90 81/33/83 86/33/83
f 77/33/100 78/33/99 80/33/102 79/33/103
f 79/33/103 80/33/102 66/33/101 65/33/87
f 70/33/91 86/33/83 84/33/83 72/33/93
f 74/33/95 72/33/93 84/33/83 88/33/83
f 95/33/104 81/33/104 87/33/37 89/33/37
f 86/33/86 81/33/104 95/33/104 90/33/86
f 84/33/105 86/33/86 90/33/86 93/33/105
f 88/33/84 84/33/105 93/33/105 91/33/84
f 83/33/106 88/33/84 91/33/84 96/33/106
f 92/33/85 85/33/85 83/33/106 96/33/106
f 94/33/107 82/33/107 85/33/85 92/33/85
f 89/33/37 87/33/37 82/33/107 94/33/107
f 66/33/101 80/33/102 82/33/83 87/33/83
f 78/33/99 85/33/83 82/33/83 80/33/102
f 78/33/99 76/33/97 83/33/83 85/33/83
f 74/33/95 88/33/83 83/33/83 76/33/97
f 71/33/94 73/33/96 91/33/82 93/33/82
f 75/33/98 96/33/82 91/33/82 73/33/96
f 75/33/98 77/33/100 92/33/82 96/33/82
f 79/33/103 94/33/82 92/33/82 77/33/100
f 79/33/103 65/33/87 89/33/82 94/33/82
f 67/33/89 69/33/92 90/33/82 95/33/82
f 71/33/94 93/33/82 90/33/82 69/33/92
f 67/33/89 95/33/82 89/33/82 65/33/87
f 68/33/90 98/33/108 66/33/101
f 65/33/87 66/33/101 98/33/108 97/33/88
f 68/33/90 67/33/89 97/33/88 98/33/108
f 99/33/109 106/33/110 100/33/111
f 100/33/112 101/33/113 99/33/114
f 101/33/113 100/33/112 102/33/115
f 102/33/116 103/33/117 101/33/118
f 103/33/117 102/33/116 104/33/119
f 104/33/120 105/33/121 103/33/122
f 105/33/121 104/33/120 106/33/123
f 106/33/110 99/33/109 105/33/124
f 119/33/125 111/33/126 103/33/126 104/33/127
f 106/33/128 105/33/129 122/33/130 114/33/128
f 117/33/131 109/33/132 101/33/132 102/33/133
f 104/33/134 103/33/135 120/33/136 112/33/134
f 99/33/137 100/33/138 115/33/139 108/33/137
f 102/33/140 101/33/141 118/33/142 110/33/140
f 100/33/143 99/33/144 116/33/145 107/33/143
f 121/33/146 113/33/147 105/33/147 106/33/148
f 100/33/138 107/33/82 115/33/139
f 106/33/82 104/33/82 102/33/82 100/33/82
f 99/33/144 108/33/83 116/33/145
f 101/33/83 103/33/83 105/33/83 99/33/83
f 102/33/133 110/33/82 117/33/131
f 101/33/141 109/33/83 118/33/142
f 104/33/127 112/33/82 119/33/125
f 103/33/135 111/33/83 120/33/136
f 106/33/148 114/33/82 121/33/146
f 105/33/129 113/33/83 122/33/130
f 115/33/84 107/33/84 116/33/84 108/33/84
f 117/33/86 110/33/86 118/33/86 109/33/86
f 119/33/37 112/33/37 120/33/37 111/33/37
f 121/33/85 114/33/85 122/33/85 113/33/85
f 123/33/149 125/33/150 155/33/151
f 125/33/150 127/33/100 128/33/99 126/33/152
f 127/33/100 129/33/98 130/33/97 128/33/99
f 129/33/98 131/33/96 132/33/95 130/33/97
f 131/33/96 133/33/94 134/33/93 132/33/95
f 133/33/94 135/33/92 136/33/91 134/33/93
f 124/33/153 126/33/152 139/33/83 145/33/83
f 128/33/99 144/33/83 139/33/83 126/33/152
f 135/33/92 137/33/154 138/33/155 136/33/91
f 137/33/154 123/33/149 124/33/153 138/33/155
f 128/33/99 130/33/97 142/33/83 144/33/83
f 132/33/95 146/33/83 142/33/83 130/33/97
f 153/33/107 147/33/37 145/33/37 139/33/107
f 144/33/85 148/33/85 153/33/107 139/33/107
f 142/33/106 151/33/106 148/33/85 144/33/85
f 146/33/84 149/33/84 151/33/106 142/33/106
f 141/33/105 154/33/105 149/33/84 146/33/84
f 150/33/86 154/33/105 141/33/105 143/33/86
f 152/33/104 150/33/86 143/33/86 140/33/104
f 147/33/37 152/33/104 140/33/104 145/33/37
f 124/33/153 145/33/83 140/33/83 138/33/155
f 136/33/91 138/33/155 140/33/83 143/33/83
f 136/33/91 143/33/83 141/33/83 134/33/93
f 132/33/95 134/33/93 141/33/83 146/33/83
f 129/33/98 151/33/82 149/33/82 131/33/96
f 133/33/94 131/33/96 149/33/82 154/33/82
f 133/33/94 154/33/82 150/33/82 135/33/92
f 137/33/154 135/33/92 150/33/82 152/33/82
f 137/33/154 152/33/82 147/33/82 123/33/149
f 125/33/150 153/33/82 148/33/82 127/33/100
f 129/33/98 127/33/100 148/33/82 151/33/82
f 125/33/150 123/33/149 147/33/82 153/33/82
f 126/33/152 124/33/153 156/33/156
f 123/33/149 155/33/151 156/33/156 124/33/153
f 126/33/152 156/33/156 155/33/151 125/33/150
f 157/33/117 164/33/116 158/33/119
f 158/33/120 159/33/121 157/33/122
f 159/33/121 158/33/120 160/33/123
f 160/33/110 161/33/109 159/33/124
f 161/33/109 160/33/110 162/33/111
f 162/33/112 163/33/113 161/33/114
f 163/33/113 162/33/112 164/33/115
f 164/33/116 157/33/117 163/33/118
f 177/33/139 169/33/137 161/33/137 162/33/138
f 164/33/140 163/33/141 180/33/142 172/33/140
f 175/33/146 167/33/147 159/33/147 160/33/148
f 162/33/143 161/33/144 178/33/145 170/33/143
f 157/33/126 158/33/127 173/33/125 166/33/126
f 160/33/128 159/33/129 176/33/130 168/33/128
f 158/33/134 157/33/135 174/33/136 165/33/134
f 179/33/131 171/33/132 163/33/132 164/33/133
f 158/33/127 165/33/82 173/33/125
f 164/33/82 162/33/82 160/33/82 158/33/82
f 157/33/135 166/33/83 174/33/136
f 159/33/83 161/33/83 163/33/83 157/33/83
f 160/33/148 168/33/82 175/33/146
f 159/33/129 167/33/83 176/33/130
f 162/33/138 170/33/82 177/33/139
f 161/33/144 169/33/83 178/33/145
f 164/33/133 172/33/82 179/33/131
f 163/33/141 171/33/83 180/33/142
f 173/33/37 165/33/37 174/33/37 166/33/37
f 175/33/85 168/33/85 176/33/85 167/33/85
f 177/33/84 170/33/84 178/33/84 169/33/84
f 179/33/86 172/33/86 180/33/86 171/33/86
f 181/33/157 183/33/158 213/33/159
f 183/33/158 185/33/92 186/33/91 184/33/160
f 185/33/92 187/33/154 188/33/155 186/33/91
f 187/33/154 189/33/161 190/33/162 188/33/155
f 189/33/161 191/33/103 192/33/102 190/33/162
f 191/33/103 193/33/100 194/33/99 192/33/102
f 182/33/163 184/33/160 197/33/83 203/33/83
f 186/33/91 202/33/83 197/33/83 184/33/160
f 193/33/100 195/33/98 196/33/97 194/33/99
f 195/33/98 181/33/157 182/33/163 196/33/97
f 186/33/91 188/33/155 200/33/83 202/33/83
f 190/33/162 204/33/83 200/33/83 188/33/155
f 211/33/105 205/33/84 203/33/84 197/33/105
f 202/33/86 206/33/86 211/33/105 197/33/105
f 200/33/104 209/33/104 206/33/86 202/33/86
f 204/33/37 207/33/37 209/33/104 200/33/104
f 199/33/107 212/33/107 207/33/37 204/33/37
f 208/33/85 212/33/107 199/33/107 201/33/85
f 210/33/106 208/33/85 201/33/85 198/33/106
f 205/33/84 210/33/106 198/33/106 203/33/84
f 182/33/163 203/33/83 198/33/83 196/33/97
f 194/33/99 196/33/97 198/33/83 201/33/83
f 194/33/99 201/33/83 199/33/83 192/33/102
f 190/33/162 192/33/102 199/33/83 204/33/83
f 187/33/154 209/33/82 207/33/82 189/33/161
f 191/33/103 189/33/161 207/33/82 212/33/82
f 191/33/103 212/33/82 208/33/82 193/33/100
f 195/33/98 193/33/100 208/33/82 210/33/82
f 195/33/98 210/33/82 205/33/82 181/33/157
f 183/33/158 211/33/82 206/33/82 185/33/92
f 187/33/154 185/33/92 206/33/82 209/33/82
f 183/33/158 181/33/157 205/33/82 211/33/82
f 184/33/160 182/33/163 214/33/164
f 181/33/157 213/33/159 214/33/164 182/33/163
f 184/33/160 214/33/164 213/33/159 183/33/158
f 215/33/51 216/33/52 222/33/49
f 216/33/53 215/33/54 217/33/55
f 217/33/55 218/33/56 216/33/53
f 218/33/44 217/33/57 219/33/42
f 219/33/42 220/33/43 218/33/44
f 220/33/45 219/33/46 221/33/47
f 221/33/47 222/33/48 220/33/45
f 222/33/49 221/33/165 215/33/51
f 235/33/71 220/33/72 219/33/70 227/33/70
f 222/33/73 230/33/73 238/33/74 221/33/75
f 233/33/79 218/33/80 217/33/81 225/33/81
f 220/33/76 228/33/76 236/33/77 219/33/78
f 215/33/60 224/33/60 231/33/58 216/33/59
f 218/33/61 226/33/61 234/33/62 217/33/63
f 216/33/67 223/33/67 232/33/68 215/33/69
f 237/33/64 222/33/65 221/33/66 229/33/66
f 216/33/59 231/33/58 223/33/82
f 222/33/82 216/33/82 218/33/82 220/33/82
f 215/33/69 232/33/68 224/33/83
f 217/33/83 215/33/83 221/33/83 219/33/83
f 218/33/80 233/33/79 226/33/82
f 217/33/63 234/33/62 225/33/83
f 220/33/72 235/33/71 228/33/82
f 219/33/78 236/33/77 227/33/83
f 222/33/65 237/33/64 230/33/82
f 221/33/75 238/33/74 229/33/83
f 231/33/37 224/33/37 232/33/37 223/33/37
f 233/33/86 225/33/86 234/33/86 226/33/86
f 235/33/84 227/33/84 236/33/84 228/33/84
f 237/33/85 229/33/85 238/33/85 230/33/85
f 239/33/166 271/33/167 241/33/168
f 241/33/168 242/33/169 244/33/99 243/33/100
f 243/33/100 244/33/99 246/33/102 245/33/103
f 245/33/103 246/33/102 248/33/162 247/33/161
f 247/33/161 248/33/162 250/33/155 249/33/154
f 249/33/154 250/33/155 252/33/91 251/33/92
f 240/33/170 261/33/83 255/33/83 242/33/169
f 244/33/99 242/33/169 255/33/83 260/33/83
f 251/33/92 252/33/91 254/33/93 253/33/94
f 253/33/94 254/33/93 240/33/170 239/33/166
f 244/33/99 260/33/83 258/33/83 246/33/102
f 248/33/162 246/33/102 258/33/83 262/33/83
f 269/33/106 255/33/106 261/33/84 263/33/84
f 260/33/85 255/33/106 269/33/106 264/33/85
f 258/33/107 260/33/85 264/33/85 267/33/107
f 262/33/37 258/33/107 267/33/107 265/33/37
f 257/33/104 262/33/37 265/33/37 270/33/104
f 266/33/86 259/33/86 257/33/104 270/33/104
f 268/33/105 256/33/105 259/33/86 266/33/86
f 263/33/84 261/33/84 256/33/105 268/33/105
f 240/33/170 254/33/93 256/33/83 261/33/83
f 252/33/91 259/33/83 256/33/83 254/33/93
f 252/33/91 250/33/155 257/33/83 259/33/83
f 248/33/162 262/33/83 257/33/83 250/33/155
f 245/33/103 247/33/161 265/33/82 267/33/82
f 249/33/154 270/33/82 265/33/82 247/33/161
f 249/33/154 251/33/92 266/33/82 270/33/82
f 253/33/94 268/33/82 266/33/82 251/33/92
f 253/33/94 239/33/166 263/33/82 268/33/82
f 241/33/168 243/33/100 264/33/82 269/33/82
f 245/33/103 267/33/82 264/33/82 243/33/100
f 241/33/168 269/33/82 263/33/82 239/33/166
f 242/33/169 272/33/171 240/33/170
f 239/33/166 240/33/170 272/33/171 271/33/167
f 242/33/169 241/33/168 271/33/167 272/33/171
