# Blender 5.2.1 LTS
# www.blender.org
mtllib enemy.mtl
o Cube
v -0.421476 0.222149 0.367632
v -0.421476 0.265482 0.410965
v -0.464809 0.265482 0.367632
v -0.464809 1.106321 0.367632
v -0.421476 1.108435 0.410965
v -0.421476 1.151767 0.367632
v -0.464809 0.265482 -0.367632
v -0.421476 0.265482 -0.410965
v -0.421476 0.222149 -0.367632
v -0.421476 0.969402 -0.372055
v -0.421476 0.906998 -0.410965
v -0.464809 0.925934 -0.367632
v 0.464809 0.265482 0.367632
v 0.421476 0.265482 0.410965
v 0.421476 0.222149 0.367632
v 0.421476 1.151767 0.367632
v 0.421476 1.108435 0.410965
v 0.464809 1.106321 0.367632
v 0.421476 0.222149 -0.367632
v 0.421476 0.265482 -0.410965
v 0.464809 0.265482 -0.367632
v 0.421476 0.969402 -0.372055
v 0.464809 0.925934 -0.367632
v 0.421476 0.906998 -0.410965
v -0.464809 0.265482 -0.000000
v -0.421476 0.222149 -0.000000
v -0.464809 1.106236 -0.000000
v -0.421476 1.142231 0.002211
v 0.464809 0.265482 -0.000000
v 0.421476 0.222149 -0.000000
v 0.464809 1.106236 -0.000000
v 0.421476 1.142231 0.002211
v -0.347037 0.339922 0.410965
v -0.347037 1.033995 0.410965
v 0.347037 1.033995 0.410965
v 0.347037 0.339922 0.410965
v -0.347037 0.339922 0.384485
v -0.347037 1.033995 0.384485
v 0.347037 1.033995 0.384485
v 0.347037 0.339922 0.384485
v 0.106736 0.163017 0.044267
v 0.106736 0.163017 0.448563
v 0.106736 0.281837 0.409957
v 0.106736 0.355271 0.308882
v 0.106736 0.355271 0.183948
v 0.106736 0.281837 0.082873
v 0.486237 0.163017 0.044267
v 0.511033 0.163017 0.074622
v 0.511033 0.163017 0.418208
v 0.486237 0.163017 0.448563
v 0.511033 0.281837 0.379430
v 0.486237 0.281837 0.409957
v 0.511033 0.330475 0.312037
v 0.486237 0.355271 0.308882
v 0.511033 0.330475 0.180793
v 0.486237 0.355271 0.183948
v 0.511033 0.281837 0.113400
v 0.486237 0.281837 0.082873
v 0.136848 0.163017 0.074379
v 0.480921 0.163017 0.074379
v 0.136848 0.061896 0.107235
v 0.480921 0.061896 0.107235
v 0.136848 -0.000600 0.193253
v 0.480921 -0.000600 0.193253
v 0.136848 -0.000600 0.299577
v 0.480921 -0.000600 0.299577
v 0.136848 0.061896 0.385595
v 0.480921 0.061896 0.385595
v 0.136848 0.163017 0.418451
v 0.480921 0.163017 0.418451
v 0.136848 0.264137 0.385595
v 0.480921 0.264137 0.385595
v 0.136848 0.326633 0.299577
v 0.480921 0.326633 0.299577
v 0.136848 0.326633 0.193253
v 0.480921 0.326633 0.193253
v 0.136848 0.264137 0.107235
v 0.480921 0.264137 0.107235
v -0.106736 0.163017 0.044267
v -0.106736 0.163017 0.448563
v -0.106736 0.281837 0.409957
v -0.106736 0.355271 0.308882
v -0.106736 0.355271 0.183948
v -0.106736 0.281837 0.082873
v -0.486237 0.163017 0.044267
v -0.511033 0.163017 0.074622
v -0.511033 0.163017 0.418208
v -0.486237 0.163017 0.448563
v -0.511033 0.281837 0.379430
v -0.486237 0.281837 0.409957
v -0.511033 0.330475 0.312037
v -0.486237 0.355271 0.308882
v -0.511033 0.330475 0.180793
v -0.486237 0.355271 0.183948
v -0.511033 0.281837 0.113400
v -0.486237 0.281837 0.082873
v -0.136848 0.163017 0.074379
v -0.480921 0.163017 0.074379
v -0.136848 0.061896 0.107235
v -0.480921 0.061896 0.107235
v -0.136848 -0.000600 0.193253
v -0.480921 -0.000600 0.193253
v -0.136848 -0.000600 0.299577
v -0.480921 -0.000600 0.299577
v -0.136848 0.061896 0.385595
v -0.480921 0.061896 0.385595
v -0.136848 0.163017 0.418451
v -0.480921 0.163017 0.418451
v -0.136848 0.264137 0.385595
v -0.480921 0.264137 0.385595
v -0.136848 0.326633 0.299577
v -0.480921 0.326633 0.299577
v -0.136848 0.326633 0.193253
v -0.480921 0.326633 0.193253
v -0.136848 0.264137 0.107235
v -0.480921 0.264137 0.107235
v 0.106736 0.163017 -0.044267
v 0.106736 0.163017 -0.448563
v 0.106736 0.281837 -0.409957
v 0.106736 0.355271 -0.308882
v 0.106736 0.355271 -0.183948
v 0.106736 0.281837 -0.082874
v 0.486237 0.163017 -0.044267
v 0.511033 0.163017 -0.074622
v 0.511033 0.163017 -0.418208
v 0.486237 0.163017 -0.448563
v 0.511033 0.281837 -0.379430
v 0.486237 0.281837 -0.409957
v 0.511033 0.330475 -0.312037
v 0.486237 0.355271 -0.308882
v 0.511033 0.330475 -0.180793
v 0.486237 0.355271 -0.183948
v 0.511033 0.281837 -0.113400
v 0.486237 0.281837 -0.082874
v 0.136848 0.163017 -0.074379
v 0.480921 0.163017 -0.074379
v 0.136848 0.061896 -0.107235
v 0.480921 0.061896 -0.107235
v 0.136848 -0.000600 -0.193253
v 0.480921 -0.000600 -0.193253
v 0.136848 -0.000600 -0.299577
v 0.480921 -0.000600 -0.299577
v 0.136848 0.061896 -0.385595
v 0.480921 0.061896 -0.385595
v 0.136848 0.163017 -0.418452
v 0.480921 0.163017 -0.418452
v 0.136848 0.264137 -0.385595
v 0.480921 0.264137 -0.385595
v 0.136848 0.326633 -0.299577
v 0.480921 0.326633 -0.299577
v 0.136848 0.326633 -0.193253
v 0.480921 0.326633 -0.193253
v 0.136848 0.264137 -0.107235
v 0.480921 0.264137 -0.107235
v -0.106736 0.163017 -0.044267
v -0.106736 0.163017 -0.448563
v -0.106736 0.281837 -0.409957
v -0.106736 0.355271 -0.308882
v -0.106736 0.355271 -0.183948
v -0.106736 0.281837 -0.082874
v -0.486237 0.163017 -0.044267
v -0.511033 0.163017 -0.074622
v -0.511033 0.163017 -0.418208
v -0.486237 0.163017 -0.448563
v -0.511033 0.281837 -0.379430
v -0.486237 0.281837 -0.409957
v -0.511033 0.330475 -0.312037
v -0.486237 0.355271 -0.308882
v -0.511033 0.330475 -0.180793
v -0.486237 0.355271 -0.183948
v -0.511033 0.281837 -0.113400
v -0.486237 0.281837 -0.082874
v -0.136848 0.163017 -0.074379
v -0.480921 0.163017 -0.074379
v -0.136848 0.061896 -0.107235
v -0.480921 0.061896 -0.107235
v -0.136848 -0.000600 -0.193253
v -0.480921 -0.000600 -0.193253
v -0.136848 -0.000600 -0.299577
v -0.480921 -0.000600 -0.299577
v -0.136848 0.061896 -0.385595
v -0.480921 0.061896 -0.385595
v -0.136848 0.163017 -0.418452
v -0.480921 0.163017 -0.418452
v -0.136848 0.264137 -0.385595
v -0.480921 0.264137 -0.385595
v -0.136848 0.326633 -0.299577
v -0.480921 0.326633 -0.299577
v -0.136848 0.326633 -0.193253
v -0.480921 0.326633 -0.193253
v -0.136848 0.264137 -0.107235
v -0.480921 0.264137 -0.107235
vn -0.2418 -0.6861 0.6861
vn -0.3416 -0.3416 0.8756
vn -0.6861 -0.2418 0.6861
vn -0.6934 0.2324 0.6821
vn -0.3446 0.3435 0.8737
vn -0.2484 0.6850 0.6849
vn -0.8756 -0.3416 -0.3416
vn -0.3416 -0.3416 -0.8756
vn -0.3416 -0.8756 -0.3416
vn -0.3095 0.7303 -0.6091
vn -0.3368 0.2322 -0.9125
vn -0.8557 0.2852 -0.4318
vn 0.6861 -0.2418 0.6861
vn 0.3416 -0.3416 0.8756
vn 0.2418 -0.6861 0.6861
vn 0.2484 0.6850 0.6849
vn 0.3446 0.3435 0.8737
vn 0.6934 0.2324 0.6821
vn 0.3416 -0.8756 -0.3416
vn 0.3416 -0.3416 -0.8756
vn 0.8756 -0.3416 -0.3416
vn 0.3095 0.7303 -0.6091
vn 0.8557 0.2852 -0.4318
vn 0.3368 0.2322 -0.9125
vn -0.3827 -0.9239 -0.0000
vn -0.9239 -0.3827 -0.0000
vn -0.3484 0.9148 -0.2046
vn -0.8921 0.4370 -0.1149
vn 0.3827 -0.9239 -0.0000
vn 0.9239 -0.3827 -0.0000
vn 0.3484 0.9148 -0.2046
vn 0.3660 0.9304 -0.0192
vn 0.9178 0.3971 -0.0052
vn 0.8921 0.4370 -0.1149
vn -0.3660 0.9304 -0.0192
vn -0.9178 0.3971 -0.0052
vn -0.0000 -0.0000 1.0000
vn -0.7071 -0.7071 -0.0000
vn 0.7071 -0.7071 -0.0000
vn -0.7071 0.7071 -0.0000
vn 0.7071 0.7071 -0.0000
vn -0.6437 0.4498 -0.6191
vn -0.6437 0.4498 0.6191
vn -0.6437 0.7278 0.2365
vn -0.6437 0.7278 -0.2365
vn -0.6247 0.2413 -0.7427
vn -0.6247 0.2413 0.7427
vn 0.3686 0.5242 0.7677
vn 0.3829 0.2857 0.8785
vn 0.9125 0.1266 0.3889
vn 0.8835 0.3174 0.3444
vn 0.3434 0.8988 0.2723
vn 0.8787 0.4418 0.1808
vn 0.3434 0.8988 -0.2723
vn 0.8787 0.4418 -0.1808
vn 0.3686 0.5242 -0.7677
vn 0.8835 0.3174 -0.3444
vn 0.3829 0.2857 -0.8785
vn 0.9125 0.1266 -0.3889
vn -0.0000 -1.0000 -0.0000
vn -0.0000 -0.0000 -1.0000
vn -0.0000 -0.5878 -0.8090
vn -0.0000 -0.9511 -0.3090
vn -0.0000 -0.9511 0.3090
vn -0.0000 -0.5878 0.8090
vn -0.0000 0.5878 0.8090
vn -0.0000 0.9511 0.3090
vn -0.0000 0.9511 -0.3090
vn 1.0000 -0.0000 -0.0000
vn -0.0000 0.5878 -0.8090
vn -1.0000 -0.0000 -0.0000
vn 0.6437 0.4498 -0.6191
vn 0.6437 0.7278 -0.2365
vn 0.6437 0.7278 0.2365
vn 0.6437 0.4498 0.6191
vn 0.6247 0.2413 0.7427
vn 0.6247 0.2413 -0.7427
vn -0.3686 0.5242 0.7677
vn -0.8835 0.3174 0.3444
vn -0.9125 0.1266 0.3889
vn -0.3829 0.2857 0.8785
vn -0.3434 0.8988 0.2723
vn -0.8787 0.4418 0.1808
vn -0.3434 0.8988 -0.2723
vn -0.8787 0.4418 -0.1808
vn -0.3686 0.5242 -0.7677
vn -0.8835 0.3174 -0.3444
vn -0.3829 0.2857 -0.8785
vn -0.9125 0.1266 -0.3889
vt 0.142554 0.514250
vt 0.142554 0.536496
vt 0.120308 0.536496
vt 0.120308 0.968167
vt 0.142554 0.969252
vt 0.142554 0.991498
vt 0.821137 0.699219
vt 0.487492 0.536496
vt 0.465246 0.536496
vt 0.465246 0.514250
vt 0.465246 0.991498
vt 0.465246 0.969252
vt 0.487492 0.968167
vt 0.776678 0.775249
vt 0.500644 0.505099
vt 0.004830 0.505099
vt 0.004830 0.527909
vt 0.500644 0.527909
vt 0.245428 0.222515
vt 0.004830 0.994448
vt 0.501808 0.989428
vt 0.500644 0.970480
vt 0.004830 0.970525
vt 0.180770 0.931036
vt 0.427030 0.931036
vt 0.200386 0.277867
vt 0.427030 0.574712
vt 0.180770 0.574712
vt 0.990814 0.009378
vt 0.990814 0.491843
vt 0.508349 0.491843
vt 0.508349 0.009378
vt 0.100000 0.500000
vt 0.400000 0.500000
vt 0.300000 0.500000
vt 0.200000 0.500000
vt -0.000000 0.500000
vt 0.500000 0.500000
vt 0.400000 0.969334
vt 0.500000 0.969334
vt 0.462459 1.000000
vt 0.372001 1.000000
vt 0.300000 0.969334
vt 0.305976 1.000000
vt 0.200000 0.969334
vt 0.194024 1.000000
vt 0.100000 0.969334
vt 0.127999 1.000000
vt -0.000000 0.969334
vt 0.037540 1.000000
vt 0.508789 0.284297
s 1
usemtl Material.001
f 1/1/1 2/2/2 3/3/3
f 4/4/4 5/5/5 6/6/6
f 7/7/7 8/7/8 9/7/9
f 10/7/10 11/7/11 12/7/12
f 13/8/13 14/9/14 15/10/15
f 16/11/16 17/12/17 18/13/18
f 19/7/19 20/7/20 21/7/21
f 22/14/22 23/14/23 24/14/24
f 26/15/25 1/16/25 3/17/26 25/18/26
f 2/2/2 5/5/5 4/4/4 3/3/3
f 28/7/27 10/7/10 12/7/12 27/7/28
f 11/7/11 8/7/8 7/7/7 12/7/12
f 19/7/19 9/7/9 8/7/8 20/7/20
f 10/7/10 22/7/22 24/7/24 11/7/11
f 23/7/23 21/7/21 20/7/20 24/7/24
f 30/7/29 19/7/19 21/7/21 29/7/30
f 32/19/31 16/19/32 18/19/33 31/19/34
f 17/12/17 14/9/14 13/8/13 18/13/18
f 1/1/1 15/10/15 14/9/14 2/2/2
f 16/11/16 6/6/6 5/5/5 17/12/17
f 9/7/9 26/7/25 25/7/26 7/7/7
f 6/20/35 28/21/27 27/22/28 4/23/36
f 15/19/29 30/19/29 29/19/30 13/19/30
f 22/7/22 32/7/31 31/7/34 23/7/23
f 3/17/26 4/23/36 27/22/28 25/18/26
f 17/12/17 5/5/5 34/24/37 35/25/37
f 26/19/25 30/19/29 15/19/29 1/19/25
f 32/19/31 28/19/27 6/19/35 16/19/32
f 8/7/8 11/7/11 24/7/24 20/7/20
f 9/7/9 19/7/19 30/7/29 26/7/25
f 25/7/26 27/7/28 12/7/12 7/7/7
f 22/7/22 10/7/10 28/7/27 32/7/31
f 29/19/30 31/19/34 18/19/33 13/19/30
f 21/7/21 23/7/23 31/7/34 29/7/30
f 35/26/38 34/26/39 38/26/39 39/26/38
f 2/2/2 14/9/14 36/27/37 33/28/37
f 5/5/5 2/2/2 33/28/37 34/24/37
f 14/9/14 17/12/17 35/25/37 36/27/37
f 40/29/37 39/30/37 38/31/37 37/32/37
f 36/26/40 35/26/38 39/26/38 40/26/40
f 33/26/41 36/26/40 40/26/40 37/26/41
f 34/26/39 33/26/41 37/26/41 38/26/39
f 46/33/42 43/34/43 44/35/44 45/36/45
f 43/34/43 46/33/42 41/37/46 42/38/47
f 52/39/48 50/40/49 49/41/50 51/42/51
f 54/43/52 52/39/48 51/42/51 53/44/53
f 56/45/54 54/43/52 53/44/53 55/46/55
f 58/47/56 56/45/54 55/46/55 57/48/57
f 47/49/58 58/47/56 57/48/57 48/50/59
f 46/33/42 58/47/56 47/49/58 41/37/46
f 41/37/60 47/49/60 48/50/60 49/41/60 50/40/60 42/38/60
f 48/50/59 57/48/57 51/42/51 49/41/50
f 42/38/47 50/40/49 52/39/48 43/34/43
f 43/34/43 52/39/48 54/43/52 44/35/44
f 53/44/53 51/42/51 57/48/57 55/46/55
f 44/35/44 54/43/52 56/45/54 45/36/45
f 45/36/45 56/45/54 58/47/56 46/33/42
f 59/51/61 60/51/61 62/51/62 61/51/62
f 61/51/62 62/51/62 64/51/63 63/51/63
f 63/51/63 64/51/63 66/51/64 65/51/64
f 65/51/64 66/51/64 68/51/65 67/51/65
f 67/51/65 68/51/65 70/51/37 69/51/37
f 69/51/37 70/51/37 72/51/66 71/51/66
f 71/51/66 72/51/66 74/51/67 73/51/67
f 73/51/67 74/51/67 76/51/68 75/51/68
f 62/51/69 60/51/69 78/51/69 76/51/69 74/51/69 72/51/69 70/51/69 68/51/69 66/51/69 64/51/69
f 75/51/68 76/51/68 78/51/70 77/51/70
f 77/51/70 78/51/70 60/51/61 59/51/61
f 59/51/71 61/51/71 63/51/71 65/51/71 67/51/71 69/51/71 71/51/71 73/51/71 75/51/71 77/51/71
f 84/33/72 83/36/73 82/35/74 81/34/75
f 81/34/75 80/38/76 79/37/77 84/33/72
f 90/39/78 89/42/79 87/41/80 88/40/81
f 92/43/82 91/44/83 89/42/79 90/39/78
f 94/45/84 93/46/85 91/44/83 92/43/82
f 96/47/86 95/48/87 93/46/85 94/45/84
f 85/49/88 86/50/89 95/48/87 96/47/86
f 84/33/72 79/37/77 85/49/88 96/47/86
f 79/37/60 80/38/60 88/40/60 87/41/60 86/50/60 85/49/60
f 86/50/89 87/41/80 89/42/79 95/48/87
f 80/38/76 81/34/75 90/39/78 88/40/81
f 81/34/75 82/35/74 92/43/82 90/39/78
f 91/44/83 93/46/85 95/48/87 89/42/79
f 82/35/74 83/36/73 94/45/84 92/43/82
f 83/36/73 84/33/72 96/47/86 94/45/84
f 97/51/61 99/51/62 100/51/62 98/51/61
f 99/51/62 101/51/63 102/51/63 100/51/62
f 101/51/63 103/51/64 104/51/64 102/51/63
f 103/51/64 105/51/65 106/51/65 104/51/64
f 105/51/65 107/51/37 108/51/37 106/51/65
f 107/51/37 109/51/66 110/51/66 108/51/37
f 109/51/66 111/51/67 112/51/67 110/51/66
f 111/51/67 113/51/68 114/51/68 112/51/67
f 100/51/71 102/51/71 104/51/71 106/51/71 108/51/71 110/51/71 112/51/71 114/51/71 116/51/71 98/51/71
f 113/51/68 115/51/70 116/51/70 114/51/68
f 115/51/70 97/51/61 98/51/61 116/51/70
f 97/51/69 115/51/69 113/51/69 111/51/69 109/51/69 107/51/69 105/51/69 103/51/69 101/51/69 99/51/69
f 122/33/43 121/36/44 120/35/45 119/34/42
f 119/34/42 118/38/46 117/37/47 122/33/43
f 128/39/56 127/42/57 125/41/59 126/40/58
f 130/43/54 129/44/55 127/42/57 128/39/56
f 132/45/52 131/46/53 129/44/55 130/43/54
f 134/47/48 133/48/51 131/46/53 132/45/52
f 123/49/49 124/50/50 133/48/51 134/47/48
f 122/33/43 117/37/47 123/49/49 134/47/48
f 117/37/60 118/38/60 126/40/60 125/41/60 124/50/60 123/49/60
f 124/50/50 125/41/59 127/42/57 133/48/51
f 118/38/46 119/34/42 128/39/56 126/40/58
f 119/34/42 120/35/45 130/43/54 128/39/56
f 129/44/55 131/46/53 133/48/51 127/42/57
f 120/35/45 121/36/44 132/45/52 130/43/54
f 121/36/44 122/33/43 134/47/48 132/45/52
f 135/51/37 137/51/65 138/51/65 136/51/37
f 137/51/65 139/51/64 140/51/64 138/51/65
f 139/51/64 141/51/63 142/51/63 140/51/64
f 141/51/63 143/51/62 144/51/62 142/51/63
f 143/51/62 145/51/61 146/51/61 144/51/62
f 145/51/61 147/51/70 148/51/70 146/51/61
f 147/51/70 149/51/68 150/51/68 148/51/70
f 149/51/68 151/51/67 152/51/67 150/51/68
f 138/51/69 140/51/69 142/51/69 144/51/69 146/51/69 148/51/69 150/51/69 152/51/69 154/51/69 136/51/69
f 151/51/67 153/51/66 154/51/66 152/51/67
f 153/51/66 135/51/37 136/51/37 154/51/66
f 135/51/71 153/51/71 151/51/71 149/51/71 147/51/71 145/51/71 143/51/71 141/51/71 139/51/71 137/51/71
f 160/33/75 157/34/72 158/35/73 159/36/74
f 157/34/72 160/33/75 155/37/76 156/38/77
f 166/39/86 164/40/88 163/41/89 165/42/87
f 168/43/84 166/39/86 165/42/87 167/44/85
f 170/45/82 168/43/84 167/44/85 169/46/83
f 172/47/78 170/45/82 169/46/83 171/48/79
f 161/49/81 172/47/78 171/48/79 162/50/80
f 160/33/75 172/47/78 161/49/81 155/37/76
f 155/37/60 161/49/60 162/50/60 163/41/60 164/40/60 156/38/60
f 162/50/80 171/48/79 165/42/87 163/41/89
f 156/38/77 164/40/88 166/39/86 157/34/72
f 157/34/72 166/39/86 168/43/84 158/35/73
f 167/44/85 165/42/87 171/48/79 169/46/83
f 158/35/73 168/43/84 170/45/82 159/36/74
f 159/36/74 170/45/82 172/47/78 160/33/75
f 173/51/37 174/51/37 176/51/65 175/51/65
f 175/51/65 176/51/65 178/51/64 177/51/64
f 177/51/64 178/51/64 180/51/63 179/51/63
f 179/51/63 180/51/63 182/51/62 181/51/62
f 181/51/62 182/51/62 184/51/61 183/51/61
f 183/51/61 184/51/61 186/51/70 185/51/70
f 185/51/70 186/51/70 188/51/68 187/51/68
f 187/51/68 188/51/68 190/51/67 189/51/67
f 176/51/71 174/51/71 192/51/71 190/51/71 188/51/71 186/51/71 184/51/71 182/51/71 180/51/71 178/51/71
f 189/51/67 190/51/67 192/51/66 191/51/66
f 191/51/66 192/51/66 174/51/37 173/51/37
f 173/51/69 175/51/69 177/51/69 179/51/69 181/51/69 183/51/69 185/51/69 187/51/69 189/51/69 191/51/69
