# Blender 5.2.0 LTS
# www.blender.org
mtllib gravel.mtl
o Plane
v 0.213205 0.050000 0.043396
v 0.395185 0.050000 0.064323
v 0.459335 0.050000 0.249227
v 0.302733 0.050000 0.441677
v 0.038586 0.050000 0.283188
v -0.087828 0.050000 0.303943
v -0.170846 0.050000 0.200171
v -0.357636 0.050000 0.164322
v -0.444427 0.050000 0.432243
v -0.265184 0.050000 0.468092
v -0.201034 0.050000 0.005834
v -0.061413 0.050000 0.169982
v 0.104622 0.050000 0.020928
v -0.008584 0.050000 -0.152655
v 0.159339 0.050000 -0.426236
v 0.349902 0.050000 -0.462085
v 0.478202 0.050000 -0.328124
v 0.432920 0.050000 -0.114920
v 0.212168 0.050000 -0.094165
v 0.104622 0.050000 -0.209258
v -0.167072 0.050000 -0.262087
v -0.265184 0.050000 -0.426236
v -0.429333 0.050000 -0.448877
v -0.453861 0.050000 -0.237559
v -0.270844 0.050000 -0.179070
v -0.119903 0.050000 -0.401708
v 0.023491 0.050000 -0.448877
v 0.010284 0.050000 -0.309257
v 0.213205 -0.106784 0.043396
v 0.395185 -0.106784 0.064323
v 0.459335 -0.106784 0.249227
v 0.302733 -0.106784 0.441677
v 0.038586 -0.106784 0.283188
v -0.087828 -0.106784 0.303943
v -0.170846 -0.106784 0.200171
v -0.357636 -0.106784 0.164322
v -0.444427 -0.106784 0.432243
v -0.265184 -0.106784 0.468092
v -0.201034 -0.106784 0.005834
v -0.061413 -0.106784 0.169982
v 0.104622 -0.106784 0.020928
v -0.008584 -0.106784 -0.152655
v 0.159339 -0.106784 -0.426236
v 0.349902 -0.106784 -0.462085
v 0.478202 -0.106784 -0.328124
v 0.432920 -0.106784 -0.114920
v 0.212168 -0.106784 -0.094165
v 0.104622 -0.106784 -0.209258
v -0.167072 -0.106784 -0.262087
v -0.265184 -0.106784 -0.426236
v -0.429333 -0.106784 -0.448877
v -0.453861 -0.106784 -0.237559
v -0.270844 -0.106784 -0.179070
v -0.119903 -0.106784 -0.401708
v 0.023491 -0.106784 -0.448877
v 0.010284 -0.106784 -0.309257
vn -0.0000 1.0000 -0.0000
vn 0.7756 -0.0000 0.6312
vn 0.9782 -0.0000 0.2078
vn -0.5145 -0.0000 0.8575
vn 0.0936 -0.0000 0.9956
vn -0.8084 -0.0000 -0.5887
vn -0.7307 -0.0000 0.6827
vn 0.7809 -0.0000 -0.6247
vn -0.9696 -0.0000 -0.2445
vn 0.1885 -0.0000 -0.9821
vn 0.8584 -0.0000 -0.5130
vn -0.9513 -0.0000 -0.3082
vn 0.1366 -0.0000 -0.9906
vn -0.1961 -0.0000 0.9806
vn -0.9933 -0.0000 -0.1153
vn 0.6793 -0.0000 0.7339
vn -0.3044 -0.0000 0.9525
vn -0.7617 -0.0000 0.6479
vn 0.6247 -0.0000 0.7809
vn 0.6680 -0.0000 0.7441
vn -0.3125 -0.0000 -0.9499
vn 0.8376 -0.0000 -0.5463
vn 0.9956 -0.0000 0.0942
vn -0.6357 -0.0000 -0.7719
vn 0.1142 -0.0000 -0.9935
vn -0.5790 -0.0000 0.8153
vn -0.1849 -0.0000 -0.9828
vn 0.9448 -0.0000 -0.3278
vn 0.7222 -0.0000 -0.6917
vt 0.000000 0.000000
s 0
f 2/1/1 1/1/1 5/1/1 4/1/1 3/1/1
f 7/1/1 8/1/1 9/1/1 10/1/1 6/1/1
f 12/1/1 13/1/1 14/1/1 11/1/1
f 16/1/1 15/1/1 20/1/1 19/1/1 18/1/1 17/1/1
f 22/1/1 23/1/1 24/1/1 25/1/1 21/1/1
f 27/1/1 26/1/1 28/1/1
f 3/1/2 4/1/2 32/1/2 31/1/2
f 17/1/3 18/1/3 46/1/3 45/1/3
f 4/1/4 5/1/4 33/1/4 32/1/4
f 18/1/5 19/1/5 47/1/5 46/1/5
f 5/1/6 1/1/6 29/1/6 33/1/6
f 19/1/7 20/1/7 48/1/7 47/1/7
f 6/1/8 34/1/8 35/1/8 7/1/8
f 20/1/9 15/1/9 43/1/9 48/1/9
f 7/1/10 35/1/10 36/1/10 8/1/10
f 21/1/11 49/1/11 50/1/11 22/1/11
f 8/1/12 36/1/12 37/1/12 9/1/12
f 22/1/13 50/1/13 51/1/13 23/1/13
f 9/1/14 37/1/14 38/1/14 10/1/14
f 23/1/15 51/1/15 52/1/15 24/1/15
f 10/1/16 38/1/16 34/1/16 6/1/16
f 24/1/17 52/1/17 53/1/17 25/1/17
f 11/1/18 39/1/18 40/1/18 12/1/18
f 25/1/19 53/1/19 49/1/19 21/1/19
f 12/1/20 40/1/20 41/1/20 13/1/20
f 26/1/21 27/1/21 55/1/21 54/1/21
f 13/1/22 41/1/22 42/1/22 14/1/22
f 27/1/23 28/1/23 56/1/23 55/1/23
f 14/1/24 42/1/24 39/1/24 11/1/24
f 1/1/25 2/1/25 30/1/25 29/1/25
f 28/1/26 26/1/26 54/1/26 56/1/26
f 15/1/27 16/1/27 44/1/27 43/1/27
f 2/1/28 3/1/28 31/1/28 30/1/28
f 16/1/29 17/1/29 45/1/29 44/1/29
