# Blender 5.2.0 LTS
# www.blender.org
mtllib monument.mtl
o Cube.002
v 0.976423 0.053509 -0.948976
v 0.976423 0.278471 -0.948976
v 0.976423 0.053509 -1.424837
v 0.976423 0.278471 -1.424837
v 1.425132 0.053509 -0.948976
v 1.425132 0.278471 -0.948976
v 1.425132 0.053509 -1.424837
v 1.425132 0.278471 -1.424837
v 0.982231 0.359457 -0.893699
v 0.982231 0.584419 -0.893699
v 0.982231 0.359457 -1.395196
v 0.982231 0.584419 -1.395196
v 1.396147 0.359457 -0.893699
v 1.396147 0.584419 -0.893699
v 1.396147 0.359457 -1.395196
v 1.396147 0.584419 -1.395196
v 1.050272 0.665406 -1.045855
v 1.050272 0.890367 -1.045855
v 1.050272 0.665406 -1.367782
v 1.050272 0.890367 -1.367782
v 1.367829 0.665406 -1.045855
v 1.367829 0.890367 -1.045855
v 1.367829 0.665406 -1.367782
v 1.367829 0.890367 -1.367782
v 0.907322 0.971354 -1.027870
v 0.907322 1.196316 -1.027870
v 0.907322 0.971354 -1.338541
v 0.907322 1.196316 -1.338541
v 1.337247 0.971354 -1.027870
v 1.337247 1.196316 -1.027870
v 1.337247 0.971354 -1.338541
v 1.337247 1.196316 -1.338541
v 0.908258 1.277302 -0.817569
v 0.908258 1.502264 -0.817569
v 0.908258 1.277302 -1.307236
v 0.908258 1.502264 -1.307236
v 1.308209 1.277302 -0.817569
v 1.308209 1.502264 -0.817569
v 1.308209 1.277302 -1.307236
v 1.308209 1.502264 -1.307236
v 0.941248 1.583250 -0.789517
v 0.941248 1.808212 -0.789517
v 0.941248 1.583250 -1.277887
v 0.941248 1.808212 -1.277887
v 1.279516 1.583250 -0.789517
v 1.279516 1.808212 -0.789517
v 1.279516 1.583250 -1.277887
v 1.279516 1.808212 -1.277887
v 0.922900 1.889199 -0.697190
v 0.922900 2.114161 -0.697190
v 0.922900 1.889199 -1.247849
v 0.922900 2.114161 -1.247849
v 1.250271 1.889199 -0.697190
v 1.250271 2.114161 -0.697190
v 1.250271 1.889199 -1.247849
v 1.250271 2.114161 -1.247849
v 0.783740 2.195147 -0.834125
v 0.783740 2.420109 -0.834125
v 0.783740 2.195147 -1.220271
v 0.783740 2.420109 -1.220271
v 1.219730 2.195147 -0.834125
v 1.219730 2.420109 -0.834125
v 1.219730 2.195147 -1.220271
v 1.219730 2.420109 -1.220271
v 0.678811 2.501095 -0.715959
v 0.678811 2.726057 -0.715959
v 0.678811 2.501095 -1.189955
v 0.678811 2.726057 -1.189955
v 1.189556 2.501095 -0.715959
v 1.189556 2.726057 -0.715959
v 1.189556 2.501095 -1.189955
v 1.189556 2.726057 -1.189955
v 0.621101 2.807044 -0.592171
v 0.621101 3.032006 -0.592171
v 0.621101 2.807044 -1.159578
v 0.621101 3.032006 -1.159578
v 1.159889 2.807044 -0.592171
v 1.159889 3.032006 -0.592171
v 1.159889 2.807044 -1.159578
v 1.159889 3.032006 -1.159578
v -0.948976 0.053509 -0.976423
v -0.948976 0.278471 -0.976423
v -1.424837 0.053509 -0.976423
v -1.424837 0.278471 -0.976423
v -0.948976 0.053509 -1.425132
v -0.948976 0.278471 -1.425132
v -1.424837 0.053509 -1.425132
v -1.424837 0.278471 -1.425132
v -0.893699 0.359457 -0.982231
v -0.893699 0.584419 -0.982231
v -1.395196 0.359457 -0.982231
v -1.395196 0.584419 -0.982231
v -0.893699 0.359457 -1.396147
v -0.893699 0.584419 -1.396147
v -1.395196 0.359457 -1.396147
v -1.395196 0.584419 -1.396147
v -1.045855 0.665406 -1.050272
v -1.045855 0.890367 -1.050272
v -1.367782 0.665406 -1.050272
v -1.367782 0.890367 -1.050272
v -1.045855 0.665406 -1.367829
v -1.045855 0.890367 -1.367829
v -1.367782 0.665406 -1.367829
v -1.367782 0.890367 -1.367829
v -1.027870 0.971354 -0.907322
v -1.027870 1.196316 -0.907322
v -1.338541 0.971354 -0.907322
v -1.338541 1.196316 -0.907322
v -1.027870 0.971354 -1.337247
v -1.027870 1.196316 -1.337247
v -1.338541 0.971354 -1.337247
v -1.338541 1.196316 -1.337247
v -0.817568 1.277302 -0.908258
v -0.817568 1.502264 -0.908258
v -1.307236 1.277302 -0.908258
v -1.307236 1.502264 -0.908258
v -0.817568 1.277302 -1.308209
v -0.817568 1.502264 -1.308209
v -1.307236 1.277302 -1.308209
v -1.307236 1.502264 -1.308209
v -0.789517 1.583250 -0.941248
v -0.789517 1.808212 -0.941248
v -1.277887 1.583250 -0.941248
v -1.277887 1.808212 -0.941248
v -0.789517 1.583250 -1.279516
v -0.789517 1.808212 -1.279516
v -1.277887 1.583250 -1.279516
v -1.277887 1.808212 -1.279516
v -0.697190 1.889199 -0.922900
v -0.697190 2.114161 -0.922900
v -1.247849 1.889199 -0.922900
v -1.247849 2.114161 -0.922900
v -0.697190 1.889199 -1.250271
v -0.697190 2.114161 -1.250271
v -1.247849 1.889199 -1.250271
v -1.247849 2.114161 -1.250271
v -0.834125 2.195147 -0.783740
v -0.834125 2.420109 -0.783740
v -1.220270 2.195147 -0.783740
v -1.220270 2.420109 -0.783740
v -0.834125 2.195147 -1.219730
v -0.834125 2.420109 -1.219730
v -1.220270 2.195147 -1.219730
v -1.220270 2.420109 -1.219730
v -0.715959 2.501095 -0.678811
v -0.715959 2.726057 -0.678811
v -1.189954 2.501095 -0.678811
v -1.189954 2.726057 -0.678811
v -0.715959 2.501095 -1.189556
v -0.715959 2.726057 -1.189556
v -1.189954 2.501095 -1.189556
v -1.189954 2.726057 -1.189556
v -0.592171 2.807044 -0.621101
v -0.592171 3.032006 -0.621101
v -1.159578 2.807044 -0.621101
v -1.159578 3.032006 -0.621101
v -0.592170 2.807044 -1.159889
v -0.592170 3.032006 -1.159889
v -1.159578 2.807044 -1.159889
v -1.159578 3.032006 -1.159889
v -0.976423 0.053509 0.948976
v -0.976423 0.278471 0.948976
v -0.976423 0.053509 1.424838
v -0.976423 0.278471 1.424838
v -1.425132 0.053509 0.948976
v -1.425132 0.278471 0.948976
v -1.425132 0.053509 1.424838
v -1.425132 0.278471 1.424838
v -0.982231 0.359457 0.893699
v -0.982231 0.584419 0.893699
v -0.982231 0.359457 1.395197
v -0.982231 0.584419 1.395197
v -1.396147 0.359457 0.893699
v -1.396147 0.584419 0.893699
v -1.396147 0.359457 1.395197
v -1.396147 0.584419 1.395197
v -1.050272 0.665406 1.045855
v -1.050272 0.890367 1.045855
v -1.050272 0.665406 1.367782
v -1.050272 0.890367 1.367782
v -1.367829 0.665406 1.045855
v -1.367829 0.890367 1.045855
v -1.367829 0.665406 1.367782
v -1.367829 0.890367 1.367782
v -0.907322 0.971354 1.027870
v -0.907322 1.196316 1.027870
v -0.907322 0.971354 1.338541
v -0.907322 1.196316 1.338541
v -1.337247 0.971354 1.027870
v -1.337247 1.196316 1.027870
v -1.337247 0.971354 1.338541
v -1.337247 1.196316 1.338541
v -0.908258 1.277302 0.817569
v -0.908258 1.502264 0.817569
v -0.908258 1.277302 1.307236
v -0.908258 1.502264 1.307236
v -1.308209 1.277302 0.817569
v -1.308209 1.502264 0.817569
v -1.308209 1.277302 1.307236
v -1.308209 1.502264 1.307236
v -0.941248 1.583250 0.789517
v -0.941248 1.808212 0.789517
v -0.941248 1.583250 1.277887
v -0.941248 1.808212 1.277887
v -1.279516 1.583250 0.789517
v -1.279516 1.808212 0.789517
v -1.279516 1.583250 1.277887
v -1.279516 1.808212 1.277887
v -0.922900 1.889199 0.697191
v -0.922900 2.114161 0.697191
v -0.922900 1.889199 1.247849
v -0.922900 2.114161 1.247849
v -1.250271 1.889199 0.697191
v -1.250271 2.114161 0.697191
v -1.250271 1.889199 1.247849
v -1.250271 2.114161 1.247849
v -0.783740 2.195147 0.834125
v -0.783740 2.420109 0.834125
v -0.783740 2.195147 1.220271
v -0.783740 2.420109 1.220271
v -1.219730 2.195147 0.834125
v -1.219730 2.420109 0.834125
v -1.219730 2.195147 1.220271
v -1.219730 2.420109 1.220271
v -0.678811 2.501095 0.715959
v -0.678811 2.726057 0.715959
v -0.678811 2.501095 1.189955
v -0.678811 2.726057 1.189955
v -1.189556 2.501095 0.715959
v -1.189556 2.726057 0.715959
v -1.189556 2.501095 1.189955
v -1.189556 2.726057 1.189955
v -0.621101 2.807044 0.592171
v -0.621101 3.032006 0.592171
v -0.621101 2.807044 1.159578
v -0.621101 3.032006 1.159578
v -1.159889 2.807044 0.592171
v -1.159889 3.032006 0.592171
v -1.159889 2.807044 1.159578
v -1.159889 3.032006 1.159578
v 0.948976 0.053509 0.976423
v 0.948976 0.278471 0.976423
v 1.424837 0.053509 0.976423
v 1.424837 0.278471 0.976423
v 0.948976 0.053509 1.425132
v 0.948976 0.278471 1.425132
v 1.424837 0.053509 1.425132
v 1.424837 0.278471 1.425132
v 0.893699 0.359457 0.982231
v 0.893699 0.584419 0.982231
v 1.395196 0.359457 0.982231
v 1.395196 0.584419 0.982231
v 0.893699 0.359457 1.396147
v 0.893699 0.584419 1.396147
v 1.395196 0.359457 1.396147
v 1.395196 0.584419 1.396147
v 1.045855 0.665406 1.050272
v 1.045855 0.890367 1.050272
v 1.367782 0.665406 1.050272
v 1.367782 0.890367 1.050272
v 1.045855 0.665406 1.367829
v 1.045855 0.890367 1.367829
v 1.367782 0.665406 1.367829
v 1.367782 0.890367 1.367829
v 1.027870 0.971354 0.907322
v 1.027870 1.196316 0.907322
v 1.338541 0.971354 0.907322
v 1.338541 1.196316 0.907322
v 1.027870 0.971354 1.337247
v 1.027870 1.196316 1.337247
v 1.338541 0.971354 1.337247
v 1.338541 1.196316 1.337247
v 0.817569 1.277302 0.908258
v 0.817569 1.502264 0.908258
v 1.307236 1.277302 0.908258
v 1.307236 1.502264 0.908258
v 0.817569 1.277302 1.308209
v 0.817569 1.502264 1.308209
v 1.307236 1.277302 1.308209
v 1.307236 1.502264 1.308209
v 0.789517 1.583250 0.941248
v 0.789517 1.808212 0.941248
v 1.277887 1.583250 0.941248
v 1.277887 1.808212 0.941248
v 0.789517 1.583250 1.279516
v 0.789517 1.808212 1.279516
v 1.277887 1.583250 1.279516
v 1.277887 1.808212 1.279516
v 0.697190 1.889199 0.922900
v 0.697190 2.114161 0.922900
v 1.247849 1.889199 0.922900
v 1.247849 2.114161 0.922900
v 0.697190 1.889199 1.250271
v 0.697190 2.114161 1.250271
v 1.247849 1.889199 1.250271
v 1.247849 2.114161 1.250271
v 0.834125 2.195147 0.783740
v 0.834125 2.420109 0.783740
v 1.220270 2.195147 0.783740
v 1.220270 2.420109 0.783740
v 0.834125 2.195147 1.219730
v 0.834125 2.420109 1.219730
v 1.220270 2.195147 1.219730
v 1.220270 2.420109 1.219730
v 0.715959 2.501095 0.678811
v 0.715959 2.726057 0.678811
v 1.189954 2.501095 0.678811
v 1.189954 2.726057 0.678811
v 0.715959 2.501095 1.189556
v 0.715959 2.726057 1.189556
v 1.189954 2.501095 1.189556
v 1.189954 2.726057 1.189556
v 0.592171 2.807044 0.621101
v 0.592171 3.032006 0.621101
v 1.159578 2.807044 0.621101
v 1.159578 3.032006 0.621101
v 0.592171 2.807044 1.159889
v 0.592171 3.032006 1.159889
v 1.159578 2.807044 1.159889
v 1.159578 3.032006 1.159889
v -1.087440 3.081542 1.087440
v 1.389928 0.000000 1.389928
v 1.087440 3.081542 1.087440
v -1.280097 3.186565 1.280097
v 1.280097 3.384613 1.280097
v 0.768058 3.384613 1.280097
v 0.256019 3.384613 1.280097
v -0.256019 3.384613 1.280097
v -0.768058 3.384613 1.280097
v 0.768058 3.186565 1.280097
v -0.768058 3.186565 1.280097
v 0.768058 3.134050 1.183770
v -0.768058 3.134050 1.183770
v 0.256019 3.282790 1.280097
v -0.256019 3.282790 1.280097
v 1.389928 0.000000 -1.389928
v 1.087440 3.081542 -1.087440
v 1.280097 3.186565 1.280097
v 1.280097 3.186565 -1.280097
v 1.280097 3.384613 -1.280097
v 1.280097 3.384613 -0.768058
v 1.280097 3.384613 -0.256019
v 1.280097 3.384613 0.256019
v 1.280097 3.384613 0.768058
v 1.280097 3.186565 -0.768058
v 1.280097 3.186565 0.768058
v 1.183770 3.134050 -0.768058
v 1.183770 3.134050 0.768058
v 1.280097 3.282790 -0.256019
v 1.280097 3.282790 0.256019
v -1.087440 3.081542 -1.087440
v -1.280097 3.186565 -1.280097
v -1.280097 3.384613 -1.280097
v -0.768058 3.384613 -1.280097
v -0.256020 3.384613 -1.280097
v 0.256019 3.384613 -1.280097
v 0.768058 3.384613 -1.280097
v -0.768058 3.186565 -1.280097
v 0.768058 3.186565 -1.280097
v -0.768058 3.134050 -1.183770
v 0.768058 3.134050 -1.183770
v -0.256020 3.282790 -1.280097
v 0.256019 3.282790 -1.280097
v -1.389928 0.000000 -1.389928
v -1.389928 0.000000 1.389928
v -1.280097 3.384613 1.280097
v -1.280097 3.384613 0.768058
v -1.280097 3.384613 0.256019
v -1.280097 3.384613 -0.256019
v -1.280097 3.384613 -0.768058
v -1.280097 3.186565 0.768058
v -1.280097 3.186565 -0.768058
v -1.183770 3.134050 0.768058
v -1.183770 3.134050 -0.768058
v -1.280097 3.282790 0.256019
v -1.280097 3.282790 -0.256019
v 0.768058 3.384613 1.152088
v -0.768058 3.384613 1.152088
v -0.768058 3.384613 -1.152087
v 0.768058 3.384613 -1.152088
v 1.152087 3.384613 -0.768058
v 1.152087 3.384613 0.768058
v -1.152087 3.384613 0.768058
v -1.152087 3.384613 -0.768058
v 0.256019 3.384613 1.152088
v -0.256019 3.384613 1.152088
v -0.256020 3.384613 -1.152088
v 0.256019 3.384613 -1.152088
v 1.152087 3.384613 -0.256019
v 1.152087 3.384613 0.256019
v -1.152087 3.384613 0.256019
v -1.152087 3.384613 -0.256019
v 1.280097 3.641397 1.280097
v 0.768058 3.641397 1.280097
v 0.256019 3.641397 1.280097
v -0.256019 3.641397 1.280097
v 1.280097 3.641397 -1.280097
v 1.280097 3.641397 -0.768058
v 1.280097 3.641397 -0.256019
v 1.280097 3.641397 0.256019
v -1.280097 3.641397 -1.280097
v -0.768058 3.641397 -1.280097
v -0.256020 3.641397 -1.280097
v 0.256019 3.641397 -1.280097
v -1.280097 3.641397 1.280097
v -1.280097 3.641397 0.768058
v -1.280097 3.641397 0.256019
v -1.280097 3.641397 -0.256019
v -0.768058 3.641397 1.280097
v 1.280097 3.641397 0.768058
v 0.768058 3.641397 -1.280097
v -1.280097 3.641397 -0.768058
v 0.768058 3.641397 1.152088
v -0.768058 3.641397 1.152088
v -0.768058 3.641397 -1.152087
v 0.768058 3.641397 -1.152088
v 1.152087 3.641397 -0.768058
v 1.152087 3.641397 0.768058
v -1.152087 3.641397 0.768058
v -1.152087 3.641397 -0.768058
v 0.256019 3.641397 1.152088
v -0.256019 3.641397 1.152088
v -0.256020 3.641397 -1.152088
v 0.256019 3.641397 -1.152088
v 1.152087 3.641397 -0.256019
v 1.152087 3.641397 0.256019
v -1.152087 3.641397 0.256019
v -1.152087 3.641397 -0.256019
v -0.768058 3.192342 1.152088
v -1.152087 3.192342 0.768058
v 0.768058 3.192342 1.152088
v 1.152087 3.192342 0.768058
v 0.768058 3.192342 -1.152088
v 1.152087 3.192342 -0.768058
v -0.768058 3.192342 -1.152087
v -1.152087 3.192342 -0.768058
v 0.256019 3.192342 1.152088
v -0.256019 3.192342 1.152088
v -0.256020 3.192342 -1.152088
v 0.256019 3.192342 -1.152088
v 1.152087 3.192342 -0.256019
v 1.152087 3.192342 0.256019
v -1.152087 3.192342 0.256019
v -1.152087 3.192342 -0.256019
v 0.768058 3.192342 -0.256019
v 0.768058 3.192342 0.256019
v 0.768058 3.192342 -0.768058
v 0.768058 3.192342 0.768058
v 0.256019 3.192342 -0.256019
v 0.256019 3.192342 0.256019
v 0.256019 3.192342 -0.768058
v 0.256019 3.192342 0.768058
v -0.256020 3.192342 -0.256019
v -0.256020 3.192342 0.256019
v -0.256020 3.192342 -0.768058
v -0.256020 3.192342 0.768058
v -0.768058 3.192342 -0.256019
v -0.768058 3.192342 0.256019
v -0.768058 3.192342 -0.768058
v -0.768058 3.192342 0.768058
vn -1.0000 -0.0000 -0.0000
vn -0.0000 -0.0000 -1.0000
vn 1.0000 -0.0000 -0.0000
vn -0.0000 -0.0000 1.0000
vn -0.0000 -1.0000 -0.0000
vn -0.0000 1.0000 -0.0000
vn -0.0000 0.0977 0.9952
vn -0.0000 -0.8780 0.4787
vn -0.0000 -0.8780 0.4786
vn 0.9952 0.0977 -0.0000
vn 0.4787 -0.8780 -0.0000
vn 0.4786 -0.8780 -0.0000
vn -0.0000 0.0977 -0.9952
vn -0.0000 -0.8780 -0.4787
vn -0.0000 -0.8780 -0.4786
vn -0.9952 0.0977 -0.0000
vn -0.4787 -0.8780 -0.0000
vn -0.4786 -0.8780 -0.0000
vn -0.7071 -0.0000 -0.7071
vn 0.7071 -0.0000 -0.7071
vn 0.7071 -0.0000 0.7071
vn -0.7071 -0.0000 0.7071
vt 0.375000 0.000000
vt 0.625000 0.000000
vt 0.625000 0.250000
vt 0.375000 0.250000
vt 0.625000 0.500000
vt 0.375000 0.500000
vt 0.625000 0.750000
vt 0.375000 0.750000
vt 0.625000 1.000000
vt 0.375000 1.000000
vt 0.125000 0.500000
vt 0.125000 0.750000
vt 0.875000 0.500000
vt 0.875000 0.750000
vt 0.725000 0.750000
vt 0.775000 0.750000
vt 0.000000 0.000000
vt 0.675000 0.750000
vt 0.825000 0.750000
s 0
usemtl 
f 1/1/1 2/2/1 4/3/1 3/4/1
f 3/4/2 4/3/2 8/5/2 7/6/2
f 7/6/3 8/5/3 6/7/3 5/8/3
f 5/8/4 6/7/4 2/9/4 1/10/4
f 3/11/5 7/6/5 5/8/5 1/12/5
f 8/5/6 4/13/6 2/14/6 6/7/6
f 9/1/1 10/2/1 12/3/1 11/4/1
f 11/4/2 12/3/2 16/5/2 15/6/2
f 15/6/3 16/5/3 14/7/3 13/8/3
f 13/8/4 14/7/4 10/9/4 9/10/4
f 11/11/5 15/6/5 13/8/5 9/12/5
f 16/5/6 12/13/6 10/14/6 14/7/6
f 17/1/1 18/2/1 20/3/1 19/4/1
f 19/4/2 20/3/2 24/5/2 23/6/2
f 23/6/3 24/5/3 22/7/3 21/8/3
f 21/8/4 22/7/4 18/9/4 17/10/4
f 19/11/5 23/6/5 21/8/5 17/12/5
f 24/5/6 20/13/6 18/14/6 22/7/6
f 25/1/1 26/2/1 28/3/1 27/4/1
f 27/4/2 28/3/2 32/5/2 31/6/2
f 31/6/3 32/5/3 30/7/3 29/8/3
f 29/8/4 30/7/4 26/9/4 25/10/4
f 27/11/5 31/6/5 29/8/5 25/12/5
f 32/5/6 28/13/6 26/14/6 30/7/6
f 33/1/1 34/2/1 36/3/1 35/4/1
f 35/4/2 36/3/2 40/5/2 39/6/2
f 39/6/3 40/5/3 38/7/3 37/8/3
f 37/8/4 38/7/4 34/9/4 33/10/4
f 35/11/5 39/6/5 37/8/5 33/12/5
f 40/5/6 36/13/6 34/14/6 38/7/6
f 41/1/1 42/2/1 44/3/1 43/4/1
f 43/4/2 44/3/2 48/5/2 47/6/2
f 47/6/3 48/5/3 46/7/3 45/8/3
f 45/8/4 46/7/4 42/9/4 41/10/4
f 43/11/5 47/6/5 45/8/5 41/12/5
f 48/5/6 44/13/6 42/14/6 46/7/6
f 49/1/1 50/2/1 52/3/1 51/4/1
f 51/4/2 52/3/2 56/5/2 55/6/2
f 55/6/3 56/5/3 54/7/3 53/8/3
f 53/8/4 54/7/4 50/9/4 49/10/4
f 51/11/5 55/6/5 53/8/5 49/12/5
f 56/5/6 52/13/6 50/14/6 54/7/6
f 57/1/1 58/2/1 60/3/1 59/4/1
f 59/4/2 60/3/2 64/5/2 63/6/2
f 63/6/3 64/5/3 62/7/3 61/8/3
f 61/8/4 62/7/4 58/9/4 57/10/4
f 59/11/5 63/6/5 61/8/5 57/12/5
f 64/5/6 60/13/6 58/14/6 62/7/6
f 65/1/1 66/2/1 68/3/1 67/4/1
f 67/4/2 68/3/2 72/5/2 71/6/2
f 71/6/3 72/5/3 70/7/3 69/8/3
f 69/8/4 70/7/4 66/9/4 65/10/4
f 67/11/5 71/6/5 69/8/5 65/12/5
f 72/5/6 68/13/6 66/14/6 70/7/6
f 73/1/1 74/2/1 76/3/1 75/4/1
f 75/4/2 76/3/2 80/5/2 79/6/2
f 79/6/3 80/5/3 78/7/3 77/8/3
f 77/8/4 78/7/4 74/9/4 73/10/4
f 75/11/5 79/6/5 77/8/5 73/12/5
f 80/5/6 76/13/6 74/14/6 78/7/6
f 81/1/4 82/2/4 84/3/4 83/4/4
f 83/4/1 84/3/1 88/5/1 87/6/1
f 87/6/2 88/5/2 86/7/2 85/8/2
f 85/8/3 86/7/3 82/9/3 81/10/3
f 83/11/5 87/6/5 85/8/5 81/12/5
f 88/5/6 84/13/6 82/14/6 86/7/6
f 89/1/4 90/2/4 92/3/4 91/4/4
f 91/4/1 92/3/1 96/5/1 95/6/1
f 95/6/2 96/5/2 94/7/2 93/8/2
f 93/8/3 94/7/3 90/9/3 89/10/3
f 91/11/5 95/6/5 93/8/5 89/12/5
f 96/5/6 92/13/6 90/14/6 94/7/6
f 97/1/4 98/2/4 100/3/4 99/4/4
f 99/4/1 100/3/1 104/5/1 103/6/1
f 103/6/2 104/5/2 102/7/2 101/8/2
f 101/8/3 102/7/3 98/9/3 97/10/3
f 99/11/5 103/6/5 101/8/5 97/12/5
f 104/5/6 100/13/6 98/14/6 102/7/6
f 105/1/4 106/2/4 108/3/4 107/4/4
f 107/4/1 108/3/1 112/5/1 111/6/1
f 111/6/2 112/5/2 110/7/2 109/8/2
f 109/8/3 110/7/3 106/9/3 105/10/3
f 107/11/5 111/6/5 109/8/5 105/12/5
f 112/5/6 108/13/6 106/14/6 110/7/6
f 113/1/4 114/2/4 116/3/4 115/4/4
f 115/4/1 116/3/1 120/5/1 119/6/1
f 119/6/2 120/5/2 118/7/2 117/8/2
f 117/8/3 118/7/3 114/9/3 113/10/3
f 115/11/5 119/6/5 117/8/5 113/12/5
f 120/5/6 116/13/6 114/14/6 118/7/6
f 121/1/4 122/2/4 124/3/4 123/4/4
f 123/4/1 124/3/1 128/5/1 127/6/1
f 127/6/2 128/5/2 126/7/2 125/8/2
f 125/8/3 126/7/3 122/9/3 121/10/3
f 123/11/5 127/6/5 125/8/5 121/12/5
f 128/5/6 124/13/6 122/14/6 126/7/6
f 129/1/4 130/2/4 132/3/4 131/4/4
f 131/4/1 132/3/1 136/5/1 135/6/1
f 135/6/2 136/5/2 134/7/2 133/8/2
f 133/8/3 134/7/3 130/9/3 129/10/3
f 131/11/5 135/6/5 133/8/5 129/12/5
f 136/5/6 132/13/6 130/14/6 134/7/6
f 137/1/4 138/2/4 140/3/4 139/4/4
f 139/4/1 140/3/1 144/5/1 143/6/1
f 143/6/2 144/5/2 142/7/2 141/8/2
f 141/8/3 142/7/3 138/9/3 137/10/3
f 139/11/5 143/6/5 141/8/5 137/12/5
f 144/5/6 140/13/6 138/14/6 142/7/6
f 145/1/4 146/2/4 148/3/4 147/4/4
f 147/4/1 148/3/1 152/5/1 151/6/1
f 151/6/2 152/5/2 150/7/2 149/8/2
f 149/8/3 150/7/3 146/9/3 145/10/3
f 147/11/5 151/6/5 149/8/5 145/12/5
f 152/5/6 148/13/6 146/14/6 150/7/6
f 153/1/4 154/2/4 156/3/4 155/4/4
f 155/4/1 156/3/1 160/5/1 159/6/1
f 159/6/2 160/5/2 158/7/2 157/8/2
f 157/8/3 158/7/3 154/9/3 153/10/3
f 155/11/5 159/6/5 157/8/5 153/12/5
f 160/5/6 156/13/6 154/14/6 158/7/6
f 161/1/3 162/2/3 164/3/3 163/4/3
f 163/4/4 164/3/4 168/5/4 167/6/4
f 167/6/1 168/5/1 166/7/1 165/8/1
f 165/8/2 166/7/2 162/9/2 161/10/2
f 163/11/5 167/6/5 165/8/5 161/12/5
f 168/5/6 164/13/6 162/14/6 166/7/6
f 169/1/3 170/2/3 172/3/3 171/4/3
f 171/4/4 172/3/4 176/5/4 175/6/4
f 175/6/1 176/5/1 174/7/1 173/8/1
f 173/8/2 174/7/2 170/9/2 169/10/2
f 171/11/5 175/6/5 173/8/5 169/12/5
f 176/5/6 172/13/6 170/14/6 174/7/6
f 177/1/3 178/2/3 180/3/3 179/4/3
f 179/4/4 180/3/4 184/5/4 183/6/4
f 183/6/1 184/5/1 182/7/1 181/8/1
f 181/8/2 182/7/2 178/9/2 177/10/2
f 179/11/5 183/6/5 181/8/5 177/12/5
f 184/5/6 180/13/6 178/14/6 182/7/6
f 185/1/3 186/2/3 188/3/3 187/4/3
f 187/4/4 188/3/4 192/5/4 191/6/4
f 191/6/1 192/5/1 190/7/1 189/8/1
f 189/8/2 190/7/2 186/9/2 185/10/2
f 187/11/5 191/6/5 189/8/5 185/12/5
f 192/5/6 188/13/6 186/14/6 190/7/6
f 193/1/3 194/2/3 196/3/3 195/4/3
f 195/4/4 196/3/4 200/5/4 199/6/4
f 199/6/1 200/5/1 198/7/1 197/8/1
f 197/8/2 198/7/2 194/9/2 193/10/2
f 195/11/5 199/6/5 197/8/5 193/12/5
f 200/5/6 196/13/6 194/14/6 198/7/6
f 201/1/3 202/2/3 204/3/3 203/4/3
f 203/4/4 204/3/4 208/5/4 207/6/4
f 207/6/1 208/5/1 206/7/1 205/8/1
f 205/8/2 206/7/2 202/9/2 201/10/2
f 203/11/5 207/6/5 205/8/5 201/12/5
f 208/5/6 204/13/6 202/14/6 206/7/6
f 209/1/3 210/2/3 212/3/3 211/4/3
f 211/4/4 212/3/4 216/5/4 215/6/4
f 215/6/1 216/5/1 214/7/1 213/8/1
f 213/8/2 214/7/2 210/9/2 209/10/2
f 211/11/5 215/6/5 213/8/5 209/12/5
f 216/5/6 212/13/6 210/14/6 214/7/6
f 217/1/3 218/2/3 220/3/3 219/4/3
f 219/4/4 220/3/4 224/5/4 223/6/4
f 223/6/1 224/5/1 222/7/1 221/8/1
f 221/8/2 222/7/2 218/9/2 217/10/2
f 219/11/5 223/6/5 221/8/5 217/12/5
f 224/5/6 220/13/6 218/14/6 222/7/6
f 225/1/3 226/2/3 228/3/3 227/4/3
f 227/4/4 228/3/4 232/5/4 231/6/4
f 231/6/1 232/5/1 230/7/1 229/8/1
f 229/8/2 230/7/2 226/9/2 225/10/2
f 227/11/5 231/6/5 229/8/5 225/12/5
f 232/5/6 228/13/6 226/14/6 230/7/6
f 233/1/3 234/2/3 236/3/3 235/4/3
f 235/4/4 236/3/4 240/5/4 239/6/4
f 239/6/1 240/5/1 238/7/1 237/8/1
f 237/8/2 238/7/2 234/9/2 233/10/2
f 235/11/5 239/6/5 237/8/5 233/12/5
f 240/5/6 236/13/6 234/14/6 238/7/6
f 241/1/2 242/2/2 244/3/2 243/4/2
f 243/4/3 244/3/3 248/5/3 247/6/3
f 247/6/4 248/5/4 246/7/4 245/8/4
f 245/8/1 246/7/1 242/9/1 241/10/1
f 243/11/5 247/6/5 245/8/5 241/12/5
f 248/5/6 244/13/6 242/14/6 246/7/6
f 249/1/2 250/2/2 252/3/2 251/4/2
f 251/4/3 252/3/3 256/5/3 255/6/3
f 255/6/4 256/5/4 254/7/4 253/8/4
f 253/8/1 254/7/1 250/9/1 249/10/1
f 251/11/5 255/6/5 253/8/5 249/12/5
f 256/5/6 252/13/6 250/14/6 254/7/6
f 257/1/2 258/2/2 260/3/2 259/4/2
f 259/4/3 260/3/3 264/5/3 263/6/3
f 263/6/4 264/5/4 262/7/4 261/8/4
f 261/8/1 262/7/1 258/9/1 257/10/1
f 259/11/5 263/6/5 261/8/5 257/12/5
f 264/5/6 260/13/6 258/14/6 262/7/6
f 265/1/2 266/2/2 268/3/2 267/4/2
f 267/4/3 268/3/3 272/5/3 271/6/3
f 271/6/4 272/5/4 270/7/4 269/8/4
f 269/8/1 270/7/1 266/9/1 265/10/1
f 267/11/5 271/6/5 269/8/5 265/12/5
f 272/5/6 268/13/6 266/14/6 270/7/6
f 273/1/2 274/2/2 276/3/2 275/4/2
f 275/4/3 276/3/3 280/5/3 279/6/3
f 279/6/4 280/5/4 278/7/4 277/8/4
f 277/8/1 278/7/1 274/9/1 273/10/1
f 275/11/5 279/6/5 277/8/5 273/12/5
f 280/5/6 276/13/6 274/14/6 278/7/6
f 281/1/2 282/2/2 284/3/2 283/4/2
f 283/4/3 284/3/3 288/5/3 287/6/3
f 287/6/4 288/5/4 286/7/4 285/8/4
f 285/8/1 286/7/1 282/9/1 281/10/1
f 283/11/5 287/6/5 285/8/5 281/12/5
f 288/5/6 284/13/6 282/14/6 286/7/6
f 289/1/2 290/2/2 292/3/2 291/4/2
f 291/4/3 292/3/3 296/5/3 295/6/3
f 295/6/4 296/5/4 294/7/4 293/8/4
f 293/8/1 294/7/1 290/9/1 289/10/1
f 291/11/5 295/6/5 293/8/5 289/12/5
f 296/5/6 292/13/6 290/14/6 294/7/6
f 297/1/2 298/2/2 300/3/2 299/4/2
f 299/4/3 300/3/3 304/5/3 303/6/3
f 303/6/4 304/5/4 302/7/4 301/8/4
f 301/8/1 302/7/1 298/9/1 297/10/1
f 299/11/5 303/6/5 301/8/5 297/12/5
f 304/5/6 300/13/6 298/14/6 302/7/6
f 305/1/2 306/2/2 308/3/2 307/4/2
f 307/4/3 308/3/3 312/5/3 311/6/3
f 311/6/4 312/5/4 310/7/4 309/8/4
f 309/8/1 310/7/1 306/9/1 305/10/1
f 307/11/5 311/6/5 309/8/5 305/12/5
f 312/5/6 308/13/6 306/14/6 310/7/6
f 313/1/2 314/2/2 316/3/2 315/4/2
f 315/4/3 316/3/3 320/5/3 319/6/3
f 319/6/4 320/5/4 318/7/4 317/8/4
f 317/8/1 318/7/1 314/9/1 313/10/1
f 315/11/5 319/6/5 317/8/5 313/12/5
f 320/5/6 316/13/6 314/14/6 318/7/6
f 322/8/7 323/7/7 321/9/7 365/10/7
f 327/15/4 328/16/4 335/16/4 334/15/4
f 338/17/4 325/7/4 326/18/4 330/17/4
f 330/17/8 331/17/8 333/17/8 332/17/8
f 321/9/9 323/7/9 332/17/9 333/17/9
f 331/17/9 324/17/9 321/9/9 333/17/9
f 338/17/9 330/17/9 332/17/9 323/7/9
f 324/17/4 331/17/4 329/19/4 366/14/4
f 327/15/4 334/15/4 330/17/4 326/18/4
f 329/19/4 331/17/4 335/16/4 328/16/4
f 331/17/4 330/17/4 334/15/4 335/16/4
f 336/8/10 337/7/10 323/9/10 322/10/10
f 342/15/3 343/16/3 350/16/3 349/15/3
f 339/17/3 340/7/3 341/18/3 345/17/3
f 345/17/11 346/17/11 348/17/11 347/17/11
f 323/9/12 337/7/12 347/17/12 348/17/12
f 346/17/12 338/17/12 323/9/12 348/17/12
f 339/17/12 345/17/12 347/17/12 337/7/12
f 338/17/3 346/17/3 344/19/3 325/14/3
f 342/15/3 349/15/3 345/17/3 341/18/3
f 344/19/3 346/17/3 350/16/3 343/16/3
f 346/17/3 345/17/3 349/15/3 350/16/3
f 364/8/13 351/7/13 337/9/13 336/10/13
f 355/15/2 356/16/2 363/16/2 362/15/2
f 352/17/2 353/7/2 354/18/2 358/17/2
f 358/17/14 359/17/14 361/17/14 360/17/14
f 337/9/15 351/7/15 360/17/15 361/17/15
f 359/17/15 339/17/15 337/9/15 361/17/15
f 352/17/15 358/17/15 360/17/15 351/7/15
f 339/17/2 359/17/2 357/19/2 340/14/2
f 355/15/2 362/15/2 358/17/2 354/18/2
f 357/19/2 359/17/2 363/16/2 356/16/2
f 359/17/2 358/17/2 362/15/2 363/16/2
f 365/8/16 321/7/16 351/9/16 364/10/16
f 368/15/1 369/16/1 376/16/1 375/15/1
f 324/17/1 366/7/1 367/18/1 371/17/1
f 371/17/17 372/17/17 374/17/17 373/17/17
f 351/9/18 321/7/18 373/17/18 374/17/18
f 372/17/18 352/17/18 351/9/18 374/17/18
f 324/17/18 371/17/18 373/17/18 321/7/18
f 352/17/1 372/17/1 370/19/1 353/14/1
f 368/15/1 375/15/1 371/17/1 367/18/1
f 370/19/1 372/17/1 376/16/1 369/16/1
f 372/17/1 371/17/1 375/15/1 376/16/1
f 340/14/2 357/19/2 411/19/2 397/14/2
f 382/17/2 418/17/2 410/17/2 344/17/2
f 389/15/1 390/16/1 426/16/1 425/15/1
f 341/18/3 340/7/3 397/7/3 398/18/3
f 369/16/1 368/15/1 407/15/1 408/16/1
f 381/17/4 341/17/4 398/17/4 417/17/4
f 386/16/1 328/16/1 396/16/1 422/16/1
f 357/17/1 380/17/1 416/17/1 411/17/1
f 327/15/3 385/15/3 421/15/3 395/15/3
f 367/18/1 366/7/1 405/7/1 406/18/1
f 379/17/3 354/17/3 402/17/3 415/17/3
f 388/16/3 356/16/3 404/16/3 424/16/3
f 327/15/6 326/17/6 377/17/6 385/15/6
f 328/16/6 386/16/6 378/17/6 329/17/6
f 368/15/6 367/17/6 383/17/6 391/15/6
f 369/16/6 392/16/6 384/17/6 370/17/6
f 355/15/6 354/17/6 379/17/6 387/15/6
f 356/16/6 388/16/6 380/17/6 357/17/6
f 342/15/6 341/17/6 381/17/6 389/15/6
f 343/16/6 390/16/6 382/17/6 344/17/6
f 382/17/19 432/17/19 431/17/19 377/17/19
f 384/17/3 392/16/3 444/16/3 436/17/3
f 383/17/20 378/17/20 429/17/20 430/17/20
f 391/15/3 383/17/3 430/17/3 443/15/3
f 378/17/2 386/16/2 438/16/2 429/17/2
f 385/15/2 377/17/2 431/17/2 437/15/2
f 388/16/4 387/15/4 439/15/4 440/16/4
f 382/17/1 390/16/1 442/16/1 432/17/1
f 386/16/2 385/15/2 437/15/2 438/16/2
f 389/15/1 381/17/1 434/17/1 441/15/1
f 392/16/3 391/15/3 443/15/3 444/16/3
f 379/17/21 384/17/21 436/17/21 435/17/21
f 380/17/4 388/16/4 440/16/4 433/17/4
f 390/16/1 389/15/1 441/15/1 442/16/1
f 381/17/22 380/17/22 433/17/22 434/17/22
f 387/15/4 379/17/4 435/17/4 439/15/4
f 404/16/6 403/15/6 423/15/6 424/16/6
f 396/16/6 395/15/6 421/15/6 422/16/6
f 408/16/6 407/15/6 427/15/6 428/16/6
f 400/16/6 399/15/6 425/15/6 426/16/6
f 413/17/6 394/17/6 410/17/6 418/17/6
f 393/14/6 410/19/6 394/17/6
f 414/17/6 419/17/6 406/17/6 409/17/6
f 405/14/6 409/19/6 406/17/6
f 415/17/6 402/17/6 412/17/6 420/17/6
f 401/14/6 412/19/6 402/17/6
f 416/17/6 417/17/6 398/17/6 411/17/6
f 397/14/6 411/19/6 398/17/6
f 391/15/3 392/16/3 428/16/3 427/15/3
f 366/14/4 329/19/4 409/19/4 405/14/4
f 383/17/2 367/17/2 406/17/2 419/17/2
f 343/16/3 342/15/3 399/15/3 400/16/3
f 368/15/4 391/15/4 427/15/4 407/15/4
f 370/17/4 384/17/4 420/17/4 412/17/4
f 392/16/2 369/16/2 408/16/2 428/16/2
f 378/17/20 383/17/20 419/17/20 414/17/20
f 342/15/2 389/15/2 425/15/2 399/15/2
f 377/17/19 413/17/19 418/17/19 382/17/19
f 353/14/1 370/19/1 412/19/1 401/14/1
f 390/16/4 343/16/4 400/16/4 426/16/4
f 380/17/22 381/17/22 417/17/22 416/17/22
f 354/18/2 353/7/2 401/7/2 402/18/2
f 384/17/21 379/17/21 415/17/21 420/17/21
f 326/18/4 325/7/4 393/7/4 394/18/4
f 385/15/2 386/16/2 422/16/2 421/15/2
f 356/16/2 355/15/2 403/15/2 404/16/2
f 325/14/3 344/19/3 410/19/3 393/14/3
f 387/15/4 388/16/4 424/16/4 423/15/4
f 328/16/4 327/15/4 395/15/4 396/16/4
f 326/17/1 394/17/1 413/17/1 377/17/1
f 355/15/1 387/15/1 423/15/1 403/15/1
f 329/17/3 378/17/3 414/17/3 409/17/3
f 432/17/6 442/16/6 446/16/6 448/17/6
f 441/15/6 434/17/6 447/17/6 445/15/6
f 442/16/6 441/15/6 445/15/6 446/16/6
f 448/17/6 446/16/6 450/16/6 452/17/6
f 445/15/6 447/17/6 451/17/6 449/15/6
f 446/16/6 445/15/6 449/15/6 450/16/6
f 452/17/6 450/16/6 454/16/6 456/17/6
f 449/15/6 451/17/6 455/17/6 453/15/6
f 450/16/6 449/15/6 453/15/6 454/16/6
f 456/17/6 454/16/6 458/16/6 460/17/6
f 453/15/6 455/17/6 459/17/6 457/15/6
f 454/16/6 453/15/6 457/15/6 458/16/6
f 443/15/6 430/17/6 460/17/6 458/16/6
f 443/15/6 458/16/6 457/15/6 444/16/6
f 444/16/6 457/15/6 459/17/6 436/17/6
f 430/17/6 429/17/6 460/17/6
f 432/17/6 448/17/6 431/17/6
f 434/17/6 433/17/6 447/17/6
f 436/17/6 459/17/6 435/17/6
f 435/17/6 459/17/6 455/17/6 439/15/6
f 439/15/6 455/17/6 451/17/6 440/16/6
f 440/16/6 451/17/6 447/17/6 433/17/6
f 438/16/6 456/17/6 460/17/6 429/17/6
f 437/15/6 452/17/6 456/17/6 438/16/6
f 431/17/6 448/17/6 452/17/6 437/15/6
