# Blender 5.2.1 LTS
# www.blender.org
mtllib turret_barrel.mtl
o Barrel
v -0.160000 0.000000 -0.160000
v 0.160000 -0.000000 -0.160000
v -0.160000 -0.086503 -0.134601
v 0.160000 -0.086503 -0.134601
v -0.160000 -0.145541 -0.066466
v 0.160000 -0.145541 -0.066466
v -0.160000 -0.158371 0.022770
v 0.160000 -0.158371 0.022770
v -0.160000 -0.120920 0.104778
v 0.160000 -0.120920 0.104778
v -0.160000 -0.045077 0.153519
v 0.160000 -0.045077 0.153519
v -0.160000 0.045077 0.153519
v 0.160000 0.045077 0.153519
v -0.160000 0.120920 0.104778
v 0.160000 0.120920 0.104778
v -0.160000 0.158371 0.022770
v 0.160000 0.158371 0.022770
v -0.160000 0.145541 -0.066466
v 0.160000 0.145541 -0.066466
v -0.160000 0.086503 -0.134601
v 0.160000 0.086503 -0.134601
v -0.096000 0.000000 0.394615
v -0.096000 0.000000 0.010615
v -0.080760 -0.051902 0.394615
v -0.080760 -0.051902 0.010615
v -0.039880 -0.087325 0.394615
v -0.039880 -0.087325 0.010615
v 0.013662 -0.095023 0.394615
v 0.013662 -0.095023 0.010615
v 0.062867 -0.072552 0.394615
v 0.062867 -0.072552 0.010615
v 0.092111 -0.027046 0.394615
v 0.092111 -0.027046 0.010615
v 0.092111 0.027046 0.394615
v 0.092111 0.027046 0.010615
v 0.062867 0.072552 0.394615
v 0.062867 0.072552 0.010615
v 0.013662 0.095023 0.394615
v 0.013662 0.095023 0.010615
v -0.039880 0.087325 0.394615
v -0.039880 0.087325 0.010615
v -0.080760 0.051902 0.394615
v -0.080760 0.051902 0.010615
v -0.058217 0.000000 0.394615
v -0.048975 -0.031474 0.394615
v -0.024184 -0.052956 0.394615
v 0.008285 -0.057624 0.394615
v 0.038124 -0.043997 0.394615
v 0.055858 -0.016401 0.394615
v 0.055858 0.016402 0.394615
v 0.038124 0.043997 0.394615
v 0.008285 0.057624 0.394615
v -0.024184 0.052956 0.394615
v -0.048975 0.031474 0.394615
v -0.058217 0.000000 0.355690
v -0.048975 -0.031474 0.355690
v -0.024184 -0.052956 0.355690
v 0.008285 -0.057624 0.355690
v 0.038124 -0.043997 0.355690
v 0.055858 -0.016401 0.355690
v 0.055858 0.016402 0.355690
v 0.038124 0.043997 0.355690
v 0.008285 0.057624 0.355690
v -0.024184 0.052956 0.355690
v -0.048975 0.031474 0.355690
vn -0.0000 -0.0000 -1.0000
vn -0.0000 -0.5406 -0.8413
vn -0.0000 -0.9096 -0.4154
vn -0.0000 -0.9898 0.1423
vn -0.0000 -0.7557 0.6549
vn -0.0000 -0.2817 0.9595
vn -0.0000 0.2817 0.9595
vn -0.0000 0.7557 0.6549
vn -0.0000 0.9898 0.1423
vn -0.0000 0.9096 -0.4154
vn -0.0000 0.5406 -0.8413
vn -1.0000 -0.0000 -0.0000
vn -0.8413 -0.5406 -0.0000
vn -0.4154 -0.9096 -0.0000
vn 0.1423 -0.9898 -0.0000
vn 0.6549 -0.7557 -0.0000
vn 0.9595 -0.2817 -0.0000
vn 0.9595 0.2817 -0.0000
vn 0.6549 0.7557 -0.0000
vn 0.1423 0.9898 -0.0000
vn -0.4154 0.9096 -0.0000
vn -0.8413 0.5406 -0.0000
vn -0.0000 -0.0000 1.0000
vn -0.1423 -0.9898 -0.0000
vn 0.4154 -0.9096 -0.0000
vn 0.3161 -0.6922 0.6488
vn -0.1083 -0.7532 0.6488
vn 0.7609 -0.0000 0.6488
vn 0.6401 0.4114 0.6488
vn 0.3161 0.6922 0.6488
vn -0.1083 0.7532 0.6488
vn -0.4983 0.5751 0.6488
vn -0.7301 0.2144 0.6488
vn -0.7301 -0.2144 0.6488
vn -0.4983 -0.5751 0.6488
vn 0.6401 -0.4114 0.6488
vn -0.9595 0.2817 -0.0000
vn -0.9595 -0.2817 -0.0000
vn 0.4154 0.9096 -0.0000
vn -0.1423 0.9898 -0.0000
vn 0.8413 -0.5406 -0.0000
vn -0.6549 -0.7557 -0.0000
vn -0.6549 0.7557 -0.0000
vn 1.0000 -0.0000 -0.0000
vn 0.8413 0.5406 -0.0000
vt 1.000000 0.500000
vt 1.000000 1.000000
vt 0.909091 1.000000
vt 0.909091 0.500000
vt 0.818182 1.000000
vt 0.818182 0.500000
vt 0.727273 1.000000
vt 0.727273 0.500000
vt 0.636364 1.000000
vt 0.636364 0.500000
vt 0.545454 1.000000
vt 0.545454 0.500000
vt 0.454545 1.000000
vt 0.454545 0.500000
vt 0.363636 1.000000
vt 0.363636 0.500000
vt 0.272727 1.000000
vt 0.272727 0.500000
vt 0.181818 1.000000
vt 0.181818 0.500000
vt 0.090909 1.000000
vt 0.090909 0.500000
vt -0.000000 1.000000
vt -0.000000 0.500000
vt 0.750000 0.490000
vt 0.879754 0.451901
vt 0.968312 0.349700
vt 0.987557 0.215844
vt 0.931380 0.092833
vt 0.817616 0.019722
vt 0.682384 0.019722
vt 0.568620 0.092833
vt 0.512443 0.215844
vt 0.531688 0.349700
vt 0.620246 0.451901
s 1
f 1/1/1 2/2/1 4/3/2 3/4/2
f 3/4/2 4/3/2 6/5/3 5/6/3
f 5/6/3 6/5/3 8/7/4 7/8/4
f 7/8/4 8/7/4 10/9/5 9/10/5
f 9/10/5 10/9/5 12/11/6 11/12/6
f 11/12/6 12/11/6 14/13/7 13/14/7
f 13/14/7 14/13/7 16/15/8 15/16/8
f 15/16/8 16/15/8 18/17/9 17/18/9
f 17/18/9 18/17/9 20/19/10 19/20/10
f 19/20/10 20/19/10 22/21/11 21/22/11
f 21/22/11 22/21/11 2/23/1 1/24/1
f 23/1/12 24/2/12 26/3/13 25/4/13
f 25/4/13 26/3/13 28/5/14 27/6/14
f 27/6/14 28/5/14 30/7/15 29/8/15
f 29/8/15 30/7/15 32/9/16 31/10/16
f 31/10/16 32/9/16 34/11/17 33/12/17
f 33/12/17 34/11/17 36/13/18 35/14/18
f 35/14/18 36/13/18 38/15/19 37/16/19
f 37/16/19 38/15/19 40/17/20 39/18/20
f 39/18/20 40/17/20 42/19/21 41/20/21
f 41/20/21 42/19/21 44/21/22 43/22/22
f 43/22/22 44/21/22 24/23/12 23/24/12
f 27/6/23 29/8/23 48/8/23 47/6/23
f 53/18/24 54/20/25 65/20/26 64/18/27
f 43/22/23 23/24/23 45/24/23 55/22/23
f 25/4/23 27/6/23 47/6/23 46/4/23
f 41/20/23 43/22/23 55/22/23 54/20/23
f 39/18/23 41/20/23 54/20/23 53/18/23
f 37/16/23 39/18/23 53/18/23 52/16/23
f 35/14/23 37/16/23 52/16/23 51/14/23
f 33/12/23 35/14/23 51/14/23 50/12/23
f 31/10/23 33/12/23 50/12/23 49/10/23
f 29/8/23 31/10/23 49/10/23 48/8/23
f 23/1/23 25/4/23 46/4/23 45/1/23
f 56/25/28 57/26/29 58/27/30 59/28/31 60/29/32 61/30/33 62/31/34 63/32/35 64/33/27 65/34/26 66/35/36
f 50/12/37 51/14/38 62/14/34 61/12/33
f 47/6/39 48/8/40 59/8/31 58/6/30
f 54/20/25 55/22/41 66/22/36 65/20/26
f 51/14/38 52/16/42 63/16/35 62/14/34
f 48/8/40 49/10/43 60/10/32 59/8/31
f 55/22/41 45/24/44 56/24/28 66/22/36
f 45/1/44 46/4/45 57/4/29 56/1/28
f 52/16/42 53/18/24 64/18/27 63/16/35
f 49/10/43 50/12/37 61/12/33 60/10/32
f 46/4/45 47/6/39 58/6/30 57/4/29
