# Blender 5.2.1 LTS
# www.blender.org
mtllib turret_base.mtl
o Base
v -0.500000 0.000000 0.500000
v -0.500000 0.150000 0.500000
v -0.500000 0.000000 -0.500000
v -0.500000 0.150000 -0.500000
v 0.500000 0.000000 0.500000
v 0.500000 0.150000 0.500000
v 0.500000 0.000000 -0.500000
v 0.500000 0.150000 -0.500000
v -0.500000 0.000000 -0.225000
v -0.400000 0.000000 -0.100000
v -0.400000 0.000000 0.100000
v -0.500000 0.000000 0.225000
v -0.500000 0.150000 0.225000
v -0.400000 0.150000 0.100000
v -0.400000 0.150000 -0.100000
v -0.500000 0.150000 -0.225000
v 0.500000 0.000000 0.225000
v 0.400000 0.000000 0.100000
v 0.400000 0.000000 -0.100000
v 0.500000 0.000000 -0.225000
v 0.500000 0.150000 -0.225000
v 0.400000 0.150000 -0.100000
v 0.400000 0.150000 0.100000
v 0.500000 0.150000 0.225000
v 0.225000 0.000000 -0.500000
v 0.100000 0.000000 -0.400000
v -0.100000 0.000000 -0.400000
v -0.225000 0.000000 -0.500000
v -0.225000 0.150000 -0.500000
v -0.100000 0.150000 -0.400000
v 0.100000 0.150000 -0.400000
v 0.225000 0.150000 -0.500000
v -0.225000 0.000000 0.500000
v -0.100000 0.000000 0.400000
v 0.100000 0.000000 0.400000
v 0.225000 0.000000 0.500000
v 0.225000 0.150000 0.500000
v 0.100000 0.150000 0.400000
v -0.100000 0.150000 0.400000
v -0.225000 0.150000 0.500000
v -0.450000 0.200000 -0.202500
v -0.450000 0.200000 -0.450000
v 0.202500 0.200000 -0.450000
v 0.450000 0.200000 -0.450000
v 0.450000 0.200000 0.202500
v 0.450000 0.200000 0.450000
v -0.202500 0.200000 0.450000
v -0.450000 0.200000 0.450000
v -0.450000 0.200000 0.202500
v -0.360000 0.200000 0.090000
v -0.360000 0.200000 -0.090000
v 0.450000 0.200000 -0.202500
v 0.360000 0.200000 -0.090000
v 0.360000 0.200000 0.090000
v 0.202500 0.200000 -0.202500
v 0.202500 0.200000 -0.090000
v 0.202500 0.200000 0.090000
v 0.202500 0.200000 0.202500
v -0.202500 0.200000 -0.450000
v -0.090000 0.200000 -0.360000
v 0.090000 0.200000 -0.360000
v 0.202500 0.200000 0.450000
v 0.090000 0.200000 0.360000
v -0.090000 0.200000 0.360000
v -0.202500 0.200000 -0.202500
v -0.090000 0.200000 -0.202500
v 0.090000 0.200000 -0.202500
v -0.202500 0.200000 -0.090000
v -0.090000 0.200000 -0.090000
v 0.090000 0.200000 -0.090000
v -0.202500 0.200000 0.090000
v -0.090000 0.200000 0.090000
v 0.090000 0.200000 0.090000
v -0.202500 0.200000 0.202500
v -0.090000 0.200000 0.202500
v 0.090000 0.200000 0.202500
vn -0.9436 -0.0000 0.3310
vn -1.0000 -0.0000 -0.0000
vn -0.3310 -0.0000 -0.9436
vn -0.0000 -0.0000 -1.0000
vn 0.9436 -0.0000 -0.3310
vn 1.0000 -0.0000 -0.0000
vn 0.3310 -0.0000 0.9436
vn -0.0000 -0.0000 1.0000
vn 0.9436 -0.0000 0.3310
vn -0.9436 -0.0000 -0.3310
vn -0.3489 0.5419 -0.7646
vn 0.3489 0.5419 -0.7646
vn 0.2194 0.5824 -0.7828
vn -0.2194 0.5824 -0.7828
vn -0.7350 0.6531 -0.1821
vn -0.7071 0.7071 -0.0000
vn -0.7343 0.5647 -0.3769
vn -0.3489 0.5419 0.7646
vn -0.1821 0.6531 0.7350
vn -0.3769 0.5647 0.7343
vn -0.2194 0.5824 0.7828
vn 0.7071 0.7071 -0.0000
vn 0.7350 0.6531 -0.1821
vn 0.7343 0.5647 -0.3769
vn 0.1821 0.6531 -0.7350
vn 0.3769 0.5647 -0.7343
vn -0.0000 0.7071 0.7071
vn -0.0000 0.7071 -0.7071
vn -0.1821 0.6531 -0.7350
vn -0.3769 0.5647 -0.7343
vn 0.7646 0.5419 -0.3489
vn 0.7828 0.5824 -0.2194
vn -0.7350 0.6531 0.1821
vn -0.7646 0.5419 0.3489
vn -0.7828 0.5824 0.2194
vn -0.7343 0.5647 0.3769
vn 0.7646 0.5419 0.3489
vn 0.7828 0.5824 0.2194
vn 0.1821 0.6531 0.7350
vn 0.3769 0.5647 0.7343
vn -0.7646 0.5419 -0.3489
vn -0.7828 0.5824 -0.2194
vn 0.3489 0.5419 0.7646
vn 0.2194 0.5824 0.7828
vn 0.7350 0.6531 0.1821
vn 0.7343 0.5647 0.3769
vn -0.3310 -0.0000 0.9436
vn 0.3310 -0.0000 -0.9436
vn -0.0000 1.0000 -0.0000
vt 0.375000 0.200000
vt 0.625000 0.200000
vt 0.625000 0.250000
vt 0.375000 0.250000
vt 0.375000 0.450000
vt 0.625000 0.450000
vt 0.625000 0.500000
vt 0.375000 0.500000
vt 0.375000 0.700000
vt 0.625000 0.700000
vt 0.625000 0.750000
vt 0.375000 0.750000
vt 0.375000 0.950000
vt 0.625000 0.950000
vt 0.625000 1.000000
vt 0.375000 1.000000
vt 0.625000 0.550000
vt 0.375000 0.550000
vt 0.625000 0.600000
vt 0.375000 0.600000
vt 0.625000 0.650000
vt 0.375000 0.650000
vt 0.375000 0.000000
vt 0.625000 0.000000
vt 0.625000 0.050000
vt 0.375000 0.050000
vt 0.625000 0.100000
vt 0.375000 0.100000
vt 0.625000 0.150000
vt 0.375000 0.150000
vt 0.625000 0.400000
vt 0.625000 0.350000
vt 0.625000 0.850000
vt 0.625000 0.800000
vt 0.625000 0.300000
vt 0.625000 0.900000
vt 0.375000 0.800000
vt 0.375000 0.850000
vt 0.375000 0.900000
vt 0.375000 0.300000
vt 0.375000 0.350000
vt 0.375000 0.400000
vt 0.825000 0.700000
vt 0.875000 0.700000
vt 0.875000 0.750000
vt 0.825000 0.750000
vt 0.825000 0.500000
vt 0.875000 0.500000
vt 0.875000 0.550000
vt 0.825000 0.550000
vt 0.875000 0.600000
vt 0.825000 0.600000
vt 0.875000 0.650000
vt 0.825000 0.650000
vt 0.675000 0.650000
vt 0.675000 0.700000
vt 0.725000 0.650000
vt 0.725000 0.700000
vt 0.775000 0.650000
vt 0.775000 0.700000
vt 0.675000 0.600000
vt 0.725000 0.600000
vt 0.775000 0.600000
vt 0.675000 0.550000
vt 0.725000 0.550000
vt 0.775000 0.550000
vt 0.675000 0.500000
vt 0.725000 0.500000
vt 0.775000 0.500000
vt 0.675000 0.750000
vt 0.725000 0.750000
vt 0.775000 0.750000
s 1
f 9/1/1 16/2/1 4/3/2 3/4/2
f 25/5/3 32/6/3 8/7/4 7/8/4
f 17/9/5 24/10/5 6/11/6 5/12/6
f 33/13/7 40/14/7 2/15/8 1/16/8
f 7/8/6 8/7/6 21/17/9 20/18/9
f 20/18/9 21/17/9 22/19/9 19/20/9
f 19/20/9 22/19/9 23/21/5 18/22/5
f 18/22/5 23/21/5 24/10/5 17/9/5
f 1/23/2 2/24/2 13/25/10 12/26/10
f 12/26/10 13/25/10 14/27/10 11/28/10
f 11/28/10 14/27/10 15/29/1 10/30/1
f 10/30/1 15/29/1 16/2/1 9/1/1
f 31/31/11 30/32/12 60/32/13 61/31/14
f 13/25/15 2/24/16 48/24/16 49/25/17
f 38/33/18 37/34/19 62/34/20 63/33/21
f 6/11/22 24/10/23 45/10/24 46/11/22
f 30/32/12 29/35/25 59/35/26 60/32/13
f 37/34/19 6/11/27 46/11/27 62/34/20
f 29/35/25 4/3/28 42/3/28 59/35/26
f 8/7/28 32/6/29 43/6/30 44/7/28
f 24/10/23 23/21/31 54/21/32 45/10/24
f 16/2/33 15/29/34 51/29/35 41/2/36
f 23/21/31 22/19/37 53/19/38 54/21/32
f 2/15/27 40/14/39 47/14/40 48/15/27
f 15/29/34 14/27/41 50/27/42 51/29/35
f 40/14/39 39/36/43 64/36/44 47/14/40
f 22/19/37 21/17/45 52/17/46 53/19/38
f 32/6/29 31/31/11 61/31/14 43/6/30
f 14/27/41 13/25/15 49/25/17 50/27/42
f 39/36/43 38/33/18 63/33/21 64/36/44
f 4/3/16 16/2/33 41/2/36 42/3/16
f 21/17/45 8/7/22 44/7/22 52/17/46
f 5/12/8 6/11/8 37/34/47 36/37/47
f 36/37/47 37/34/47 38/33/47 35/38/47
f 35/38/47 38/33/47 39/36/7 34/39/7
f 34/39/7 39/36/7 40/14/7 33/13/7
f 3/4/4 4/3/4 29/35/48 28/40/48
f 28/40/48 29/35/48 30/32/48 27/41/48
f 27/41/48 30/32/48 31/31/3 26/42/3
f 26/42/3 31/31/3 32/6/3 25/5/3
f 74/43/49 49/44/49 48/45/49 47/46/49
f 59/47/49 42/48/49 41/49/49 65/50/49
f 65/50/49 41/49/49 51/51/49 68/52/49
f 68/52/49 51/51/49 50/53/49 71/54/49
f 71/54/49 50/53/49 49/44/49 74/43/49
f 54/21/49 57/55/49 58/56/49 45/10/49
f 57/55/49 73/57/49 76/58/49 58/56/49
f 73/57/49 72/59/49 75/60/49 76/58/49
f 72/59/49 71/54/49 74/43/49 75/60/49
f 53/19/49 56/61/49 57/55/49 54/21/49
f 56/61/49 70/62/49 73/57/49 57/55/49
f 70/62/49 69/63/49 72/59/49 73/57/49
f 69/63/49 68/52/49 71/54/49 72/59/49
f 52/17/49 55/64/49 56/61/49 53/19/49
f 55/64/49 67/65/49 70/62/49 56/61/49
f 67/65/49 66/66/49 69/63/49 70/62/49
f 66/66/49 65/50/49 68/52/49 69/63/49
f 44/7/49 43/67/49 55/64/49 52/17/49
f 43/67/49 61/68/49 67/65/49 55/64/49
f 61/68/49 60/69/49 66/66/49 67/65/49
f 60/69/49 59/47/49 65/50/49 66/66/49
f 45/10/49 58/56/49 62/70/49 46/11/49
f 58/56/49 76/58/49 63/71/49 62/70/49
f 76/58/49 75/60/49 64/72/49 63/71/49
f 75/60/49 74/43/49 47/46/49 64/72/49
