# Blender 5.2.1 LTS
# www.blender.org
mtllib turret_head.mtl
o Head
v -0.300000 0.000000 0.300000
v -0.300000 -0.000000 -0.300000
v -0.300000 0.400000 -0.300000
v 0.300000 0.000000 0.300000
v 0.300000 -0.000000 -0.300000
v 0.300000 0.400000 -0.300000
v -0.300000 0.120000 0.300000
v -0.300000 0.400000 0.020000
v 0.300000 0.400000 0.020000
v 0.300000 0.120000 0.300000
v 0.100000 -0.000000 -0.300000
v -0.100000 -0.000000 -0.300000
v -0.100000 0.400000 -0.300000
v 0.100000 0.400000 -0.300000
v -0.100000 0.000000 0.300000
v 0.100000 0.000000 0.300000
v 0.100000 0.400000 0.020000
v -0.100000 0.400000 0.020000
v -0.100000 0.120000 0.300000
v 0.100000 0.120000 0.300000
v -0.300000 0.400000 -0.090000
v 0.300000 0.400000 -0.090000
v 0.100000 0.400000 -0.090000
v -0.100000 0.400000 -0.090000
v 0.100000 0.120000 0.020000
v -0.100000 0.120000 0.020000
v 0.100000 0.120000 -0.090000
v -0.100000 0.120000 -0.090000
v -0.331473 0.029350 -0.260535
v -0.331473 0.029350 0.269821
v -0.331473 0.382921 -0.260535
v 0.331473 0.382921 -0.260535
v 0.331473 0.029350 -0.260535
v 0.331473 0.029350 0.269821
v 0.331473 0.382921 0.010714
v -0.331473 0.123814 0.269821
v 0.331473 0.123814 0.269821
v -0.331473 0.382921 -0.074911
v 0.331473 0.382921 -0.074911
v -0.331473 0.382921 0.010714
v -0.300000 0.370483 0.155777
v -0.300000 0.261614 0.269214
v -0.100000 0.370431 0.156018
v -0.100000 0.261631 0.269211
v 0.300000 0.261614 0.269214
v 0.300000 0.370483 0.155777
v 0.100000 0.261631 0.269211
v 0.100000 0.370431 0.156018
v 0.331473 0.358276 0.130552
v 0.331473 0.250017 0.243868
v -0.331473 0.250017 0.243868
v -0.331473 0.358276 0.130552
vn -0.0000 -0.0000 -1.0000
vn -0.0000 -1.0000 -0.0000
vn -0.0000 -0.0000 1.0000
vn -0.0000 0.0712 0.9975
vn -0.0000 0.1068 0.9943
vn 0.7818 -0.0000 -0.6235
vn -0.0000 1.0000 -0.0000
vn -0.0000 0.9943 0.1068
vn 0.6818 0.0694 0.7283
vn 0.6921 -0.0000 0.7218
vn 0.6789 0.0851 0.7292
vn 1.0000 -0.0000 -0.0000
vn -1.0000 -0.0000 -0.0000
vn -0.4889 0.8663 0.1024
vn -0.4770 0.8789 -0.0000
vn -0.4866 0.8700 0.0791
vn -0.6921 -0.0000 0.7218
vn -0.6818 0.0694 0.7283
vn -0.6789 0.0851 0.7292
vn 0.6820 -0.7313 -0.0000
vn 0.4770 0.8789 -0.0000
vn 0.4889 0.8663 0.1024
vn 0.4866 0.8700 0.0791
vn -0.6820 -0.7313 -0.0000
vn -0.7818 -0.0000 -0.6235
vn -0.0002 0.4880 0.8728
vn -0.0002 0.8824 0.4705
vn -0.0002 0.8826 0.4701
vn 0.0002 0.8826 0.4701
vn 0.0002 0.8824 0.4705
vn 0.0002 0.4880 0.8728
vn -0.6025 0.6808 0.4165
vn -0.5656 0.7579 0.3251
vn -0.6678 0.3705 0.6455
vn -0.6687 0.3570 0.6523
vn 0.6687 0.3570 0.6523
vn 0.6678 0.3705 0.6455
vn 0.5656 0.7579 0.3251
vn 0.6025 0.6808 0.4165
vt 0.375000 0.416667
vt 0.625000 0.416667
vt 0.625000 0.500000
vt 0.375000 0.500000
vt 0.291667 0.500000
vt 0.375000 0.750000
vt 0.291667 0.750000
vt 0.375000 0.916667
vt 0.512500 0.916667
vt 0.512500 1.000000
vt 0.375000 1.000000
vt 0.791667 0.591667
vt 0.875000 0.587500
vt 0.875000 0.675000
vt 0.791667 0.683333
vt 0.512500 0.750000
vt 0.625000 0.600000
vt 0.708333 0.595833
vt 0.708333 0.691667
vt 0.625000 0.700000
vt 0.512500 0.833333
vt 0.375000 0.833333
vt 0.125000 0.500000
vt 0.208333 0.500000
vt 0.208333 0.750000
vt 0.125000 0.750000
vt 0.375000 0.250000
vt 0.625000 0.250000
vt 0.625000 0.333333
vt 0.375000 0.333333
vt 0.708333 0.500000
vt 0.791667 0.500000
vt 0.875000 0.500000
vt 0.547134 1.000000
vt 0.547138 0.911535
vt 0.591735 0.904928
vt 0.591794 1.000000
vt 0.591794 0.714758
vt 0.591735 0.809857
vt 0.547138 0.823070
vt 0.547134 0.734607
vt 0.593634 1.000000
vt 0.545532 1.000000
vt 0.545532 0.735319
vt 0.593634 0.713940
vt 0.625000 0.900000
vt 0.625000 1.000000
vt 0.709119 0.752328
vt 0.598453 0.844825
vt 0.625000 0.800000
vt 0.572796 0.789715
vt 0.650427 0.733557
vt 0.375000 0.000000
vt 0.512500 0.000000
vt 0.545532 0.022021
vt 0.593634 0.054089
vt 0.625000 0.075000
vt 0.625000 0.162500
s 1
f 11/1/1 14/2/1 6/3/1 5/4/1
f 11/5/2 5/4/2 4/6/2 16/7/2
f 15/8/3 19/9/4 7/10/5 1/11/3
f 5/4/6 6/3/6 32/3/6 33/4/6
f 24/12/7 21/13/7 8/14/8 18/15/8
f 10/16/9 4/6/10 34/6/10 37/16/11
f 22/17/7 23/18/7 17/19/8 9/20/8
f 4/6/3 10/16/5 20/21/4 16/22/3
f 16/22/3 20/21/4 19/9/4 15/8/3
f 2/23/2 12/24/2 15/25/2 1/26/2
f 12/24/2 11/5/2 16/7/2 15/25/2
f 2/27/1 3/28/1 13/29/1 12/30/1
f 12/30/1 13/29/1 14/2/1 11/1/1
f 14/31/7 13/32/7 24/12/7 23/18/7
f 6/3/7 14/31/7 23/18/7 22/17/7
f 13/32/7 3/33/7 21/13/7 24/12/7
f 23/18/3 24/12/3 28/12/3 27/18/3
f 24/12/12 18/15/12 26/15/12 28/12/12
f 17/19/13 23/18/13 27/18/13 25/19/13
f 25/19/7 27/18/7 28/12/7 26/15/7
f 19/9/7 20/21/7 25/19/7 26/15/7
f 8/14/14 21/13/15 38/13/15 40/14/16
f 1/11/17 7/10/18 36/10/19 30/11/17
f 4/6/20 5/4/20 33/4/20 34/6/20
f 22/17/21 9/20/22 35/20/23 39/17/21
f 21/13/15 3/33/15 31/33/15 38/13/15
f 6/3/21 22/17/21 39/17/21 32/3/21
f 2/23/24 1/26/24 30/26/24 29/23/24
f 3/28/25 2/27/25 29/27/25 31/28/25
f 42/34/26 44/35/26 43/36/27 41/37/28
f 46/38/29 48/39/30 47/40/31 45/41/31
f 41/37/32 52/42/33 51/43/34 42/34/35
f 45/41/36 50/44/37 49/45/38 46/38/39
f 18/46/8 8/47/8 41/37/28 43/36/27
f 44/35/26 42/34/26 7/10/5 19/9/4
f 41/37/32 8/47/14 40/47/16 52/42/33
f 7/10/18 42/34/35 51/43/34 36/10/19
f 19/9/12 26/15/12 18/15/12 43/48/12 44/49/12
f 45/41/36 10/16/9 37/16/11 50/44/37
f 45/41/31 47/40/31 20/21/4 10/16/5
f 9/20/8 17/50/8 48/39/30 46/38/29
f 9/20/22 46/38/39 49/45/38 35/20/23
f 17/19/13 25/19/13 20/21/13 47/51/13 48/52/13
f 33/4/12 32/3/12 39/17/12 35/20/12 49/45/12 50/44/12 37/16/12 34/6/12
f 30/53/13 36/54/13 51/55/13 52/56/13 40/57/13 38/58/13 31/28/13 29/27/13
