# Blender 5.2.1 LTS
# www.blender.org
mtllib mortar3b_barrel.mtl
o Cylinder
v -0.013554 0.050583 0.568211
v -0.035961 0.134210 0.473161
v 0.013554 0.050583 0.568211
v 0.035961 0.134210 0.473161
v 0.037029 0.037029 0.568211
v 0.098248 0.098248 0.473161
v 0.050583 0.013554 0.568211
v 0.134210 0.035961 0.473161
v 0.050583 -0.013554 0.568211
v 0.134210 -0.035961 0.473161
v 0.037029 -0.037029 0.568211
v 0.098248 -0.098248 0.473161
v 0.013554 -0.050583 0.568211
v 0.035961 -0.134210 0.473161
v -0.013554 -0.050583 0.568211
v -0.035961 -0.134210 0.473161
v -0.037029 -0.037029 0.568211
v -0.098248 -0.098248 0.473161
v -0.050583 -0.013554 0.568211
v -0.134210 -0.035961 0.473161
v -0.050583 0.013554 0.568211
v -0.134210 0.035961 0.473161
v -0.037029 0.037029 0.568211
v -0.098248 0.098248 0.473161
v -0.051355 0.191660 0.473161
v 0.051355 0.191660 0.473161
v 0.140304 0.140304 0.473161
v 0.191660 0.051355 0.473161
v 0.191660 -0.051355 0.473161
v 0.140304 -0.140304 0.473161
v 0.051355 -0.191660 0.473161
v -0.051355 -0.191660 0.473161
v -0.140304 -0.140304 0.473161
v -0.191660 -0.051355 0.473161
v -0.191660 0.051355 0.473161
v -0.140304 0.140304 0.473161
v -0.051355 0.191660 -0.256479
v 0.051355 0.191660 -0.256479
v 0.140304 0.140304 -0.256479
v 0.191660 0.051355 -0.256479
v 0.191660 -0.051355 -0.256479
v 0.140304 -0.140304 -0.256479
v 0.051355 -0.191660 -0.256479
v -0.051355 -0.191660 -0.256479
v -0.140304 -0.140304 -0.256479
v -0.191660 -0.051355 -0.256479
v -0.191660 0.051355 -0.256479
v -0.140304 0.140304 -0.256479
v -0.051355 0.246513 0.398667
v 0.051355 0.246513 0.398667
v -0.051355 0.347631 -0.256479
v 0.051355 0.347631 -0.256479
vn 0.1913 0.7141 0.6734
vn -0.1913 0.7141 0.6734
vn -0.1184 0.4417 0.8893
vn 0.1184 0.4417 0.8893
vn 0.5228 0.5228 0.6734
vn 0.3234 0.3234 0.8893
vn 0.7141 0.1913 0.6734
vn 0.4417 0.1184 0.8893
vn 0.7141 -0.1913 0.6734
vn 0.4417 -0.1184 0.8893
vn 0.5228 -0.5228 0.6734
vn 0.3234 -0.3234 0.8893
vn 0.1913 -0.7141 0.6734
vn 0.1184 -0.4417 0.8893
vn -0.1913 -0.7141 0.6734
vn -0.1184 -0.4417 0.8893
vn -0.5228 -0.5228 0.6734
vn -0.3234 -0.3234 0.8893
vn -0.7141 -0.1913 0.6734
vn -0.4417 -0.1184 0.8893
vn -0.7141 0.1913 0.6734
vn -0.4417 0.1184 0.8893
vn -0.5228 0.5228 0.6734
vn -0.3234 0.3234 0.8893
vn -0.0000 -0.0000 1.0000
vn 0.9659 0.2588 -0.0000
vn 0.9659 -0.2588 -0.0000
vn -0.9659 0.2588 -0.0000
vn -0.7071 0.7071 -0.0000
vn 1.0000 -0.0000 -0.0000
vn -0.2588 -0.9659 -0.0000
vn -0.7071 -0.7071 -0.0000
vn 0.7071 -0.7071 -0.0000
vn -0.5000 0.8660 -0.0000
vn 0.5000 0.8660 -0.0000
vn 0.7071 0.7071 -0.0000
vn -0.9659 -0.2588 -0.0000
vn 0.2588 -0.9659 -0.0000
vn -0.0000 -0.0000 -1.0000
vn -0.0000 0.9234 0.3838
vn -0.0000 0.9883 0.1525
vn -0.0000 0.8053 0.5929
vn -1.0000 -0.0000 -0.0000
vt 0.368351 0.454990
vt 0.250000 0.486702
vt 0.250000 0.321898
vt 0.285949 0.312265
vt 0.454990 0.368351
vt 0.312265 0.285949
vt 0.486702 0.250000
vt 0.321898 0.250000
vt 0.454990 0.131649
vt 0.312265 0.214051
vt 0.368351 0.045010
vt 0.285949 0.187735
vt 0.250000 0.013298
vt 0.250000 0.178102
vt 0.131649 0.045010
vt 0.214051 0.187735
vt 0.045010 0.131649
vt 0.187735 0.214051
vt 0.013298 0.250000
vt 0.178102 0.250000
vt 0.045010 0.368351
vt 0.187735 0.285949
vt 0.131649 0.454990
vt 0.214051 0.312265
vt 0.368351 0.454990
vt 0.250000 0.486702
s 1
f 4/1/1 2/2/2 1/3/3 3/4/4
f 6/5/5 4/1/1 3/4/4 5/6/6
f 8/7/7 6/5/5 5/6/6 7/8/8
f 10/9/9 8/7/7 7/8/8 9/10/10
f 12/11/11 10/9/9 9/10/10 11/12/12
f 14/13/13 12/11/11 11/12/12 13/14/14
f 16/15/15 14/13/13 13/14/14 15/16/16
f 18/17/17 16/15/15 15/16/16 17/18/18
f 20/19/19 18/17/17 17/18/18 19/20/20
f 22/21/21 20/19/19 19/20/20 21/22/22
f 24/23/23 22/21/21 21/22/22 23/24/24
f 2/2/2 24/23/23 23/24/24 1/3/3
f 3/4/4 1/3/3 23/24/24 21/22/22 19/20/20 17/18/18 15/16/16 13/14/14 11/12/12 9/10/10 7/8/8 5/6/6
f 16/15/25 18/17/25 33/17/25 32/15/25
f 14/13/25 16/15/25 32/15/25 31/13/25
f 12/11/25 14/13/25 31/13/25 30/11/25
f 10/9/25 12/11/25 30/11/25 29/9/25
f 8/7/25 10/9/25 29/9/25 28/7/25
f 24/23/25 2/2/25 25/2/25 36/23/25
f 2/2/25 4/1/25 26/1/25 25/2/25
f 6/5/25 8/7/25 28/7/25 27/5/25
f 22/21/25 24/23/25 36/23/25 35/21/25
f 4/1/25 6/5/25 27/5/25 26/1/25
f 20/19/25 22/21/25 35/21/25 34/19/25
f 18/17/25 20/19/25 34/19/25 33/17/25
f 28/7/26 29/9/27 41/9/27 40/7/26
f 35/21/28 36/23/29 48/23/29 47/21/28
f 26/1/30 38/1/30 52/1/30 50/25/30
f 32/15/31 33/17/32 45/17/32 44/15/31
f 29/9/27 30/11/33 42/11/33 41/9/27
f 36/23/29 25/2/34 37/2/34 48/23/29
f 26/1/35 27/5/36 39/5/36 38/1/35
f 33/17/32 34/19/37 46/19/37 45/17/32
f 30/11/33 31/13/38 43/13/38 42/11/33
f 27/5/36 28/7/26 40/7/26 39/5/36
f 34/19/37 35/21/28 47/21/28 46/19/37
f 31/13/38 32/15/31 44/15/31 43/13/38
f 37/2/39 38/1/39 39/5/39 40/7/39 41/9/39 42/11/39 43/13/39 44/15/39 45/17/39 46/19/39 47/21/39 48/23/39
f 49/26/40 50/25/40 52/1/41 51/2/41
f 38/1/39 37/2/39 51/2/39 52/1/39
f 25/2/42 26/1/42 50/25/40 49/26/40
f 37/2/43 25/2/43 49/26/43 51/2/43
