# Blender 5.2.1 LTS
# www.blender.org
mtllib mortar3b_rocket.mtl
o Cylinder
v -0.045243 0.168849 -0.391123
v -0.090977 0.090977 -0.391123
v 0.045243 0.168849 -0.391123
v -0.124277 0.033300 -0.391123
v 0.123606 0.123606 -0.391123
v -0.124277 -0.033300 -0.391123
v 0.168849 0.045243 -0.391123
v -0.090977 -0.090977 -0.391123
v 0.168849 -0.045243 -0.391123
v -0.033300 -0.124277 -0.391123
v 0.123606 -0.123606 -0.391123
v 0.033300 -0.124277 -0.391123
v 0.045243 -0.168849 -0.391123
v 0.090977 -0.090977 -0.391123
v -0.045243 -0.168849 -0.391123
v 0.124277 -0.033300 -0.391123
v -0.123606 -0.123606 -0.391123
v 0.124277 0.033300 -0.391123
v -0.168849 -0.045243 -0.391123
v 0.090977 0.090977 -0.391123
v -0.168849 0.045243 -0.391123
v 0.033300 0.124277 -0.391123
v -0.123606 0.123606 -0.391123
v -0.033300 0.124277 -0.391123
v -0.013554 0.050583 0.568211
v -0.045243 0.168849 0.243687
v -0.035961 0.134210 0.473161
v 0.013554 0.050583 0.568211
v 0.045243 0.168849 0.243687
v 0.035961 0.134210 0.473161
v 0.037029 0.037029 0.568211
v 0.123606 0.123606 0.243687
v 0.098248 0.098248 0.473161
v 0.050583 0.013554 0.568211
v 0.168849 0.045243 0.243688
v 0.134210 0.035961 0.473161
v 0.050583 -0.013554 0.568211
v 0.168849 -0.045243 0.243688
v 0.134210 -0.035961 0.473161
v 0.037029 -0.037029 0.568211
v 0.123606 -0.123606 0.243688
v 0.098248 -0.098248 0.473161
v 0.013554 -0.050583 0.568211
v 0.045243 -0.168849 0.243688
v 0.035961 -0.134210 0.473161
v -0.013554 -0.050583 0.568211
v -0.045243 -0.168849 0.243688
v -0.035961 -0.134210 0.473161
v -0.037029 -0.037029 0.568211
v -0.123606 -0.123606 0.243688
v -0.098248 -0.098248 0.473161
v -0.050583 -0.013554 0.568211
v -0.168849 -0.045243 0.243688
v -0.134210 -0.035961 0.473161
v -0.050583 0.013554 0.568211
v -0.168849 0.045243 0.243688
v -0.134210 0.035961 0.473161
v -0.037029 0.037029 0.568211
v -0.123606 0.123606 0.243687
v -0.098248 0.098248 0.473161
v -0.104766 0.104766 -0.563409
v -0.038347 0.143113 -0.563409
v -0.143113 0.038347 -0.563409
v -0.143113 -0.038347 -0.563409
v -0.104766 -0.104766 -0.563409
v -0.038347 -0.143113 -0.563409
v 0.038347 -0.143113 -0.563409
v 0.104766 -0.104766 -0.563409
v 0.143113 -0.038347 -0.563409
v 0.143113 0.038347 -0.563409
v 0.104766 0.104766 -0.563409
v 0.038347 0.143113 -0.563409
v -0.018309 0.227766 -0.391123
v 0.018309 0.227766 -0.391123
v 0.227766 0.018309 -0.391123
v 0.227766 -0.018309 -0.391123
v 0.018309 -0.227766 -0.391123
v -0.018309 -0.227766 -0.391123
v -0.227766 -0.018309 -0.391123
v -0.227766 0.018309 -0.391123
v 0.018309 0.227766 -0.076456
v -0.018309 0.227766 -0.076456
v 0.227766 -0.018309 -0.076456
v 0.227766 0.018309 -0.076456
v -0.018309 -0.227766 -0.076456
v 0.018309 -0.227766 -0.076456
v -0.227766 0.018309 -0.076456
v -0.227766 -0.018309 -0.076456
vn -0.0000 -0.0000 -1.0000
vn -0.2572 0.9598 0.1125
vn 0.2572 0.9598 0.1125
vn 0.2557 0.9543 0.1544
vn -0.2557 0.9543 0.1544
vn -0.2355 0.8790 0.4147
vn 0.2355 0.8790 0.4147
vn -0.1184 0.4417 0.8893
vn 0.1184 0.4417 0.8893
vn 0.6986 0.6986 0.1544
vn 0.6434 0.6434 0.4147
vn 0.3234 0.3234 0.8893
vn 0.9543 0.2557 0.1544
vn 0.8790 0.2355 0.4147
vn 0.4417 0.1184 0.8893
vn 0.9543 -0.2557 0.1544
vn 0.8790 -0.2355 0.4147
vn 0.4417 -0.1184 0.8893
vn 0.6986 -0.6986 0.1544
vn 0.6434 -0.6434 0.4147
vn 0.3234 -0.3234 0.8893
vn 0.2557 -0.9543 0.1544
vn 0.2355 -0.8790 0.4147
vn 0.1184 -0.4417 0.8893
vn -0.2557 -0.9543 0.1544
vn -0.2355 -0.8790 0.4147
vn -0.1184 -0.4417 0.8893
vn -0.6986 -0.6986 0.1544
vn -0.6434 -0.6434 0.4147
vn -0.3234 -0.3234 0.8893
vn -0.9543 -0.2557 0.1544
vn -0.8790 -0.2355 0.4147
vn -0.4417 -0.1184 0.8893
vn -0.9543 0.2557 0.1544
vn -0.8790 0.2355 0.4147
vn -0.4417 0.1184 0.8893
vn -0.6986 0.6986 0.1544
vn -0.6434 0.6434 0.4147
vn -0.3234 0.3234 0.8893
vn -0.7071 0.7071 -0.0000
vn -0.5000 0.8660 -0.0000
vn 0.5000 0.8660 -0.0000
vn 0.7071 0.7071 -0.0000
vn 0.8660 0.5000 -0.0000
vn -0.0000 -0.9835 0.1810
vn -0.0000 -0.9956 0.0932
vn 0.8660 -0.5000 -0.0000
vn 0.7071 -0.7071 -0.0000
vn 0.5000 -0.8660 -0.0000
vn -0.4158 -0.9095 -0.0000
vn -0.5000 -0.8660 -0.0000
vn -0.7071 -0.7071 -0.0000
vn -0.8660 -0.5000 -0.0000
vn 0.9835 -0.0000 0.1810
vn 0.9956 -0.0000 0.0932
vn -0.8660 0.5000 -0.0000
vn -0.2572 -0.9598 0.1125
vn -0.7026 -0.7026 0.1125
vn 0.7026 0.7026 0.1125
vn 0.9598 0.2572 0.1125
vn -0.9598 -0.2572 0.1125
vn -0.9598 0.2572 0.1125
vn 0.9598 -0.2572 0.1125
vn 0.7026 -0.7026 0.1125
vn -0.7026 0.7026 0.1125
vn 0.2572 -0.9598 0.1125
vn -0.0000 1.0000 -0.0000
vn -0.0000 0.9956 0.0932
vn 1.0000 -0.0000 -0.0000
vn -0.0000 -1.0000 -0.0000
vn -1.0000 -0.0000 -0.0000
vn -0.9956 -0.0000 0.0932
vn -0.9835 -0.0000 0.1810
vn -0.4158 0.9095 -0.0000
vn 0.4158 0.9095 -0.0000
vn 0.4158 -0.9095 -0.0000
vn 0.9095 -0.4158 -0.0000
vn -0.9095 0.4158 -0.0000
vn -0.0000 0.9835 0.1810
vn -0.9095 -0.4158 -0.0000
vn 0.9095 0.4158 -0.0000
vt 0.833333 0.500000
vt 0.750000 0.500000
vt 1.000000 0.500000
vt 0.916667 0.500000
vt 0.666667 0.500000
vt 0.583333 0.500000
vt 0.750000 0.490000
vt 0.870000 0.457846
vt 0.957846 0.370000
vt 0.990000 0.250000
vt 0.957846 0.130000
vt 0.870000 0.042154
vt 0.750000 0.010000
vt 0.630000 0.042154
vt 0.542154 0.130000
vt 0.510000 0.250000
vt 0.542154 0.370000
vt 0.630000 0.457846
vt 0.416667 0.500000
vt 0.333333 0.500000
vt 0.250000 0.500000
vt 0.166667 0.500000
vt 0.083333 0.500000
vt 0.500000 0.500000
vt 0.000000 0.500000
vt 0.916667 0.830860
vt 1.000000 0.830860
vt 0.991452 1.000000
vt 0.916667 1.000000
vt 0.368351 0.454990
vt 0.250000 0.486702
vt 0.250000 0.321898
vt 0.285949 0.312265
vt 0.833333 0.830860
vt 0.833333 1.000000
vt 0.454990 0.368351
vt 0.312265 0.285949
vt 0.750000 0.830860
vt 0.750000 1.000000
vt 0.486702 0.250000
vt 0.321898 0.250000
vt 0.666667 0.830860
vt 0.666667 1.000000
vt 0.454990 0.131649
vt 0.312265 0.214051
vt 0.583333 0.830860
vt 0.583333 1.000000
vt 0.368351 0.045010
vt 0.285949 0.187735
vt 0.500000 0.830860
vt 0.500000 1.000000
vt 0.250000 0.013298
vt 0.250000 0.178102
vt 0.416667 0.830860
vt 0.416667 1.000000
vt 0.131649 0.045010
vt 0.214051 0.187735
vt 0.333333 0.830860
vt 0.333333 1.000000
vt 0.045010 0.131649
vt 0.187735 0.214051
vt 0.250000 0.830860
vt 0.250000 1.000000
vt 0.013298 0.250000
vt 0.178102 0.250000
vt 0.166667 0.830860
vt 0.166667 1.000000
vt 0.045010 0.368351
vt 0.187735 0.285949
vt 0.083333 0.830860
vt 0.083333 1.000000
vt 0.131649 0.454990
vt 0.214051 0.312265
vt 0.000000 0.830860
vt 0.008548 1.000000
s 1
f 5/1/1 7/2/1 18/2/1 20/1/1
f 1/3/1 3/4/1 22/4/1 24/3/1
f 7/2/1 9/5/1 16/5/1 18/2/1
f 9/5/1 11/6/1 14/6/1 16/5/1
f 24/3/2 22/4/3 72/4/3 62/3/2
f 62/7/1 72/8/1 71/9/1 70/10/1 69/11/1 68/12/1 67/13/1 66/14/1 65/15/1 64/16/1 63/17/1 61/18/1
f 15/19/1 17/20/1 8/20/1 10/19/1
f 19/21/1 21/22/1 4/22/1 6/21/1
f 3/4/1 5/1/1 20/1/1 22/4/1
f 21/22/1 23/23/1 2/23/1 4/22/1
f 13/24/1 15/19/1 10/19/1 12/24/1
f 23/23/1 1/25/1 24/25/1 2/23/1
f 17/20/1 19/21/1 6/21/1 8/20/1
f 11/6/1 13/24/1 12/24/1 14/6/1
f 29/26/4 26/27/5 27/28/6 30/29/7
f 30/30/7 27/31/6 25/32/8 28/33/9
f 32/34/10 29/26/4 30/29/7 33/35/11
f 33/36/11 30/30/7 28/33/9 31/37/12
f 35/38/13 32/34/10 33/35/11 36/39/14
f 36/40/14 33/36/11 31/37/12 34/41/15
f 38/42/16 35/38/13 36/39/14 39/43/17
f 39/44/17 36/40/14 34/41/15 37/45/18
f 41/46/19 38/42/16 39/43/17 42/47/20
f 42/48/20 39/44/17 37/45/18 40/49/21
f 44/50/22 41/46/19 42/47/20 45/51/23
f 45/52/23 42/48/20 40/49/21 43/53/24
f 47/54/25 44/50/22 45/51/23 48/55/26
f 48/56/26 45/52/23 43/53/24 46/57/27
f 50/58/28 47/54/25 48/55/26 51/59/29
f 51/60/29 48/56/26 46/57/27 49/61/30
f 53/62/31 50/58/28 51/59/29 54/63/32
f 54/64/32 51/60/29 49/61/30 52/65/33
f 56/66/34 53/62/31 54/63/32 57/67/35
f 57/68/35 54/64/32 52/65/33 55/69/36
f 59/70/37 56/66/34 57/67/35 60/71/38
f 60/72/38 57/68/35 55/69/36 58/73/39
f 26/74/5 59/70/37 60/71/38 27/75/6
f 27/31/6 60/72/38 58/73/39 25/32/8
f 28/33/9 25/32/8 58/73/39 55/69/36 52/65/33 49/61/30 46/57/27 43/53/24 40/49/21 37/45/18 34/41/15 31/37/12
f 9/5/1 7/2/1 75/2/1 76/5/1
f 23/23/40 59/70/40 26/74/41 1/25/41
f 3/4/42 29/26/42 32/34/43 5/1/43
f 5/1/43 32/34/43 35/38/44 7/2/44
f 44/50/45 47/54/45 85/54/46 86/50/46
f 9/5/47 38/42/47 41/46/48 11/6/48
f 11/6/48 41/46/48 44/50/49 13/24/49
f 19/21/50 53/62/50 88/62/50 79/21/50
f 15/19/51 47/54/51 50/58/52 17/20/52
f 17/20/52 50/58/52 53/62/53 19/21/53
f 35/38/54 38/42/54 83/42/55 84/38/55
f 21/22/56 56/66/56 59/70/40 23/23/40
f 10/19/57 8/20/58 65/20/58 66/19/57
f 20/1/59 18/2/60 70/2/60 71/1/59
f 6/21/61 4/22/62 63/22/62 64/21/61
f 16/5/63 14/6/64 68/6/64 69/5/63
f 2/23/65 24/25/2 62/25/2 61/23/65
f 12/24/66 10/19/57 66/19/57 67/24/66
f 8/20/58 6/21/61 64/21/61 65/20/58
f 4/22/62 2/23/65 61/23/65 63/22/62
f 22/4/3 20/1/59 71/1/59 72/4/3
f 18/2/60 16/5/63 69/5/63 70/2/60
f 14/6/64 12/24/66 67/24/66 68/6/64
f 73/3/67 82/27/68 81/26/68 74/4/67
f 75/2/69 84/38/55 83/42/55 76/5/69
f 77/24/70 86/50/46 85/54/46 78/19/70
f 79/21/71 88/62/72 87/66/72 80/22/71
f 53/62/73 56/66/73 87/66/72 88/62/72
f 56/66/74 21/22/74 80/22/74 87/66/74
f 7/2/75 35/38/75 84/38/75 75/2/75
f 15/19/1 13/24/1 77/24/1 78/19/1
f 38/42/76 9/5/76 76/5/76 83/42/76
f 21/22/1 19/21/1 79/21/1 80/22/1
f 13/24/77 44/50/77 86/50/77 77/24/77
f 1/25/78 26/74/78 82/74/78 73/25/78
f 3/4/1 1/3/1 73/3/1 74/4/1
f 26/27/79 29/26/79 81/26/68 82/27/68
f 47/54/80 15/19/80 78/19/80 85/54/80
f 29/26/81 3/4/81 74/4/81 81/26/81
