# Blender 5.2.1 LTS
# www.blender.org
mtllib mortar3b_head.mtl
o Cube
v -0.300000 0.000000 0.300000
v -0.296135 0.523221 0.300000
v -0.300000 -0.000000 -0.300000
v -0.300000 0.323220 -0.300000
v 0.300000 0.000000 0.300000
v 0.300000 -0.000000 -0.300000
v 0.300000 0.323220 -0.300000
v 0.296135 0.523221 0.300000
v 0.432984 0.519828 -0.365536
v 0.427406 0.719828 0.234464
v -0.427406 0.719828 0.234464
v -0.432984 0.519828 -0.365536
v 0.427406 0.523221 0.300000
v 0.432984 0.323220 -0.300000
v -0.432984 0.323220 -0.300000
v -0.427406 0.523221 0.300000
v 0.296135 0.719828 0.234464
v 0.300000 0.519828 -0.365536
v -0.300000 0.519828 -0.365536
v -0.296135 0.719828 0.234464
v -0.195009 0.174407 0.300000
v -0.194168 0.348814 0.300000
v -0.195851 0.107740 -0.300000
v -0.195851 0.215480 -0.300000
v 0.195851 0.107740 -0.300000
v 0.195851 0.215480 -0.300000
v 0.195009 0.174407 0.300000
v 0.194168 0.348814 0.300000
vn -0.9332 -0.3454 0.0993
vn -0.7964 -0.5818 0.1653
vn -0.9599 -0.2693 0.0780
vn -0.0000 -0.0000 -1.0000
vn -0.0000 -0.2540 -0.9672
vn 0.9599 -0.2693 0.0780
vn 0.7964 -0.5818 0.1653
vn 0.9332 -0.3454 0.0993
vn -0.0000 -0.0000 1.0000
vn -0.0000 0.2398 0.9708
vn -0.0000 0.3162 0.9487
vn -0.0000 -0.3162 -0.9487
vn -0.0000 -0.9487 0.3162
vn -0.0000 0.9487 -0.3162
vn 1.0000 0.0028 0.0084
vn -1.0000 0.0028 0.0084
vn 0.8029 0.5952 -0.0325
vn 0.9424 0.3339 -0.0174
vn 0.9556 0.2944 -0.0151
vn -0.8029 0.5952 -0.0325
vn -0.9556 0.2944 -0.0151
vn -0.9424 0.3339 -0.0174
vt 0.541667 0.000000
vt 0.625000 0.000000
vt 0.625000 0.250000
vt 0.541667 0.250000
vt 0.625000 0.500000
vt 0.541667 0.500000
vt 0.625000 0.750000
vt 0.541667 0.750000
vt 0.625000 1.000000
vt 0.541667 1.000000
vt 0.375000 0.750000
vt 0.458333 0.750000
vt 0.458333 1.000000
vt 0.375000 1.000000
vt 0.375000 0.500000
vt 0.458333 0.500000
vt 0.375000 0.250000
vt 0.458333 0.250000
vt 0.375000 0.000000
vt 0.458333 0.000000
s 1
f 22/1/1 2/2/2 4/3/2 24/4/3
f 24/4/4 4/3/5 7/5/5 26/6/4
f 26/6/6 7/5/7 8/7/7 28/8/8
f 28/8/9 8/7/10 2/9/10 22/10/9
f 2/9/10 20/9/11 11/9/11 16/9/11
f 7/5/5 18/5/12 9/5/12 14/5/12
f 4/3/13 2/2/13 16/2/13 15/3/13
f 18/5/14 17/7/14 10/7/14 9/5/14
f 20/9/14 19/3/14 12/3/14 11/9/14
f 19/3/12 4/3/5 15/3/12 12/3/12
f 13/7/15 14/5/15 9/5/15 10/7/15
f 15/3/16 16/2/16 11/2/16 12/3/16
f 7/5/5 4/3/5 19/3/12 18/5/12
f 2/9/10 8/7/10 17/7/11 20/9/11
f 8/7/13 7/5/13 14/5/13 13/7/13
f 20/9/14 17/7/14 18/5/14 19/3/14
f 17/7/11 8/7/10 13/7/11 10/7/11
f 5/11/9 27/12/9 21/13/9 1/14/9
f 27/12/9 28/8/9 22/10/9 21/13/9
f 6/15/17 25/16/18 27/12/19 5/11/17
f 25/16/18 26/6/6 28/8/8 27/12/19
f 3/17/4 23/18/4 25/16/4 6/15/4
f 23/18/4 24/4/4 26/6/4 25/16/4
f 1/19/20 21/20/21 23/18/22 3/17/20
f 21/20/21 22/1/1 24/4/3 23/18/22
