# Blender 5.2.0 LTS
# www.blender.org
mtllib wall.mtl
o Plane.001
v 0.268427 1.816107 -0.108032
v 0.305724 1.816107 0.060017
v -0.217013 1.849968 0.093663
v -0.274225 1.849968 -0.094833
v -0.091377 1.849968 -0.245188
v 0.092798 1.849968 -0.271127
v 0.093874 1.816107 0.295256
v -0.103138 1.816107 0.295256
v -0.242716 1.816107 0.237186
v 0.245376 1.816107 0.246891
v -0.238317 1.849968 -0.253576
v -0.367303 0.000000 0.368213
v -0.227856 2.000000 -0.244311
v -0.212978 2.000000 0.222713
v 0.226596 2.000000 0.232640
v 0.215592 2.000000 -0.226202
v -0.081453 2.000000 0.279137
v 0.082873 2.000000 0.279137
v 0.081668 2.000000 -0.260311
v -0.080248 2.000000 -0.232268
v -0.403977 0.000000 0.229523
v -0.263702 2.000000 -0.083942
v -0.201851 2.000000 0.082644
v 0.285351 2.000000 0.052736
v 0.247200 2.000000 -0.081963
v -0.081453 2.000000 0.082363
v -0.081453 2.000000 -0.081963
v 0.082873 2.000000 0.082363
v 0.082873 2.000000 -0.081963
v -0.209467 1.853486 -0.295014
v -0.107740 1.853486 -0.289207
v 0.123999 1.853486 -0.300526
v 0.230810 1.853486 -0.279697
v 0.233764 0.003518 -0.447360
v 0.219323 2.003518 -0.269074
v -0.096702 2.003518 -0.276788
v -0.198892 2.003518 -0.285125
v 0.372455 0.003518 -0.410686
v 0.112869 2.003518 -0.289711
v -0.207321 1.856967 -0.338191
v -0.090674 1.856967 -0.331532
v 0.076499 1.856967 -0.355077
v -0.227909 0.006999 -0.490833
v 0.184905 0.006999 -0.490833
v -0.338008 0.006999 -0.461719
v -0.456184 0.008050 -0.265424
v -0.468426 0.006333 -0.129515
v -0.329556 1.856302 -0.200205
v -0.292737 1.858103 -0.294518
v -0.334255 1.856302 -0.027164
v -0.296779 1.856302 0.096310
v -0.483742 0.006333 0.232170
v -0.483742 0.006333 0.039482
v -0.322132 2.006333 -0.023831
v -0.281616 2.006333 0.085292
v -0.432368 0.010488 -0.388754
v -0.261834 1.858890 -0.339116
v 0.294460 1.820771 0.239741
v 0.070287 1.820771 0.376379
v 0.282129 1.854632 -0.216230
v 0.288902 1.831824 -0.129479
v -0.069166 1.820771 0.376379
v -0.208744 1.820771 0.281994
v 0.333730 1.820771 0.101598
v 0.264782 1.858149 -0.259102
v 0.406427 0.008181 -0.390092
v 0.206446 0.004663 0.486011
v -0.194640 0.004663 0.486011
v 0.417808 0.004663 0.361063
v 0.270642 2.004663 -0.205607
v 0.271530 2.004663 -0.105369
v 0.271692 2.004663 0.219172
v -0.333331 0.004663 0.413021
v -0.047481 2.004663 0.323945
v 0.059286 2.004663 0.323945
v 0.313041 2.004663 0.092565
v 0.253295 2.008181 -0.248479
v 0.321926 1.857726 -0.216078
v 0.342196 1.823865 -0.087284
v 0.379493 1.823865 0.080764
v 0.346547 1.823865 0.216989
v 0.479167 0.007757 -0.208376
v 0.479167 0.007757 0.250270
v 0.304579 1.861243 -0.258950
v 0.463570 0.007757 -0.347067
v 0.446224 0.011275 -0.389939
v 0.457605 0.007757 0.324900
vn 0.0087 0.9952 0.0971
vn 0.0072 0.9966 0.0818
vn 0.0022 0.9966 0.0824
vn -0.0527 0.9929 -0.1070
vn -0.9949 0.0881 0.0493
vn -0.9372 0.0970 0.3351
vn -0.9731 0.1060 0.2047
vn -0.9927 0.1100 -0.0485
vn 0.9326 0.1193 0.3405
vn 0.3692 0.0949 -0.9245
vn 0.3623 0.0941 -0.9273
vn 0.5329 0.1003 -0.8402
vn 0.2686 0.0885 -0.9592
vn 0.9359 -0.0396 -0.3500
vn 0.5811 0.0197 -0.8136
vn 0.6163 0.0153 -0.7874
vn -0.2633 0.0814 -0.9613
vn -0.2712 0.0813 -0.9591
vn -0.7533 0.0895 -0.6515
vn -0.7408 0.0893 -0.6657
vn 0.0924 0.9957 0.0113
vn 0.0886 0.9940 0.0649
vn 0.0912 0.9954 0.0281
vn -0.0674 0.9963 0.0528
vn -0.0282 0.9996 0.0038
vn -0.1161 0.9931 0.0154
vn -0.1269 0.9910 0.0425
vn -0.0000 1.0000 -0.0000
vn -0.0054 0.9997 0.0236
vn 0.0369 0.9965 0.0750
vn 0.0211 0.9971 0.0732
vn 0.0471 0.9967 0.0662
vn 0.0741 0.9943 0.0762
vn 0.3043 0.1028 0.9470
vn 0.2521 0.1091 0.9615
vn 0.2541 0.1089 0.9610
vn -0.9858 0.1239 -0.1132
vn -0.3858 0.1299 0.9134
vn -0.8702 0.1875 0.4556
vn -0.4492 0.0403 -0.8925
vn -0.1536 0.0779 -0.9850
vn -0.4305 0.0430 -0.9016
vn 0.0239 0.9997 -0.0089
vn -0.0017 0.9998 0.0204
vn -0.0025 0.9995 0.0307
vn -0.0000 0.9997 -0.0262
vn -0.0000 0.9996 -0.0288
vn 0.0203 0.9998 -0.0075
vn -0.9124 0.0897 -0.3994
vn -0.8854 0.0879 -0.4564
vn -0.8746 0.0881 -0.4767
vn -0.9116 0.0898 -0.4010
vn 0.0782 0.9965 -0.0290
vn -0.6723 0.0966 0.7339
vn -0.6642 0.0965 0.7413
vn 0.9632 0.1212 -0.2400
vn 0.9720 0.0630 0.2262
vn 0.9687 0.0609 0.2405
vn -0.0348 0.9993 -0.0114
vn -0.0304 0.9995 -0.0099
vn 0.2272 0.0883 -0.9698
vn -0.0959 0.0649 -0.9933
vn 0.0021 0.9973 0.0736
vn -0.4515 0.0940 -0.8873
vn -0.4091 0.0928 -0.9078
vn -0.2914 0.0470 -0.9554
vn 0.3544 0.0932 -0.9304
vn -0.0066 0.9967 0.0812
vn -0.0730 0.9928 0.0945
vn -0.0199 0.9960 0.0873
vn -0.1514 0.9829 0.1047
vn -0.0705 0.0814 -0.9942
vn -0.0681 0.0813 -0.9944
vn 0.3821 0.0959 -0.9191
vn 0.3552 0.0954 -0.9299
vn 0.0386 0.0693 0.9968
vn 0.7133 0.0951 -0.6944
vn 0.0061 0.9975 0.0698
vn -0.9886 0.0750 -0.1305
vn -0.9957 0.0865 0.0318
vn -0.9913 0.0956 -0.0899
vn -0.9879 0.0750 -0.1357
vn -0.9884 0.0963 0.1172
vn -0.9718 0.0956 0.2154
vn -0.9623 0.0811 -0.2596
vn -0.9633 0.0806 -0.2559
vn -0.9439 0.0939 0.3165
vn -0.9747 0.1054 -0.1971
vn 0.2753 0.0790 0.9581
vn 0.5231 0.0892 0.8476
vn 0.5232 0.0892 0.8476
vn 0.1742 0.1444 0.9741
vn -0.2750 0.0795 0.9582
vn -0.1774 0.1431 0.9737
vn -0.0774 0.9906 0.1126
vn -0.0739 0.9812 0.1782
vn -0.0725 0.9769 0.2010
vn 0.9078 0.0301 0.4183
vn 0.9773 0.0957 -0.1891
vn 0.9752 0.0959 -0.1994
vn 0.9211 0.0350 0.3878
vn -0.0000 0.2742 0.9617
vn -0.1403 0.9726 0.1854
vn 0.0187 0.9970 0.0755
vn 0.6578 0.1448 0.7391
vn 0.9821 0.1122 -0.1514
vn 0.9810 0.1117 -0.1585
vn 0.6771 0.1453 0.7214
vn 0.7596 0.1036 -0.6421
vn 0.8200 0.0663 -0.5686
vn -0.4243 0.8985 0.1122
vn -0.0708 0.9975 0.0074
vn 0.0569 0.9929 -0.1043
vn -0.0000 0.9946 -0.1035
vn -0.1138 0.9928 -0.0372
vn 0.9930 0.0743 -0.0920
vn 0.9647 0.0910 -0.2472
vn 0.9624 0.0914 -0.2559
vn 0.9930 0.0743 -0.0921
vn 0.9654 0.0751 0.2496
vn 0.9920 0.0707 0.1047
vn 0.9937 0.0701 0.0874
vn 0.9254 0.0968 -0.3665
vn 0.0057 1.0000 0.0058
vn 0.5335 0.0875 0.8413
vn -0.0017 0.0705 -0.9975
vn -0.0714 0.9973 -0.0188
vt 0.333333 1.000000
vt 0.666667 1.000000
vt 0.287751 1.000000
vt 1.000000 0.000000
vt 0.666667 0.000000
vt 0.000000 0.333333
vt 0.000000 0.000000
vt 1.000000 1.000000
vt 0.287751 1.000000
vt 0.068718 1.000000
vt 0.068718 1.000000
vt 0.011031 0.945658
vt 0.000000 1.000000
vt 0.000000 0.666667
vt 0.000000 1.000000
vt 0.000000 0.893489
vt 0.000000 0.551683
vt 1.000000 0.666667
vt 1.000000 0.768351
vt 0.666667 0.666667
vt 0.666667 1.000000
vt 0.056982 1.000000
vt 0.333333 0.000000
vt 0.000000 0.666667
vt 0.333333 0.666667
vt 0.000000 1.000000
vt 0.666667 0.333333
vt 0.333333 0.333333
vt 1.000000 0.333333
vt 1.000000 0.666667
vt 1.000000 0.333333
vt 0.666667 1.000000
vt 0.056982 1.000000
vt 0.333333 1.000000
vt 0.633357 1.000000
vt 0.635894 1.000000
vt 0.000000 0.693314
vt 0.000000 0.473375
vt 0.000000 0.842965
vt 0.666667 0.000000
vt 0.333333 0.000000
vt 1.000000 0.775475
vt 1.000000 0.289372
vt 1.000000 0.297695
vt 1.000000 0.063112
vt 1.000000 0.666667
vt 1.000000 0.333333
s 1
usemtl Material
f 21/6/5 12/7/6 9/7/7 3/6/8
f 7/5/9 18/5/9 75/5/9 59/5/9
f 38/8/10 33/8/11 65/8/12 66/8/13
f 20/1/14 5/1/14 31/3/15 36/9/16
f 40/10/17 45/11/18 56/12/19 57/13/20
f 7/5/34 10/4/35 15/4/36 18/5/34
f 3/6/8 9/7/7 14/7/37 23/6/37
f 9/7/38 8/23/38 17/23/38 14/7/38
f 17/23/39 8/23/39 62/23/39 74/23/39
f 6/2/40 5/1/41 20/1/41 19/21/42
f 11/15/49 4/14/50 22/24/51 13/26/52
f 9/7/7 12/7/6 73/7/54 63/7/55
f 2/29/56 1/30/57 25/18/58 24/31/56
f 38/8/10 34/32/61 32/2/62 33/8/11
f 31/3/15 30/22/64 37/33/65 36/9/16
f 33/8/11 32/2/62 39/21/66 35/8/67
f 11/15/49 13/26/52 37/33/65 30/22/64
f 6/2/40 19/21/42 39/21/66 32/2/62
f 43/34/72 45/11/18 40/10/17 41/1/73
f 44/35/74 43/34/72 41/1/73 42/36/75
f 21/6/76 3/6/76 51/6/76 52/6/76
f 32/2/77 34/32/77 44/35/74 42/36/75
f 47/37/79 53/38/80 50/17/81 48/16/82
f 53/38/80 52/6/83 51/6/84 50/17/81
f 47/37/79 48/16/82 49/13/85 46/39/86
f 50/17/81 51/6/84 55/6/87 54/17/88
f 46/39/86 49/13/85 57/13/20 56/12/19
f 22/24/51 4/14/50 50/17/81 54/17/88
f 3/6/76 23/6/76 55/6/76 51/6/76
f 67/40/89 69/4/90 58/4/91 59/5/92
f 73/7/54 68/41/93 62/23/94 63/7/55
f 68/41/93 67/40/89 59/5/92 62/23/94
f 61/42/98 60/8/99 70/8/100 71/19/101
f 62/23/94 59/5/92 75/5/102 74/23/102
f 58/4/105 64/43/106 76/44/107 72/45/108
f 70/8/100 60/8/99 65/8/12 77/8/109
f 2/29/110 24/31/110 76/44/107 64/43/106
f 25/18/58 1/30/57 61/42/98 71/19/101
f 33/8/11 35/8/67 77/8/109 65/8/12
f 15/4/36 10/4/35 58/4/105 72/45/108
f 82/46/116 85/8/117 78/8/118 79/30/119
f 87/4/120 83/47/121 80/29/122 81/4/120
f 83/47/121 82/46/116 79/30/119 80/29/122
f 78/8/118 85/8/117 86/8/123 84/8/123
f 58/4/91 69/4/90 87/4/125 81/4/125
f 66/8/13 65/8/12 84/8/126 86/8/126
usemtl top
f 5/1/1 6/2/1 32/2/2 31/3/3
f 10/4/4 7/5/4 59/5/4 58/4/4
f 4/14/21 11/15/22 48/16/23 50/17/21
f 16/8/24 25/18/25 71/19/26 70/8/27
f 29/20/28 25/18/25 16/8/24 19/21/29
f 30/22/30 40/10/31 57/13/32 49/13/33
f 22/24/43 27/25/28 20/1/44 13/26/45
f 27/25/28 29/20/28 19/21/29 20/1/44
f 17/23/46 18/5/47 28/27/28 26/28/28
f 26/28/28 28/27/28 29/20/28 27/25/28
f 14/7/28 17/23/46 26/28/28 23/6/48
f 23/6/48 26/28/28 27/25/28 22/24/43
f 23/6/48 22/24/43 54/17/53 55/6/53
f 18/5/47 15/4/59 24/31/60 28/27/28
f 28/27/28 24/31/60 25/18/25 29/20/28
f 30/22/30 31/3/3 41/1/63 40/10/31
f 13/26/45 20/1/44 36/9/68 37/33/68
f 19/21/29 16/8/24 35/8/69 39/21/70
f 35/8/69 16/8/24 70/8/27 77/8/71
f 31/3/3 32/2/2 42/36/78 41/1/63
f 11/15/22 30/22/30 49/13/33 48/16/23
f 65/8/95 60/8/96 78/8/97 84/8/95
f 60/8/96 61/42/103 79/30/104 78/8/97
f 1/30/111 2/29/111 64/43/112 61/42/103
f 8/23/113 9/7/113 63/7/113 62/23/113
f 18/5/47 17/23/46 74/23/114 75/5/114
f 24/31/60 15/4/59 72/45/115 76/44/115
f 61/42/103 64/43/112 80/29/124 79/30/104
f 64/43/112 58/4/127 81/4/127 80/29/124
