# Blender 5.2.0 LTS
# www.blender.org
mtllib wall.mtl
o Plane.001
v 0.268427 1.816107 -0.108032
v 0.305724 1.816107 0.060017
v -0.136143 1.849209 -0.247672
v 0.092798 1.849968 -0.271127
v 0.093874 1.816107 0.295256
v -0.180080 1.819177 0.295256
v 0.245376 1.816107 0.246891
v 0.226596 2.000000 0.232640
v 0.215592 2.000000 -0.226202
v -0.137211 2.000000 0.279137
v 0.082873 2.000000 0.279137
v 0.081668 2.000000 -0.260311
v -0.230255 2.000000 -0.234953
v 0.285351 2.000000 0.052736
v 0.247200 2.000000 -0.081963
v -0.147978 2.000000 0.082363
v -0.147978 2.000000 -0.081963
v 0.082873 2.000000 0.082363
v 0.082873 2.000000 -0.081963
v -0.173080 1.855962 -0.289207
v 0.123999 1.853486 -0.300526
v 0.230810 1.853486 -0.279697
v 0.233764 -0.000000 -0.447360
v 0.219323 2.000000 -0.269074
v -0.262425 2.000000 -0.276788
v 0.372455 -0.000000 -0.410686
v 0.112869 2.000000 -0.289711
v -0.207997 1.856967 -0.331532
v 0.076499 1.856967 -0.355077
v -0.207997 -0.000000 -0.490833
v 0.184905 -0.000000 -0.490833
v 0.294460 1.820771 0.239741
v 0.070287 1.820771 0.376379
v 0.282129 1.854632 -0.216230
v 0.288902 1.831824 -0.129479
v -0.181089 1.824242 0.376379
v 0.333730 1.820771 0.101598
v 0.264782 1.858149 -0.259102
v 0.406427 -0.000000 -0.390092
v 0.206446 -0.000000 0.486011
v -0.207997 -0.000000 0.486011
v 0.417808 -0.000000 0.361063
v 0.270642 2.000000 -0.205607
v 0.271530 2.000000 -0.105369
v 0.271692 2.000000 0.219172
v -0.136070 2.000000 0.323945
v 0.059286 2.000000 0.323945
v 0.313041 2.000000 0.092565
v 0.253295 2.000000 -0.248479
v 0.321926 1.857726 -0.216078
v 0.342196 1.823865 -0.087284
v 0.379493 1.823865 0.080764
v 0.346547 1.823865 0.216989
v 0.479167 -0.000000 -0.208376
v 0.479167 -0.000000 0.250270
v 0.304579 1.861243 -0.258950
v 0.463570 -0.000000 -0.347067
v 0.446224 -0.000000 -0.389939
v 0.457605 -0.000000 0.324900
v -0.500000 1.855960 0.289207
v -0.500000 2.000000 0.276788
v -0.500000 2.000000 -0.232268
v -0.500000 2.000000 0.082363
v -0.500000 2.000000 -0.081963
v -0.500000 1.855960 -0.289207
v -0.500000 2.000000 -0.276788
v -0.500000 1.856970 -0.331532
v -0.500000 -0.000000 -0.490833
v -0.500000 1.856970 0.331532
v -0.500000 -0.000000 0.490833
vn 0.9310 0.1214 0.3443
vn 0.3773 0.0950 -0.9212
vn 0.3649 0.0955 -0.9261
vn 0.5350 0.1025 -0.8386
vn 0.2568 0.0875 -0.9625
vn 0.6948 0.4782 -0.5372
vn 0.3043 0.1028 0.9470
vn 0.2548 0.1101 0.9607
vn 0.2582 0.1096 0.9598
vn -0.9713 0.2378 -0.0085
vn -0.4205 0.0246 -0.9070
vn -0.0899 0.0464 -0.9949
vn -0.3919 0.0268 -0.9196
vn 0.9632 0.1212 -0.2400
vn 0.9719 0.0628 0.2268
vn 0.9744 0.0644 0.2156
vn 0.2272 0.0881 -0.9699
vn -0.0954 0.0656 -0.9933
vn -0.3042 0.0469 -0.9515
vn 0.3509 0.0961 -0.9315
vn 0.3767 0.0946 -0.9215
vn -0.0173 0.0818 -0.9965
vn 0.3575 0.0942 -0.9292
vn 0.7116 0.0949 -0.6961
vn 0.2754 0.0788 0.9581
vn 0.5243 0.0890 0.8468
vn 0.5242 0.0890 0.8469
vn 0.1751 0.1466 0.9736
vn -0.0308 0.0667 0.9973
vn -0.0217 0.1310 0.9912
vn 0.9078 0.0312 0.4183
vn 0.9766 0.0993 -0.1906
vn 0.9755 0.0994 -0.1965
vn 0.9134 0.0333 0.4058
vn 0.0022 0.2831 0.9591
vn 0.6597 0.1476 0.7369
vn 0.9821 0.1148 -0.1495
vn 0.9787 0.1129 -0.1713
vn 0.6656 0.1478 0.7315
vn 0.7569 0.1080 -0.6445
vn 0.8216 0.0675 -0.5660
vn 0.9930 0.0739 -0.0920
vn 0.9635 0.0908 -0.2520
vn 0.9619 0.0911 -0.2579
vn 0.9930 0.0740 -0.0921
vn 0.9655 0.0748 0.2496
vn 0.9920 0.0704 0.1046
vn 0.9937 0.0698 0.0875
vn 0.9240 0.0964 -0.3699
vn 0.5356 0.0873 0.8399
vn 0.0011 0.0703 -0.9975
vn 0.0126 0.9897 0.1423
vn 0.0094 0.9962 0.0862
vn 0.0065 0.9982 0.0595
vn -0.0527 0.9929 -0.1070
vn -0.0000 1.0000 -0.0000
vn 0.0067 0.9992 0.0406
vn 0.0020 0.9996 0.0288
vn -0.0774 0.9906 0.1126
vn -0.0739 0.9812 0.1782
vn -0.0725 0.9769 0.2010
vn -0.1403 0.9726 0.1854
vn 0.0187 0.9970 0.0755
vn -0.4243 0.8985 0.1122
vn -0.0708 0.9975 0.0074
vn 0.0057 1.0000 0.0058
vn -0.0714 0.9973 -0.0188
vn -0.0613 0.0732 0.9954
vn 0.1118 0.9926 -0.0479
vn -0.0000 0.0855 -0.9963
vn -0.0000 0.9997 0.0238
vn -0.0000 0.0859 -0.9963
vn -0.0075 0.0885 0.9960
vt 0.666667 0.000000
vt 1.000000 1.000000
vt 0.365252 1.000000
vt 0.287751 1.000000
vt 1.000000 0.000000
vt 0.333333 0.000000
vt 0.666667 1.000000
vt 1.000000 0.333333
vt 1.000000 0.666667
vt 0.633357 1.000000
vt 0.333333 1.000000
vt 0.635894 1.000000
vt 1.000000 0.775475
vt 1.000000 0.768351
vt 1.000000 0.289372
vt 1.000000 0.297695
vt 1.000000 0.063112
vt 0.666667 0.666667
vt 0.333333 0.666667
vt 0.666667 0.333333
vt 0.333333 0.333333
s 1
usemtl Material
f 5/1/1 11/1/1 47/1/1 33/1/1
f 26/2/2 22/2/3 38/2/4 39/2/5
f 13/3/6 3/3/6 20/4/6 25/4/6
f 5/1/7 7/5/8 8/5/9 11/1/7
f 10/6/10 6/6/10 36/6/10 46/6/10
f 4/7/11 3/3/12 13/3/12 12/7/13
f 2/8/14 1/9/15 15/9/16 14/8/14
f 26/2/2 23/7/17 21/7/18 22/2/3
f 22/2/3 21/7/18 27/7/19 24/2/20
f 4/7/11 12/7/13 27/7/19 21/7/18
f 31/10/21 30/11/22 28/11/22 29/12/23
f 21/7/24 23/7/24 31/10/21 29/12/23
f 40/1/25 42/5/26 32/5/27 33/1/28
f 41/6/29 40/1/25 33/1/28 36/6/30
f 35/13/31 34/2/32 43/2/33 44/14/34
f 36/6/30 33/1/28 47/1/35 46/6/35
f 32/5/36 37/15/37 48/16/38 45/17/39
f 43/2/33 34/2/32 38/2/4 49/2/40
f 2/8/41 14/8/41 48/16/38 37/15/37
f 15/9/16 1/9/15 35/13/31 44/14/34
f 22/2/3 24/2/20 49/2/40 38/2/4
f 8/5/9 7/5/8 32/5/36 45/17/39
f 54/9/42 57/2/43 50/2/44 51/9/45
f 59/5/46 55/8/47 52/8/48 53/5/46
f 55/8/47 54/9/42 51/9/45 52/8/48
f 50/2/44 57/2/43 58/2/49 56/2/49
f 32/5/27 42/5/26 59/5/50 53/5/50
f 39/2/5 38/2/4 56/2/51 58/2/51
f 41/6/29 36/6/30 69/6/68 70/6/68
f 36/6/69 6/6/69 60/6/69 69/6/69
f 28/11/22 30/11/22 68/11/70 67/11/70
f 25/4/72 20/4/72 65/4/72 66/4/72
f 13/3/56 25/4/56 66/4/56 62/11/56
f 6/6/73 10/6/73 61/6/73 60/6/73
usemtl top
f 3/3/52 4/7/52 21/7/53 20/4/54
f 7/5/55 5/1/55 33/1/55 32/5/55
f 9/2/56 15/9/56 44/14/56 43/2/56
f 19/18/56 15/9/56 9/2/56 12/7/56
f 17/19/56 19/18/56 12/7/56 13/3/56
f 10/6/56 11/1/56 18/20/56 16/21/56
f 16/21/56 18/20/56 19/18/56 17/19/56
f 11/1/56 8/5/56 14/8/56 18/20/56
f 18/20/56 14/8/56 15/9/56 19/18/56
f 12/7/56 9/2/56 24/2/56 27/7/56
f 24/2/56 9/2/56 43/2/56 49/2/56
f 20/4/54 21/7/53 29/12/57 28/11/58
f 38/2/59 34/2/60 50/2/61 56/2/59
f 34/2/60 35/13/62 51/9/63 50/2/61
f 1/9/64 2/8/64 37/15/65 35/13/62
f 11/1/56 10/6/56 46/6/56 47/1/56
f 14/8/56 8/5/56 45/17/56 48/16/56
f 35/13/62 37/15/65 52/8/66 51/9/63
f 37/15/65 32/5/67 53/5/67 52/8/66
f 10/6/56 16/21/56 63/21/56 61/6/56
f 16/21/56 17/19/56 64/19/56 63/21/56
f 20/4/54 28/11/58 67/11/71 65/4/71
f 17/19/56 13/3/56 62/11/56 64/19/56
