# Blender 5.2.0 LTS
# www.blender.org
mtllib wall.mtl
o Plane.001
v 0.268427 1.816107 -0.296729
v 0.305724 1.816107 0.060017
v 0.093874 1.816107 0.500000
v 0.245376 1.816107 0.500000
v 0.226596 2.000000 0.500000
v 0.215592 2.000000 -0.500000
v -0.137211 2.000000 0.500000
v 0.082873 2.000000 0.500000
v 0.081668 2.000000 -0.500000
v -0.230255 2.000000 -0.500000
v 0.285351 2.000000 0.052736
v 0.247200 2.000000 -0.270660
v -0.147978 2.000000 0.082363
v -0.147978 2.000000 -0.270660
v 0.082873 2.000000 0.082363
v 0.082873 2.000000 -0.270660
v 0.289207 1.855960 0.500000
v 0.289207 1.855960 -0.500000
v 0.288902 1.831824 -0.318176
v 0.333730 1.820771 0.101598
v 0.276788 2.000000 -0.500000
v 0.271530 2.000000 -0.294066
v 0.276788 2.000000 0.500000
v 0.313041 2.000000 0.092565
v 0.331532 1.856970 -0.500000
v 0.342196 1.823865 -0.275981
v 0.379493 1.823865 0.080764
v 0.331532 1.856970 0.500000
v 0.479167 -0.000000 -0.397073
v 0.479167 -0.000000 0.250270
v 0.490833 -0.000000 -0.500000
v 0.490833 0.000000 0.500000
v -0.500000 2.000000 0.500000
v -0.500000 2.000000 -0.500000
v -0.500000 2.000000 0.082363
v -0.500000 2.000000 -0.270660
v 0.215592 1.857186 -0.500000
v -0.137211 1.857186 0.500000
v 0.081668 1.857186 -0.500000
v -0.230255 1.857186 -0.500000
v -0.500000 1.857186 0.500000
v -0.500000 1.857186 -0.500000
v -0.500000 1.857186 0.082363
v -0.500000 1.857186 -0.270660
v 0.093874 -0.000000 0.500000
v 0.245376 -0.000000 0.500000
v 0.294460 -0.000000 0.500000
v 0.294460 -0.000000 -0.500000
v 0.215592 -0.000000 -0.500000
v -0.137211 -0.000000 0.500000
v 0.081668 -0.000000 -0.500000
v -0.230255 -0.000000 -0.500000
v -0.500000 -0.000000 0.500000
v -0.500000 -0.000000 -0.500000
v -0.500000 -0.000000 0.082363
v -0.500000 -0.000000 -0.270660
vn -0.0000 -0.0000 1.0000
vn 0.9870 0.1172 -0.1095
vn 0.9524 0.0579 0.2992
vn 0.9568 0.0603 0.2844
vn 0.9062 0.0329 0.4216
vn 0.9954 0.0934 0.0201
vn 0.9041 0.0322 0.4261
vn 0.9901 0.1040 0.0947
vn 0.9627 0.0910 -0.2549
vn 0.9595 0.0903 -0.2667
vn 0.8216 0.0675 -0.5660
vn 0.9973 0.0724 -0.0119
vn 0.9967 0.0799 0.0111
vn 0.9973 0.0721 -0.0128
vn 0.9961 0.0724 0.0505
vn 0.9976 0.0686 0.0093
vn 0.9977 0.0682 0.0053
vn -0.0000 1.0000 -0.0000
vn 0.0104 0.9902 0.1394
vn -0.0829 0.9920 0.0954
vn 0.0374 0.9983 0.0439
vn -0.4066 0.9119 0.0560
vn -0.0754 0.9964 -0.0396
vn 0.0064 0.9996 -0.0262
vn -0.0677 0.9936 -0.0907
vn -1.0000 -0.0000 -0.0000
vn -0.0000 -0.0000 -1.0000
vt 0.666667 0.000000
vt 1.000000 0.000000
vt 1.000000 0.333333
vt 1.000000 0.666667
vt 1.000000 0.775475
vt 1.000000 1.000000
vt 1.000000 0.768351
vt 1.000000 0.289372
vt 1.000000 0.297695
vt 1.000000 0.063112
vt 1.000000 0.000000
vt 0.666667 0.666667
vt 0.666667 1.000000
vt 0.333333 0.666667
vt 0.365252 1.000000
vt 0.333333 0.000000
vt 0.666667 0.333333
vt 0.333333 0.333333
vt 0.333333 1.000000
s 1
usemtl Material
f 3/1/1 4/2/1 5/2/1 8/1/1
f 2/3/2 1/4/3 12/4/4 11/3/2
f 19/5/5 18/6/6 21/6/6 22/7/7
f 17/2/8 20/8/9 24/9/10 23/10/8
f 2/3/11 11/3/11 24/9/10 20/8/9
f 12/4/4 1/4/3 19/5/5 22/7/7
f 5/2/1 4/2/1 17/2/1 23/10/1
f 29/4/12 31/6/13 25/6/13 26/4/14
f 32/11/15 30/3/16 27/3/17 28/2/15
f 30/3/16 29/4/12 26/4/14 27/3/17
f 35/18/26 36/14/26 44/14/26 43/18/26
f 36/14/26 34/19/26 42/19/26 44/14/26
f 9/13/27 6/6/27 37/6/27 39/13/27
f 7/16/1 33/16/1 41/16/1 38/16/1
f 33/16/26 35/18/26 43/18/26 41/16/26
f 34/19/27 10/15/27 40/15/27 42/19/27
f 10/15/27 9/13/27 39/13/27 40/15/27
f 18/6/27 37/6/27 6/6/27 21/6/27
f 8/1/1 7/16/1 38/16/1 3/1/1
f 37/6/27 18/6/27 48/6/27 49/6/27
f 38/16/1 41/16/1 53/16/1 50/16/1
f 44/14/26 42/19/26 54/19/26 56/14/26
f 4/2/1 3/1/1 45/1/1 46/2/1
f 3/1/1 38/16/1 50/16/1 45/1/1
f 42/19/27 40/15/27 52/15/27 54/19/27
f 17/2/1 4/2/1 46/2/1 47/2/1
f 41/16/26 43/18/26 55/18/26 53/16/26
f 40/15/27 39/13/27 51/13/27 52/15/27
f 43/18/26 44/14/26 56/14/26 55/18/26
f 39/13/27 37/6/27 49/6/27 51/13/27
f 28/2/1 17/2/1 47/2/1 32/11/1
f 31/6/27 48/6/27 18/6/27 25/6/27
usemtl top
f 6/6/18 12/4/18 22/7/18 21/6/18
f 16/12/18 12/4/18 6/6/18 9/13/18
f 14/14/18 16/12/18 9/13/18 10/15/18
f 7/16/18 8/1/18 15/17/18 13/18/18
f 13/18/18 15/17/18 16/12/18 14/14/18
f 8/1/18 5/2/18 11/3/18 15/17/18
f 15/17/18 11/3/18 12/4/18 16/12/18
f 18/6/19 19/5/20 26/4/21 25/6/19
f 1/4/22 2/3/22 20/8/23 19/5/20
f 11/3/18 5/2/18 23/10/18 24/9/18
f 19/5/20 20/8/23 27/3/24 26/4/21
f 20/8/23 17/2/25 28/2/25 27/3/24
f 7/16/18 13/18/18 35/18/18 33/16/18
f 13/18/18 14/14/18 36/14/18 35/18/18
f 14/14/18 10/15/18 34/19/18 36/14/18
