# Blender 5.2.1 LTS
# www.blender.org
mtllib omnigun_head.mtl
o Cylinder
v 0.000000 0.000000 -0.352000
v 0.248902 0.000000 -0.248902
v 0.352000 0.000000 0.000000
v 0.248902 0.000000 0.248902
v 0.000000 0.000000 0.352000
v -0.248902 0.000000 0.248902
v -0.352000 0.000000 0.000000
v -0.248902 0.000000 -0.248902
v 0.000000 0.291436 -0.352000
v 0.000000 0.356895 -0.327289
v 0.231428 0.356895 -0.231428
v 0.248902 0.291436 -0.248902
v 0.327289 0.356895 -0.000000
v 0.352000 0.291436 0.000000
v 0.231428 0.356895 0.231428
v 0.248902 0.291436 0.248902
v 0.000000 0.356895 0.327289
v 0.000000 0.291436 0.352000
v -0.231428 0.356895 0.231428
v -0.248902 0.291436 0.248902
v -0.327289 0.356895 -0.000000
v -0.352000 0.291436 0.000000
v -0.231428 0.356895 -0.231428
v -0.248902 0.291436 -0.248902
v 0.155443 0.435683 -0.155443
v 0.201013 0.406935 -0.201013
v 0.000000 0.406935 -0.284276
v 0.000000 0.435683 -0.219830
v 0.219830 0.435683 -0.000000
v 0.284276 0.406935 -0.000000
v 0.155443 0.435683 0.155443
v 0.201013 0.406935 0.201013
v 0.000000 0.435683 0.219830
v 0.000000 0.406935 0.284276
v -0.155443 0.435683 0.155443
v -0.201013 0.406935 0.201013
v -0.219830 0.435683 -0.000000
v -0.284276 0.406935 -0.000000
v -0.155443 0.435683 -0.155443
v -0.201013 0.406935 -0.201013
vn -0.0000 -0.0000 -1.0000
vn 0.7071 -0.0000 -0.7071
vn 1.0000 -0.0000 -0.0000
vn 0.7071 -0.0000 0.7071
vn -0.0000 -0.0000 1.0000
vn -0.7071 -0.0000 0.7071
vn -1.0000 -0.0000 -0.0000
vn -0.7071 -0.0000 -0.7071
vn -0.0000 0.1722 -0.9851
vn -0.0000 0.4924 -0.8703
vn 0.6154 0.4924 -0.6154
vn 0.6965 0.1722 -0.6965
vn 0.8703 0.4924 -0.0000
vn 0.9851 0.1722 -0.0000
vn 0.6154 0.4924 0.6154
vn 0.6965 0.1722 0.6965
vn -0.0000 0.4924 0.8703
vn -0.0000 0.1722 0.9851
vn -0.6154 0.4924 0.6154
vn -0.6965 0.1722 0.6965
vn -0.8703 0.4924 -0.0000
vn -0.9851 0.1722 -0.0000
vn -0.6154 0.4924 -0.6154
vn -0.6965 0.1722 -0.6965
vn 0.1816 0.9665 -0.1816
vn 0.4455 0.7766 -0.4455
vn -0.0000 0.7766 -0.6300
vn -0.0000 0.9665 -0.2568
vn 0.2568 0.9665 -0.0000
vn 0.6300 0.7766 -0.0000
vn 0.1816 0.9665 0.1816
vn 0.4455 0.7766 0.4455
vn -0.0000 0.9665 0.2568
vn -0.0000 0.7766 0.6300
vn -0.1816 0.9665 0.1816
vn -0.4455 0.7766 0.4455
vn -0.2568 0.9665 -0.0000
vn -0.6300 0.7766 -0.0000
vn -0.1816 0.9665 -0.1816
vn -0.4455 0.7766 -0.4455
vt 0.875000 0.944064
vt 1.000000 0.944064
vt 1.000000 1.000000
vt 0.875000 1.000000
vt 0.750000 0.944064
vt 0.750000 1.000000
vt 0.625000 0.944064
vt 0.625000 1.000000
vt 0.500000 0.944064
vt 0.500000 1.000000
vt 0.375000 0.944064
vt 0.375000 1.000000
vt 0.250000 0.944064
vt 0.250000 1.000000
vt 0.125000 0.944064
vt 0.125000 1.000000
vt 0.000000 0.944064
vt 0.000000 1.000000
vt 0.419706 0.419706
vt 0.250000 0.490000
vt 0.250000 0.453260
vt 0.393727 0.393727
vt 0.490000 0.250000
vt 0.453260 0.250000
vt 0.419706 0.080294
vt 0.393727 0.106273
vt 0.250000 0.010000
vt 0.250000 0.046740
vt 0.080294 0.080294
vt 0.106273 0.106273
vt 0.010000 0.250000
vt 0.046740 0.250000
vt 0.080294 0.419706
vt 0.106273 0.393727
vt 1.000000 0.500000
vt 0.875000 0.500000
vt 0.125000 0.500000
vt 0.000000 0.500000
vt 0.750000 0.500000
vt 0.625000 0.500000
vt 0.500000 0.500000
vt 0.375000 0.500000
vt 0.250000 0.500000
s 1
f 12/1/12 9/2/9 10/3/10 11/4/11
f 14/5/14 12/1/12 11/4/11 13/6/13
f 16/7/16 14/5/14 13/6/13 15/8/15
f 18/9/18 16/7/16 15/8/15 17/10/17
f 20/11/20 18/9/18 17/10/17 19/12/19
f 22/13/22 20/11/20 19/12/19 21/14/21
f 24/15/24 22/13/22 21/14/21 23/16/23
f 9/17/9 24/15/24 23/16/23 10/18/10
f 26/19/26 27/20/27 28/21/28 25/22/25
f 30/23/30 26/19/26 25/22/25 29/24/29
f 32/25/32 30/23/30 29/24/29 31/26/31
f 34/27/34 32/25/32 31/26/31 33/28/33
f 36/29/36 34/27/34 33/28/33 35/30/35
f 38/31/38 36/29/36 35/30/35 37/32/37
f 40/33/40 38/31/38 37/32/37 39/34/39
f 27/20/27 40/33/40 39/34/39 28/21/28
f 11/4/11 10/3/10 27/3/27 26/4/26
f 1/35/1 9/2/9 12/1/12 2/36/2
f 8/37/8 24/15/24 9/17/9 1/38/1
f 10/18/10 23/16/23 40/16/40 27/18/27
f 2/36/2 12/1/12 14/5/14 3/39/3
f 13/6/13 11/4/11 26/4/26 30/6/30
f 3/39/3 14/5/14 16/7/16 4/40/4
f 15/8/15 13/6/13 30/6/30 32/8/32
f 4/40/4 16/7/16 18/9/18 5/41/5
f 17/10/17 15/8/15 32/8/32 34/10/34
f 5/41/5 18/9/18 20/11/20 6/42/6
f 19/12/19 17/10/17 34/10/34 36/12/36
f 6/42/6 20/11/20 22/13/22 7/43/7
f 21/14/21 19/12/19 36/12/36 38/14/38
f 7/43/7 22/13/22 24/15/24 8/37/8
f 23/16/23 21/14/21 38/14/38 40/16/40
f 25/22/25 28/21/28 39/34/39 37/32/37 35/30/35 33/28/33 31/26/31 29/24/29
