# Blender 5.2.1 LTS
# www.blender.org
mtllib omnigun_barrel.mtl
o Cylinder.001
v -0.169710 0.100000 -0.409716
v 0.169710 0.100000 0.409716
v -0.110324 0.076604 -0.434314
v 0.229096 0.076604 0.385117
v -0.078725 0.017365 -0.447403
v 0.260694 0.017365 0.372029
v -0.089699 -0.050000 -0.442857
v 0.249720 -0.050000 0.376574
v -0.138111 -0.093969 -0.422804
v 0.201308 -0.093969 0.396627
v -0.201308 -0.093969 -0.396627
v 0.138111 -0.093969 0.422804
v -0.249720 -0.050000 -0.376574
v 0.089699 -0.050000 0.442857
v -0.260694 0.017365 -0.372029
v 0.078725 0.017365 0.447403
v -0.229096 0.076604 -0.385117
v 0.110324 0.076604 0.434314
v -0.169710 0.066981 -0.409716
v -0.129933 0.051310 -0.426192
v 0.209487 0.051310 0.393239
v 0.169710 0.066981 0.409716
v -0.108768 0.011631 -0.434959
v 0.230652 0.011631 0.384473
v -0.116118 -0.033490 -0.431914
v 0.223301 -0.033490 0.387517
v -0.148545 -0.062941 -0.418482
v 0.190875 -0.062941 0.400949
v -0.190875 -0.062941 -0.400949
v 0.148545 -0.062941 0.418482
v -0.223301 -0.033490 -0.387517
v 0.116118 -0.033490 0.431914
v -0.230652 0.011631 -0.384473
v 0.108768 0.011631 0.434959
v -0.209487 0.051310 -0.393239
v 0.129933 0.051310 0.426192
v -0.158608 0.066981 -0.382913
v -0.118831 0.051310 -0.399389
v 0.198385 0.051310 0.366437
v 0.158608 0.066981 0.382913
v -0.097666 0.011631 -0.408156
v 0.219550 0.011631 0.357670
v -0.105016 -0.033490 -0.405112
v 0.212199 -0.033490 0.360715
v -0.137443 -0.062941 -0.391680
v 0.179773 -0.062941 0.374146
v -0.179773 -0.062941 -0.374146
v 0.137443 -0.062941 0.391680
v -0.212199 -0.033490 -0.360715
v 0.105016 -0.033490 0.405112
v -0.219550 0.011631 -0.357670
v 0.097666 0.011631 0.408156
v -0.198385 0.051310 -0.366437
v 0.118831 0.051310 0.399389
v -0.409716 0.100000 0.169710
v 0.409716 0.100000 -0.169710
v -0.434314 0.076604 0.110324
v 0.385117 0.076604 -0.229096
v -0.447403 0.017365 0.078725
v 0.372029 0.017365 -0.260694
v -0.442857 -0.050000 0.089699
v 0.376574 -0.050000 -0.249720
v -0.422804 -0.093969 0.138111
v 0.396627 -0.093969 -0.201308
v -0.396627 -0.093969 0.201308
v 0.422804 -0.093969 -0.138111
v -0.376574 -0.050000 0.249720
v 0.442857 -0.050000 -0.089699
v -0.372029 0.017365 0.260694
v 0.447403 0.017365 -0.078725
v -0.385117 0.076604 0.229096
v 0.434314 0.076604 -0.110324
v -0.409716 0.066981 0.169710
v -0.426192 0.051310 0.129933
v 0.393239 0.051310 -0.209487
v 0.409716 0.066981 -0.169710
v -0.434959 0.011631 0.108768
v 0.384473 0.011631 -0.230652
v -0.431914 -0.033490 0.116118
v 0.387517 -0.033490 -0.223301
v -0.418482 -0.062941 0.148545
v 0.400949 -0.062941 -0.190875
v -0.400949 -0.062941 0.190875
v 0.418482 -0.062941 -0.148545
v -0.387517 -0.033490 0.223301
v 0.431914 -0.033490 -0.116118
v -0.384473 0.011631 0.230652
v 0.434959 0.011631 -0.108768
v -0.393239 0.051310 0.209487
v 0.426192 0.051310 -0.129933
v -0.382913 0.066981 0.158608
v -0.399389 0.051310 0.118831
v 0.366437 0.051310 -0.198385
v 0.382913 0.066981 -0.158608
v -0.408156 0.011631 0.097666
v 0.357670 0.011631 -0.219550
v -0.405112 -0.033490 0.105016
v 0.360715 -0.033490 -0.212199
v -0.391680 -0.062941 0.137443
v 0.374146 -0.062941 -0.179773
v -0.374146 -0.062941 0.179773
v 0.391680 -0.062941 -0.137443
v -0.360715 -0.033490 0.212199
v 0.405112 -0.033490 -0.105016
v -0.357670 0.011631 0.219550
v 0.408156 0.011631 -0.097666
v -0.366437 0.051310 0.198385
v 0.399389 0.051310 -0.118831
v -0.409716 0.100000 -0.169710
v 0.409716 0.100000 0.169710
v -0.385117 0.076604 -0.229096
v 0.434314 0.076604 0.110324
v -0.372029 0.017365 -0.260694
v 0.447403 0.017365 0.078725
v -0.376574 -0.050000 -0.249720
v 0.442857 -0.050000 0.089699
v -0.396627 -0.093969 -0.201308
v 0.422804 -0.093969 0.138111
v -0.422804 -0.093969 -0.138111
v 0.396627 -0.093969 0.201308
v -0.442857 -0.050000 -0.089699
v 0.376574 -0.050000 0.249720
v -0.447403 0.017365 -0.078725
v 0.372029 0.017365 0.260694
v -0.434314 0.076604 -0.110324
v 0.385117 0.076604 0.229096
v -0.409716 0.066981 -0.169710
v -0.393239 0.051310 -0.209487
v 0.426192 0.051310 0.129933
v 0.409716 0.066981 0.169710
v -0.384473 0.011631 -0.230652
v 0.434959 0.011631 0.108768
v -0.387517 -0.033490 -0.223301
v 0.431914 -0.033490 0.116118
v -0.400949 -0.062941 -0.190875
v 0.418482 -0.062941 0.148545
v -0.418482 -0.062941 -0.148545
v 0.400949 -0.062941 0.190875
v -0.431914 -0.033490 -0.116118
v 0.387517 -0.033490 0.223301
v -0.434959 0.011631 -0.108768
v 0.384473 0.011631 0.230652
v -0.426192 0.051310 -0.129933
v 0.393239 0.051310 0.209487
v -0.382913 0.066981 -0.158608
v -0.366437 0.051310 -0.198385
v 0.399389 0.051310 0.118831
v 0.382913 0.066981 0.158608
v -0.357670 0.011631 -0.219550
v 0.408156 0.011631 0.097666
v -0.360715 -0.033490 -0.212199
v 0.405112 -0.033490 0.105016
v -0.374146 -0.062941 -0.179773
v 0.391680 -0.062941 0.137443
v -0.391680 -0.062941 -0.137443
v 0.374146 -0.062941 0.179773
v -0.405112 -0.033490 -0.105016
v 0.360715 -0.033490 0.212199
v -0.408156 0.011631 -0.097666
v 0.357670 0.011631 0.219550
v -0.399389 0.051310 -0.118831
v 0.366437 0.051310 0.198385
v -0.169710 0.100000 0.409716
v 0.169710 0.100000 -0.409716
v -0.229096 0.076604 0.385117
v 0.110324 0.076604 -0.434314
v -0.260694 0.017365 0.372029
v 0.078725 0.017365 -0.447403
v -0.249720 -0.050000 0.376574
v 0.089699 -0.050000 -0.442857
v -0.201308 -0.093969 0.396627
v 0.138111 -0.093969 -0.422804
v -0.138111 -0.093969 0.422804
v 0.201308 -0.093969 -0.396627
v -0.089699 -0.050000 0.442857
v 0.249720 -0.050000 -0.376574
v -0.078725 0.017365 0.447403
v 0.260694 0.017365 -0.372029
v -0.110324 0.076604 0.434314
v 0.229096 0.076604 -0.385117
v -0.169710 0.066981 0.409716
v -0.209487 0.051310 0.393239
v 0.129933 0.051310 -0.426192
v 0.169710 0.066981 -0.409716
v -0.230652 0.011631 0.384473
v 0.108768 0.011631 -0.434959
v -0.223301 -0.033490 0.387517
v 0.116118 -0.033490 -0.431914
v -0.190875 -0.062941 0.400949
v 0.148545 -0.062941 -0.418482
v -0.148545 -0.062941 0.418482
v 0.190875 -0.062941 -0.400949
v -0.116118 -0.033490 0.431914
v 0.223301 -0.033490 -0.387517
v -0.108768 0.011631 0.434959
v 0.230652 0.011631 -0.384473
v -0.129933 0.051310 0.426192
v 0.209487 0.051310 -0.393239
v -0.158608 0.066981 0.382913
v -0.198385 0.051310 0.366437
v 0.118831 0.051310 -0.399389
v 0.158608 0.066981 -0.382913
v -0.219550 0.011631 0.357670
v 0.097666 0.011631 -0.408156
v -0.212199 -0.033490 0.360715
v 0.105016 -0.033490 -0.405111
v -0.179773 -0.062941 0.374146
v 0.137443 -0.062941 -0.391680
v -0.137443 -0.062941 0.391680
v 0.179773 -0.062941 -0.374146
v -0.105016 -0.033490 0.405111
v 0.212199 -0.033490 -0.360715
v -0.097666 0.011631 0.408156
v 0.219550 0.011631 -0.357670
v -0.118831 0.051310 0.399389
v 0.198385 0.051310 -0.366437
vn -0.0000 1.0000 -0.0000
vn 0.5939 0.7660 -0.2460
vn 0.9098 0.1736 -0.3769
vn 0.8001 -0.5000 -0.3314
vn 0.3160 -0.9397 -0.1309
vn -0.3160 -0.9397 0.1309
vn -0.8001 -0.5000 0.3314
vn -0.9098 0.1736 0.3769
vn -0.3827 -0.0000 -0.9239
vn -0.5939 0.7660 0.2460
vn 0.3827 -0.0000 0.9239
vn 0.3160 0.9397 -0.1309
vn -0.3160 0.9397 0.1309
vn 0.0006 0.7239 0.6899
vn 0.4874 0.7239 0.4882
vn 0.5939 -0.7660 -0.2460
vn -0.0000 -1.0000 -0.0000
vn -0.2440 -0.7704 -0.5891
vn 0.2135 -0.5901 -0.7786
vn -0.2135 -0.5901 0.7786
vn 0.2440 -0.7704 0.5891
vn 0.7015 -0.5901 0.3996
vn 0.9449 -0.1338 0.2988
vn 0.8604 0.3852 0.3338
vn -0.3724 0.3852 0.8444
vn -0.4569 -0.1338 0.8794
vn -0.7015 -0.5901 -0.3996
vn -0.9449 -0.1338 -0.2988
vn -0.8604 0.3852 -0.3338
vn -0.4874 0.7239 -0.4882
vn -0.0006 0.7239 -0.6899
vn 0.3724 0.3852 -0.8444
vn 0.4569 -0.1338 -0.8794
vn -0.5939 -0.7660 0.2460
vn -0.9098 -0.1736 0.3769
vn 0.8001 0.5000 -0.3314
vn -0.8001 0.5000 0.3314
vn 0.9098 -0.1736 -0.3769
vn -0.2460 0.7660 -0.5939
vn -0.3769 0.1736 -0.9098
vn -0.3314 -0.5000 -0.8001
vn -0.1309 -0.9397 -0.3160
vn 0.1309 -0.9397 0.3160
vn 0.3314 -0.5000 0.8001
vn 0.3769 0.1736 0.9098
vn -0.9239 -0.0000 0.3827
vn 0.2460 0.7660 0.5939
vn 0.9239 -0.0000 -0.3827
vn -0.1309 0.9397 -0.3160
vn 0.1309 0.9397 0.3160
vn 0.6899 0.7239 -0.0006
vn 0.4882 0.7239 -0.4874
vn -0.2460 -0.7660 -0.5939
vn -0.5891 -0.7704 0.2440
vn -0.7786 -0.5901 -0.2135
vn 0.7786 -0.5901 0.2135
vn 0.5891 -0.7704 -0.2440
vn 0.3996 -0.5901 -0.7015
vn 0.2988 -0.1338 -0.9449
vn 0.3338 0.3852 -0.8604
vn 0.8444 0.3852 0.3724
vn 0.8794 -0.1338 0.4569
vn -0.3996 -0.5901 0.7015
vn -0.2988 -0.1338 0.9449
vn -0.3338 0.3852 0.8604
vn -0.4882 0.7239 0.4874
vn -0.6899 0.7239 0.0006
vn -0.8444 0.3852 -0.3724
vn -0.8794 -0.1338 -0.4569
vn 0.2460 -0.7660 0.5939
vn 0.3769 -0.1736 0.9098
vn -0.3314 0.5000 -0.8001
vn 0.3314 0.5000 0.8001
vn -0.3769 -0.1736 -0.9098
vn 0.2460 0.7660 -0.5939
vn 0.3769 0.1736 -0.9098
vn 0.3314 -0.5000 -0.8001
vn 0.1309 -0.9397 -0.3160
vn -0.1309 -0.9397 0.3160
vn -0.3314 -0.5000 0.8001
vn -0.3769 0.1736 0.9098
vn -0.9239 -0.0000 -0.3827
vn -0.2460 0.7660 0.5939
vn 0.9239 -0.0000 0.3827
vn 0.1309 0.9397 -0.3160
vn -0.1309 0.9397 0.3160
vn 0.4882 0.7239 0.4874
vn 0.6899 0.7239 0.0006
vn 0.2460 -0.7660 -0.5939
vn -0.5891 -0.7704 -0.2440
vn -0.3996 -0.5901 -0.7015
vn 0.3996 -0.5901 0.7015
vn 0.5891 -0.7704 0.2440
vn 0.7786 -0.5901 -0.2135
vn 0.8794 -0.1338 -0.4569
vn 0.8444 0.3852 -0.3724
vn 0.3338 0.3852 0.8604
vn 0.2988 -0.1338 0.9449
vn -0.7786 -0.5901 0.2135
vn -0.8794 -0.1338 0.4569
vn -0.8444 0.3852 0.3724
vn -0.6899 0.7239 -0.0006
vn -0.4882 0.7239 -0.4874
vn -0.3338 0.3852 -0.8604
vn -0.2988 -0.1338 -0.9449
vn -0.2460 -0.7660 0.5939
vn -0.3769 -0.1736 0.9098
vn 0.3314 0.5000 -0.8001
vn -0.3314 0.5000 0.8001
vn 0.3769 -0.1736 -0.9098
vn -0.5939 0.7660 -0.2460
vn -0.9098 0.1736 -0.3769
vn -0.8001 -0.5000 -0.3314
vn -0.3160 -0.9397 -0.1309
vn 0.3160 -0.9397 0.1309
vn 0.8001 -0.5000 0.3314
vn 0.9098 0.1736 0.3769
vn -0.3827 -0.0000 0.9239
vn 0.5939 0.7660 0.2460
vn 0.3827 -0.0000 -0.9239
vn -0.3160 0.9397 -0.1309
vn 0.3160 0.9397 0.1309
vn 0.4874 0.7239 -0.4882
vn 0.0006 0.7239 -0.6899
vn -0.5939 -0.7660 -0.2460
vn -0.2440 -0.7704 0.5891
vn -0.7015 -0.5901 0.3996
vn 0.7015 -0.5901 -0.3996
vn 0.2440 -0.7704 -0.5891
vn -0.2135 -0.5901 -0.7786
vn -0.4569 -0.1338 -0.8794
vn -0.3724 0.3852 -0.8444
vn 0.8604 0.3852 -0.3338
vn 0.9449 -0.1338 -0.2988
vn 0.2135 -0.5901 0.7786
vn 0.4569 -0.1338 0.8794
vn 0.3724 0.3852 0.8444
vn -0.0006 0.7239 0.6899
vn -0.4874 0.7239 0.4882
vn -0.8604 0.3852 0.3338
vn -0.9449 -0.1338 0.2988
vn 0.5939 -0.7660 0.2460
vn 0.9098 -0.1736 0.3769
vn -0.8001 0.5000 -0.3314
vn 0.8001 0.5000 0.3314
vn -0.9098 -0.1736 -0.3769
vt 1.000000 0.500000
vt 1.000000 1.000000
vt 0.888889 1.000000
vt 0.888889 0.500000
vt 0.777778 1.000000
vt 0.777778 0.500000
vt 0.666667 1.000000
vt 0.666667 0.500000
vt 0.555556 1.000000
vt 0.555556 0.500000
vt 0.444444 1.000000
vt 0.444444 0.500000
vt 0.333333 1.000000
vt 0.333333 0.500000
vt 0.222222 1.000000
vt 0.222222 0.500000
vt 0.111111 1.000000
vt 0.111111 0.500000
vt 0.000000 1.000000
vt 0.000000 0.500000
vt 0.404269 0.433851
vt 0.250000 0.490000
vt 0.095731 0.433851
vt 0.013646 0.291676
vt 0.042154 0.130000
vt 0.167915 0.024474
vt 0.332085 0.024474
vt 0.457846 0.130000
vt 0.486354 0.291676
vt 0.750000 0.490000
vt 0.904269 0.433851
vt 0.986354 0.291676
vt 0.957846 0.130000
vt 0.832085 0.024474
vt 0.667915 0.024474
vt 0.542154 0.130000
vt 0.513646 0.291676
vt 0.595731 0.433851
s 1
f 1/1/1 2/2/1 4/3/2 3/4/2
f 3/4/2 4/3/2 6/5/3 5/6/3
f 5/6/3 6/5/3 8/7/4 7/8/4
f 7/8/4 8/7/4 10/9/5 9/10/5
f 9/10/5 10/9/5 12/11/6 11/12/6
f 11/12/6 12/11/6 14/13/7 13/14/7
f 13/14/7 14/13/7 16/15/8 15/16/8
f 5/6/9 7/8/9 25/8/9 23/6/9
f 15/16/8 16/15/8 18/17/10 17/18/10
f 17/18/10 18/17/10 2/19/1 1/20/1
f 12/11/11 10/9/11 28/9/11 30/11/11
f 30/11/12 28/9/13 46/9/14 48/11/15
f 35/18/16 19/20/17 37/20/18 53/18/19
f 15/16/9 17/18/9 35/18/9 33/16/9
f 1/1/9 3/4/9 20/4/9 19/1/9
f 8/7/11 6/5/11 24/5/11 26/7/11
f 18/17/11 16/15/11 34/15/11 36/17/11
f 4/3/11 2/2/11 22/2/11 21/3/11
f 11/12/9 13/14/9 31/14/9 29/12/9
f 14/13/11 12/11/11 30/11/11 32/13/11
f 7/8/9 9/10/9 27/10/9 25/8/9
f 17/18/9 1/20/9 19/20/9 35/18/9
f 10/9/11 8/7/11 26/7/11 28/9/11
f 2/19/11 18/17/11 36/17/11 22/19/11
f 3/4/9 5/6/9 23/6/9 20/4/9
f 13/14/9 15/16/9 33/16/9 31/14/9
f 6/5/11 4/3/11 21/3/11 24/5/11
f 16/15/11 14/13/11 32/13/11 34/15/11
f 9/10/9 11/12/9 29/12/9 27/10/9
f 39/21/20 40/22/21 54/23/22 52/24/23 50/25/24 48/26/15 46/27/14 44/28/25 42/29/26
f 37/30/18 38/31/27 41/32/28 43/33/29 45/34/30 47/35/31 49/36/32 51/37/33 53/38/19
f 20/4/34 23/6/35 41/6/28 38/4/27
f 22/19/17 36/17/16 54/17/22 40/19/21
f 29/12/12 31/14/36 49/14/32 47/12/31
f 24/5/35 21/3/34 39/3/20 42/5/26
f 32/13/36 30/11/12 48/11/15 50/13/24
f 23/6/35 25/8/37 43/8/29 41/6/28
f 31/14/36 33/16/38 51/16/33 49/14/32
f 26/7/37 24/5/35 42/5/26 44/7/25
f 34/15/38 32/13/36 50/13/24 52/15/23
f 25/8/37 27/10/13 45/10/30 43/8/29
f 33/16/38 35/18/16 53/18/19 51/16/33
f 28/9/13 26/7/37 44/7/25 46/9/14
f 19/1/17 20/4/34 38/4/27 37/1/18
f 36/17/16 34/15/38 52/15/23 54/17/22
f 27/10/13 29/12/12 47/12/31 45/10/30
f 21/3/34 22/2/17 40/2/21 39/3/20
f 55/1/1 56/2/1 58/3/39 57/4/39
f 57/4/39 58/3/39 60/5/40 59/6/40
f 59/6/40 60/5/40 62/7/41 61/8/41
f 61/8/41 62/7/41 64/9/42 63/10/42
f 63/10/42 64/9/42 66/11/43 65/12/43
f 65/12/43 66/11/43 68/13/44 67/14/44
f 67/14/44 68/13/44 70/15/45 69/16/45
f 59/6/46 61/8/46 79/8/46 77/6/46
f 69/16/45 70/15/45 72/17/47 71/18/47
f 71/18/47 72/17/47 56/19/1 55/20/1
f 66/11/48 64/9/48 82/9/48 84/11/48
f 84/11/49 82/9/50 100/9/51 102/11/52
f 89/18/53 73/20/17 91/20/54 107/18/55
f 69/16/46 71/18/46 89/18/46 87/16/46
f 55/1/46 57/4/46 74/4/46 73/1/46
f 62/7/48 60/5/48 78/5/48 80/7/48
f 72/17/48 70/15/48 88/15/48 90/17/48
f 58/3/48 56/2/48 76/2/48 75/3/48
f 65/12/46 67/14/46 85/14/46 83/12/46
f 68/13/48 66/11/48 84/11/48 86/13/48
f 61/8/46 63/10/46 81/10/46 79/8/46
f 71/18/46 55/20/46 73/20/46 89/18/46
f 64/9/48 62/7/48 80/7/48 82/9/48
f 56/19/48 72/17/48 90/17/48 76/19/48
f 57/4/46 59/6/46 77/6/46 74/4/46
f 67/14/46 69/16/46 87/16/46 85/14/46
f 60/5/48 58/3/48 75/3/48 78/5/48
f 70/15/48 68/13/48 86/13/48 88/15/48
f 63/10/46 65/12/46 83/12/46 81/10/46
f 93/21/56 94/22/57 108/23/58 106/24/59 104/25/60 102/26/52 100/27/51 98/28/61 96/29/62
f 91/30/54 92/31/63 95/32/64 97/33/65 99/34/66 101/35/67 103/36/68 105/37/69 107/38/55
f 74/4/70 77/6/71 95/6/64 92/4/63
f 76/19/17 90/17/53 108/17/58 94/19/57
f 83/12/49 85/14/72 103/14/68 101/12/67
f 78/5/71 75/3/70 93/3/56 96/5/62
f 86/13/72 84/11/49 102/11/52 104/13/60
f 77/6/71 79/8/73 97/8/65 95/6/64
f 85/14/72 87/16/74 105/16/69 103/14/68
f 80/7/73 78/5/71 96/5/62 98/7/61
f 88/15/74 86/13/72 104/13/60 106/15/59
f 79/8/73 81/10/50 99/10/66 97/8/65
f 87/16/74 89/18/53 107/18/55 105/16/69
f 82/9/50 80/7/73 98/7/61 100/9/51
f 73/1/17 74/4/70 92/4/63 91/1/54
f 90/17/53 88/15/74 106/15/59 108/17/58
f 81/10/50 83/12/49 101/12/67 99/10/66
f 75/3/70 76/2/17 94/2/57 93/3/56
f 109/1/1 110/2/1 112/3/75 111/4/75
f 111/4/75 112/3/75 114/5/76 113/6/76
f 113/6/76 114/5/76 116/7/77 115/8/77
f 115/8/77 116/7/77 118/9/78 117/10/78
f 117/10/78 118/9/78 120/11/79 119/12/79
f 119/12/79 120/11/79 122/13/80 121/14/80
f 121/14/80 122/13/80 124/15/81 123/16/81
f 113/6/82 115/8/82 133/8/82 131/6/82
f 123/16/81 124/15/81 126/17/83 125/18/83
f 125/18/83 126/17/83 110/19/1 109/20/1
f 120/11/84 118/9/84 136/9/84 138/11/84
f 138/11/85 136/9/86 154/9/87 156/11/88
f 143/18/89 127/20/17 145/20/90 161/18/91
f 123/16/82 125/18/82 143/18/82 141/16/82
f 109/1/82 111/4/82 128/4/82 127/1/82
f 116/7/84 114/5/84 132/5/84 134/7/84
f 126/17/84 124/15/84 142/15/84 144/17/84
f 112/3/84 110/2/84 130/2/84 129/3/84
f 119/12/82 121/14/82 139/14/82 137/12/82
f 122/13/84 120/11/84 138/11/84 140/13/84
f 115/8/82 117/10/82 135/10/82 133/8/82
f 125/18/82 109/20/82 127/20/82 143/18/82
f 118/9/84 116/7/84 134/7/84 136/9/84
f 110/19/84 126/17/84 144/17/84 130/19/84
f 111/4/82 113/6/82 131/6/82 128/4/82
f 121/14/82 123/16/82 141/16/82 139/14/82
f 114/5/84 112/3/84 129/3/84 132/5/84
f 124/15/84 122/13/84 140/13/84 142/15/84
f 117/10/82 119/12/82 137/12/82 135/10/82
f 147/21/92 148/22/93 162/23/94 160/24/95 158/25/96 156/26/88 154/27/87 152/28/97 150/29/98
f 145/30/90 146/31/99 149/32/100 151/33/101 153/34/102 155/35/103 157/36/104 159/37/105 161/38/91
f 128/4/106 131/6/107 149/6/100 146/4/99
f 130/19/17 144/17/89 162/17/94 148/19/93
f 137/12/85 139/14/108 157/14/104 155/12/103
f 132/5/107 129/3/106 147/3/92 150/5/98
f 140/13/108 138/11/85 156/11/88 158/13/96
f 131/6/107 133/8/109 151/8/101 149/6/100
f 139/14/108 141/16/110 159/16/105 157/14/104
f 134/7/109 132/5/107 150/5/98 152/7/97
f 142/15/110 140/13/108 158/13/96 160/15/95
f 133/8/109 135/10/86 153/10/102 151/8/101
f 141/16/110 143/18/89 161/18/91 159/16/105
f 136/9/86 134/7/109 152/7/97 154/9/87
f 127/1/17 128/4/106 146/4/99 145/1/90
f 144/17/89 142/15/110 160/15/95 162/17/94
f 135/10/86 137/12/85 155/12/103 153/10/102
f 129/3/106 130/2/17 148/2/93 147/3/92
f 163/1/1 164/2/1 166/3/111 165/4/111
f 165/4/111 166/3/111 168/5/112 167/6/112
f 167/6/112 168/5/112 170/7/113 169/8/113
f 169/8/113 170/7/113 172/9/114 171/10/114
f 171/10/114 172/9/114 174/11/115 173/12/115
f 173/12/115 174/11/115 176/13/116 175/14/116
f 175/14/116 176/13/116 178/15/117 177/16/117
f 167/6/118 169/8/118 187/8/118 185/6/118
f 177/16/117 178/15/117 180/17/119 179/18/119
f 179/18/119 180/17/119 164/19/1 163/20/1
f 174/11/120 172/9/120 190/9/120 192/11/120
f 192/11/121 190/9/122 208/9/123 210/11/124
f 197/18/125 181/20/17 199/20/126 215/18/127
f 177/16/118 179/18/118 197/18/118 195/16/118
f 163/1/118 165/4/118 182/4/118 181/1/118
f 170/7/120 168/5/120 186/5/120 188/7/120
f 180/17/120 178/15/120 196/15/120 198/17/120
f 166/3/120 164/2/120 184/2/120 183/3/120
f 173/12/118 175/14/118 193/14/118 191/12/118
f 176/13/120 174/11/120 192/11/120 194/13/120
f 169/8/118 171/10/118 189/10/118 187/8/118
f 179/18/118 163/20/118 181/20/118 197/18/118
f 172/9/120 170/7/120 188/7/120 190/9/120
f 164/19/120 180/17/120 198/17/120 184/19/120
f 165/4/118 167/6/118 185/6/118 182/4/118
f 175/14/118 177/16/118 195/16/118 193/14/118
f 168/5/120 166/3/120 183/3/120 186/5/120
f 178/15/120 176/13/120 194/13/120 196/15/120
f 171/10/118 173/12/118 191/12/118 189/10/118
f 201/21/128 202/22/129 216/23/130 214/24/131 212/25/132 210/26/124 208/27/123 206/28/133 204/29/134
f 199/30/126 200/31/135 203/32/136 205/33/137 207/34/138 209/35/139 211/36/140 213/37/141 215/38/127
f 182/4/142 185/6/143 203/6/136 200/4/135
f 184/19/17 198/17/125 216/17/130 202/19/129
f 191/12/121 193/14/144 211/14/140 209/12/139
f 186/5/143 183/3/142 201/3/128 204/5/134
f 194/13/144 192/11/121 210/11/124 212/13/132
f 185/6/143 187/8/145 205/8/137 203/6/136
f 193/14/144 195/16/146 213/16/141 211/14/140
f 188/7/145 186/5/143 204/5/134 206/7/133
f 196/15/146 194/13/144 212/13/132 214/15/131
f 187/8/145 189/10/122 207/10/138 205/8/137
f 195/16/146 197/18/125 215/18/127 213/16/141
f 190/9/122 188/7/145 206/7/133 208/9/123
f 181/1/17 182/4/142 200/4/135 199/1/126
f 198/17/125 196/15/146 214/15/131 216/17/130
f 189/10/122 191/12/121 209/12/139 207/10/138
f 183/3/142 184/2/17 202/2/129 201/3/128
