# Blender 5.2.1 LTS
# www.blender.org
mtllib mortar2_head.mtl
o Cube
v -0.120000 0.000000 0.300000
v -0.300000 0.000000 0.120000
v -0.300000 0.209954 0.120000
v -0.120000 0.209954 0.300000
v -0.300000 0.000000 -0.120000
v -0.120000 0.000000 -0.300000
v -0.120000 0.209954 -0.300000
v -0.300000 0.209954 -0.120000
v 0.300000 0.000000 0.120000
v 0.120000 0.000000 0.300000
v 0.120000 0.209954 0.300000
v 0.300000 0.209954 0.120000
v 0.120000 0.000000 -0.300000
v 0.300000 0.000000 -0.120000
v 0.300000 0.209954 -0.120000
v 0.120000 0.209954 -0.300000
v 0.180000 0.209954 -0.240000
v 0.240000 0.209954 -0.180000
v 0.240000 0.000000 -0.180000
v 0.180000 0.000000 -0.240000
v 0.240000 0.209954 0.180000
v 0.180000 0.209954 0.240000
v 0.180000 0.000000 0.240000
v 0.240000 0.000000 0.180000
v -0.240000 0.000000 0.180000
v -0.180000 0.000000 0.240000
v -0.180000 0.209954 0.240000
v -0.240000 0.209954 0.180000
v -0.240000 0.209954 -0.180000
v -0.180000 0.209954 -0.240000
v -0.180000 0.000000 -0.240000
v -0.240000 0.000000 -0.180000
v -0.120000 0.108350 0.300000
v -0.300000 0.108350 0.120000
v -0.120000 0.108350 -0.300000
v -0.300000 0.108350 -0.120000
v 0.300000 0.108350 -0.120000
v 0.120000 0.108350 -0.300000
v 0.120000 0.108350 0.300000
v 0.300000 0.108350 0.120000
v 0.240000 0.108350 -0.180000
v 0.180000 0.108350 -0.240000
v 0.180000 0.108350 0.240000
v 0.240000 0.108350 0.180000
v -0.180000 0.108350 0.240000
v -0.240000 0.108350 0.180000
v -0.180000 0.108350 -0.240000
v -0.240000 0.108350 -0.180000
v 0.352085 0.000000 -0.264064
v 0.264064 0.000000 -0.352085
v 0.264064 0.000000 0.352085
v 0.352085 0.000000 0.264064
v -0.352085 0.000000 0.264064
v -0.264064 0.000000 0.352085
v -0.264064 0.057621 0.352085
v -0.352085 0.057621 0.264064
v -0.264064 0.000000 -0.352085
v -0.352085 0.000000 -0.264064
v 0.352085 0.057621 -0.264064
v 0.264064 0.057621 -0.352085
v 0.264064 0.057621 0.352085
v 0.352085 0.057621 0.264064
v -0.264064 0.057621 -0.352085
v -0.352085 0.057621 -0.264064
v -0.190177 0.209954 0.142633
v -0.237721 0.209954 0.095088
v -0.142633 0.209954 -0.190177
v -0.095088 0.209954 -0.237721
v 0.190177 0.209954 -0.142633
v 0.237721 0.209954 -0.095088
v 0.142633 0.209954 0.190177
v 0.095088 0.209954 0.237721
v -0.237721 0.209954 -0.095088
v -0.095088 0.209954 0.237721
v 0.237721 0.209954 0.095088
v 0.095088 0.209954 -0.237721
v 0.142633 0.209954 -0.190177
v 0.190177 0.209954 0.142633
v -0.142633 0.209954 0.190177
v -0.190177 0.209954 -0.142633
v -0.190177 0.130294 0.142633
v -0.237721 0.130294 0.095088
v -0.142633 0.130294 -0.190177
v -0.095088 0.130294 -0.237721
v 0.190177 0.130294 -0.142633
v 0.237721 0.130294 -0.095088
v 0.142633 0.130294 0.190177
v 0.095088 0.130294 0.237721
v -0.237721 0.130294 -0.095088
v -0.095088 0.130294 0.237721
v 0.237721 0.130294 0.095088
v 0.095088 0.130294 -0.237721
v 0.142633 0.130294 -0.190177
v 0.190177 0.130294 0.142633
v -0.142633 0.130294 0.190177
v -0.190177 0.130294 -0.142633
vn -0.7071 -0.0000 0.7071
vn -0.9239 -0.0000 0.3827
vn -0.7071 -0.0000 -0.7071
vn -0.9239 -0.0000 -0.3827
vn 0.7071 -0.0000 -0.7071
vn 0.3827 -0.0000 -0.9239
vn 0.7071 -0.0000 0.7071
vn 0.9239 -0.0000 0.3827
vn 0.3827 -0.0000 0.9239
vn -0.3827 -0.0000 0.9239
vn -0.0000 1.0000 -0.0000
vn -0.3827 -0.0000 -0.9239
vn 0.9239 -0.0000 -0.3827
vn -0.8000 -0.0000 0.6000
vn -0.8000 -0.0000 -0.6000
vn -0.2429 0.9392 -0.2429
vn -0.0000 -1.0000 -0.0000
vn -0.2429 0.9392 0.2429
vn 0.6000 -0.0000 -0.8000
vn 0.2429 0.9392 0.2429
vn 0.8000 -0.0000 -0.6000
vn 0.8000 -0.0000 0.6000
vn 0.2429 0.9392 -0.2429
vn -0.6000 -0.0000 0.8000
vn -0.6000 -0.0000 -0.8000
vn 0.6000 -0.0000 0.8000
vn -0.7173 0.6303 0.2971
vn -0.7173 0.6303 -0.2971
vn -0.5000 0.7071 0.5000
vn -0.2971 0.6303 0.7173
vn 0.2971 0.6303 0.7173
vn 0.5000 0.7071 0.5000
vn 0.7173 0.6303 0.2971
vn 0.7173 0.6303 -0.2971
vn 0.5000 0.7071 -0.5000
vn 0.2971 0.6303 -0.7173
vn -0.2971 0.6303 -0.7173
vn -0.5000 0.7071 -0.5000
vt 0.500000 0.050000
vt 0.625000 0.050000
vt 0.625000 0.075000
vt 0.500000 0.075000
vt 0.500000 0.225000
vt 0.375000 0.225000
vt 0.375000 0.175000
vt 0.500000 0.175000
vt 0.508333 0.483333
vt 0.375000 0.475000
vt 0.375000 0.425000
vt 0.512500 0.437500
vt 0.504167 0.720833
vt 0.375000 0.725000
vt 0.375000 0.675000
vt 0.500000 0.675000
vt 0.625000 0.175000
vt 0.512500 0.812500
vt 0.650000 0.800000
vt 0.625000 0.925000
vt 0.500000 0.925000
vt 0.633333 0.716667
vt 0.625000 0.675000
vt 0.500000 0.325000
vt 0.625000 0.325000
vt 0.650000 0.450000
vt 0.500000 0.575000
vt 0.625000 0.575000
vt 0.375000 0.575000
vt 0.375000 0.525000
vt 0.504167 0.529167
vt 0.508333 0.766667
vt 0.375000 0.775000
vt 0.375000 0.825000
vt 0.500000 0.000000
vt 0.625000 0.000000
vt 0.625000 0.025000
vt 0.500000 0.025000
vt 0.375000 0.325000
vt 0.375000 0.275000
vt 0.500000 0.275000
vt 0.625000 0.275000
vt 0.625000 0.225000
vt 0.000000 0.000000
vt 0.375000 0.000000
vt 0.375000 0.025000
vt 0.641667 0.758333
vt 0.633333 0.533333
vt 0.641667 0.491667
vt 0.375000 0.925000
vt 0.375000 0.075000
vt 0.375000 0.050000
vt 0.800000 0.500000
vt 0.825000 0.525000
vt 0.850000 0.550000
vt 0.875000 0.575000
vt 0.875000 0.675000
vt 0.850000 0.700000
vt 0.825000 0.725000
vt 0.800000 0.750000
s 1
f 46/1/1 28/2/1 3/3/2 34/4/2
f 48/5/3 32/6/3 5/7/4 36/8/4
f 42/9/5 20/10/5 13/11/6 38/12/6
f 44/13/7 24/14/7 9/15/8 40/16/8
f 34/4/2 3/3/2 8/17/4 36/8/4
f 39/18/9 11/19/9 4/20/10 33/21/10
f 21/22/11 12/23/11 75/23/11 78/22/11
f 35/24/12 7/25/12 16/26/6 38/12/6
f 37/27/13 15/28/13 12/23/8 40/16/8
f 37/27/13 14/29/13 19/30/5 41/31/5
f 43/32/14 23/33/14 51/33/14 61/32/14
f 39/18/9 10/34/9 23/33/7 43/32/7
f 20/10/15 42/9/15 60/9/15 50/10/15
f 33/35/10 4/36/10 27/37/1 45/38/1
f 45/38/1 27/37/1 28/2/1 46/1/1
f 35/24/12 6/39/12 31/40/3 47/41/3
f 48/5/16 47/41/16 63/41/16 64/5/16
f 30/42/3 47/41/3 48/5/3 29/43/3
f 7/25/12 35/24/12 47/41/3 30/42/3
f 19/44/17 20/44/17 50/44/17 49/44/17
f 1/45/10 33/35/10 45/38/1 26/46/1
f 22/47/7 43/32/7 44/13/7 21/22/7
f 11/19/9 39/18/9 43/32/7 22/47/7
f 18/48/5 41/31/5 42/9/5 17/49/5
f 15/28/13 37/27/13 41/31/5 18/48/5
f 14/29/13 37/27/13 40/16/8 9/15/8
f 6/39/12 35/24/12 38/12/6 13/11/6
f 10/34/9 39/18/9 33/21/10 1/50/10
f 2/51/2 34/4/2 36/8/4 5/7/4
f 21/22/7 44/13/7 40/16/8 12/23/8
f 17/49/5 42/9/5 38/12/6 16/26/6
f 29/43/3 48/5/3 36/8/4 8/17/4
f 25/52/1 46/1/1 34/4/2 2/51/2
f 59/31/5 49/30/5 50/10/5 60/9/5
f 61/32/7 51/33/7 52/14/7 62/13/7
f 63/41/3 57/40/3 58/6/3 64/5/3
f 54/46/1 55/38/1 56/1/1 53/52/1
f 45/38/18 46/1/18 56/1/18 55/38/18
f 24/14/19 44/13/19 62/13/19 52/14/19
f 25/44/17 26/44/17 54/44/17 53/44/17
f 31/44/17 32/44/17 58/44/17 57/44/17
f 44/13/20 43/32/20 61/32/20 62/13/20
f 47/41/21 31/40/21 57/40/21 63/41/21
f 26/46/22 45/38/22 55/38/22 54/46/22
f 42/9/23 41/31/23 59/31/23 60/9/23
f 23/44/17 24/44/17 52/44/17 51/44/17
f 32/6/24 48/5/24 64/5/24 58/6/24
f 46/1/25 25/52/25 53/52/25 56/1/25
f 41/31/26 19/30/26 49/30/26 59/31/26
f 75/23/4 70/28/2 86/28/27 91/23/28
f 15/28/11 18/48/11 69/48/11 70/28/11
f 27/37/11 4/36/11 74/36/11 79/37/11
f 22/47/11 21/22/11 78/22/11 71/47/11
f 17/49/11 16/26/11 76/26/11 77/49/11
f 28/2/11 27/37/11 79/37/11 65/2/11
f 3/3/11 28/2/11 65/2/11 66/3/11
f 8/17/11 3/3/11 66/3/11 73/17/11
f 18/48/11 17/49/11 77/49/11 69/48/11
f 7/25/11 30/42/11 67/42/11 68/25/11
f 4/20/11 11/19/11 72/19/11 74/20/11
f 11/19/11 22/47/11 71/47/11 72/19/11
f 29/43/11 8/17/11 73/17/11 80/43/11
f 12/23/11 15/28/11 70/28/11 75/23/11
f 30/42/11 29/43/11 80/43/11 67/42/11
f 16/26/11 7/25/11 68/25/11 76/26/11
f 86/28/27 85/48/29 93/49/29 92/26/30 84/53/31 83/54/32 96/55/32 89/56/33 82/57/34 81/58/35 95/59/35 90/60/36 88/19/37 87/47/38 94/22/38 91/23/28
f 80/43/7 73/17/8 89/17/33 96/43/32
f 76/26/10 68/25/9 84/25/31 92/26/30
f 66/3/13 65/2/5 81/2/35 82/3/34
f 67/42/7 80/43/7 96/43/32 83/42/32
f 77/49/1 76/26/10 92/26/30 93/49/29
f 68/25/9 67/42/7 83/42/32 84/25/31
f 69/48/1 77/49/1 93/49/29 85/48/29
f 70/28/2 69/48/1 85/48/29 86/28/27
f 78/22/3 75/23/4 91/23/28 94/22/38
f 72/19/12 71/47/3 87/47/38 88/19/37
f 71/47/3 78/22/3 94/22/38 87/47/38
f 73/17/8 66/3/13 82/3/34 89/17/33
f 79/37/5 74/36/6 90/36/36 95/37/35
f 74/20/6 72/19/12 88/19/37 90/20/36
f 65/2/5 79/37/5 95/37/35 81/2/35
