# Blender 5.2.1 LTS
# www.blender.org
mtllib mortar3a_head.mtl
o Cube
v -0.300000 0.000000 0.300000
v -0.296135 0.300000 0.300000
v -0.300000 0.000000 -0.300000
v -0.300000 0.100000 -0.300000
v 0.300000 0.000000 0.300000
v -0.243623 0.412466 0.399691
v 0.300000 0.000000 -0.300000
v 0.300000 0.100000 -0.300000
v -0.296135 1.058947 0.047018
v -0.300000 0.858947 -0.552982
v 0.300000 0.858947 -0.552982
v 0.243623 0.412466 0.399691
v 0.300000 0.363246 0.489737
v -0.300000 0.363246 0.489737
v 0.300000 1.122192 0.236754
v -0.300000 1.122192 0.236754
v -0.243623 1.028788 0.194250
v -0.413801 0.415294 0.261569
v 0.243623 1.028788 0.194250
v -0.413801 0.215294 -0.338431
v 0.413801 0.215294 -0.338431
v 0.336037 0.528185 0.434757
v 0.413801 0.415294 0.261569
v 0.296135 0.300000 0.300000
v -0.413801 0.943653 0.085449
v 0.336037 0.957252 0.291734
v -0.413801 0.743653 -0.514551
v -0.336037 0.957252 0.291734
v -0.336037 0.528185 0.434757
v 0.413801 0.743653 -0.514551
v 0.296135 1.058947 0.047018
v 0.413801 0.943653 0.085449
v 0.413801 1.006898 0.275186
v -0.243623 1.050880 0.260525
v 0.243623 1.050880 0.260525
v 0.413801 0.478539 0.451305
v -0.413801 0.478539 0.451305
v -0.243623 0.434558 0.465966
v 0.243623 0.434558 0.465966
v -0.413801 1.006898 0.275186
v 0.336037 0.935161 0.225459
v 0.336037 0.506094 0.368482
v -0.336037 0.935161 0.225459
v -0.336037 0.506094 0.368482
vn -1.0000 0.0097 0.0016
vn -0.0000 -0.0000 -1.0000
vn 1.0000 0.0097 0.0016
vn -0.0000 -0.0000 1.0000
vn -0.0000 0.9487 -0.3162
vn -0.0000 -0.3162 -0.9487
vn -0.0000 0.3162 0.9487
vn -0.0000 -0.9487 0.3162
vn -0.7242 -0.6535 0.2202
vn 0.7242 -0.6535 0.2202
vn -0.7242 0.6549 -0.2160
vn 0.7242 0.6549 -0.2160
vn -0.7242 -0.6564 0.2114
vn -0.7242 0.6520 -0.2247
vn 0.7241 -0.6564 0.2114
vn 0.7242 0.6520 -0.2247
vn 0.7299 -0.6484 0.2161
vn -1.0000 -0.0000 -0.0000
vn 1.0000 -0.0000 -0.0000
vn 0.7299 0.6484 -0.2161
vn -0.7299 0.6484 -0.2161
vn -0.7299 -0.6484 0.2161
vt 0.375000 0.000000
vt 0.625000 0.000000
vt 0.625000 0.250000
vt 0.375000 0.250000
vt 0.625000 0.500000
vt 0.375000 0.500000
vt 0.625000 0.750000
vt 0.375000 0.750000
vt 0.625000 1.000000
vt 0.375000 1.000000
vt 0.875000 0.500000
vt 0.875000 0.750000
vt 0.625000 0.000000
s 0
f 1/1/1 2/2/1 4/3/1 3/4/1
f 3/4/2 4/3/2 8/5/2 7/6/2
f 7/6/3 8/5/3 24/7/3 5/8/3
f 5/8/4 24/7/4 2/9/4 1/10/4
f 11/5/5 10/11/5 9/12/5 31/7/5
f 8/5/6 4/3/6 10/3/6 11/5/6
f 31/7/5 9/12/5 16/12/5 15/7/5
f 40/2/7 37/2/7 29/2/7 28/2/7
f 2/9/8 24/7/8 13/7/8 14/9/8
f 18/2/9 20/3/9 4/3/9 2/13/9
f 21/5/10 23/7/10 24/7/10 8/5/10
f 9/2/11 10/3/11 27/3/11 25/2/11
f 11/5/12 31/7/12 32/7/12 30/5/12
f 2/13/13 14/2/13 37/2/13 18/2/13
f 16/2/14 9/2/14 25/2/14 40/2/14
f 23/7/15 36/7/15 13/7/15 24/7/15
f 31/7/16 15/7/16 33/7/16 32/7/16
f 34/2/17 28/2/17 43/2/17 17/2/17
f 20/3/18 18/2/18 25/2/18 27/3/18
f 12/7/7 42/7/7 41/7/7 19/7/7 17/9/7 43/9/7 44/9/7 6/9/7
f 25/2/18 18/2/18 37/2/18 40/2/18
f 10/3/6 4/3/6 20/3/6 27/3/6
f 23/7/19 21/5/19 30/5/19 32/7/19
f 8/5/6 11/5/6 30/5/6 21/5/6
f 37/2/7 14/2/7 38/2/7 29/2/7
f 23/7/19 32/7/19 33/7/19 36/7/19
f 15/7/7 16/12/7 34/12/7 35/7/7
f 13/7/7 36/7/7 22/7/7 39/7/7
f 14/9/7 13/7/7 39/7/7 38/9/7
f 16/2/7 40/2/7 28/2/7 34/2/7
f 33/7/7 15/7/7 35/7/7 26/7/7
f 36/7/7 33/7/7 26/7/7 22/7/7
f 22/7/18 26/7/18 41/7/18 42/7/18
f 35/7/8 34/12/8 17/12/8 19/7/8
f 28/2/19 29/2/19 44/2/19 43/2/19
f 29/2/20 38/2/20 6/2/20 44/2/20
f 38/9/5 39/7/5 12/7/5 6/9/5
f 39/7/21 22/7/21 42/7/21 12/7/21
f 26/7/22 35/7/22 19/7/22 41/7/22
