# Blender 5.2.1 LTS
# www.blender.org
mtllib mortar3a_barrel.mtl
o Cone
v 0.150789 -0.085238 -0.244857
v 0.250381 -0.085238 -0.072359
v 0.111458 -0.085238 -0.021795
v 0.051198 -0.085238 -0.072359
v 0.076870 -0.085238 -0.217953
v 0.037538 -0.085238 -0.149828
v 0.190121 -0.085238 -0.021795
v 0.264041 -0.085238 -0.149828
v 0.224709 -0.085238 -0.217953
v 0.096293 0.021337 -0.194805
v 0.129549 0.074545 -0.155172
v 0.067296 0.021337 -0.144581
v 0.118247 0.074545 -0.135597
v 0.077367 0.021337 -0.087468
v 0.122172 0.074545 -0.113336
v 0.121793 0.021337 -0.050190
v 0.139487 0.074545 -0.098807
v 0.179786 0.021337 -0.050190
v 0.162091 0.074545 -0.098807
v 0.224212 0.021337 -0.087468
v 0.179407 0.074545 -0.113336
v 0.234283 0.021337 -0.144581
v 0.183332 0.074545 -0.135597
v 0.205286 0.021337 -0.194805
v 0.172030 0.074545 -0.155172
v 0.150789 0.021337 -0.214640
v 0.150789 0.074545 -0.162903
v -0.150789 -0.085238 -0.244857
v -0.250381 -0.085238 -0.072359
v -0.111458 -0.085238 -0.021795
v -0.051198 -0.085238 -0.072359
v -0.076870 -0.085238 -0.217953
v -0.037538 -0.085238 -0.149828
v -0.190121 -0.085238 -0.021795
v -0.264041 -0.085238 -0.149828
v -0.224709 -0.085238 -0.217953
v -0.096293 0.021337 -0.194805
v -0.129549 0.074545 -0.155172
v -0.067296 0.021337 -0.144581
v -0.118247 0.074545 -0.135597
v -0.077367 0.021337 -0.087468
v -0.122172 0.074545 -0.113336
v -0.121793 0.021337 -0.050190
v -0.139487 0.074545 -0.098807
v -0.179786 0.021337 -0.050190
v -0.162091 0.074545 -0.098807
v -0.224212 0.021337 -0.087468
v -0.179407 0.074545 -0.113336
v -0.234283 0.021337 -0.144581
v -0.183332 0.074545 -0.135597
v -0.205286 0.021337 -0.194805
v -0.172030 0.074545 -0.155172
v -0.150789 0.021337 -0.214640
v -0.150789 0.074545 -0.162903
v 0.150789 -0.085238 0.244857
v 0.250381 -0.085238 0.072359
v 0.111458 -0.085238 0.021795
v 0.051198 -0.085238 0.072359
v 0.076870 -0.085238 0.217953
v 0.037538 -0.085238 0.149828
v 0.190121 -0.085238 0.021795
v 0.264041 -0.085238 0.149828
v 0.224709 -0.085238 0.217953
v 0.096293 0.021337 0.194805
v 0.129549 0.074545 0.155172
v 0.067296 0.021337 0.144581
v 0.118247 0.074545 0.135597
v 0.077367 0.021337 0.087468
v 0.122172 0.074545 0.113336
v 0.121793 0.021337 0.050190
v 0.139487 0.074545 0.098807
v 0.179786 0.021337 0.050190
v 0.162091 0.074545 0.098807
v 0.224212 0.021337 0.087468
v 0.179407 0.074545 0.113336
v 0.234283 0.021337 0.144581
v 0.183332 0.074545 0.135597
v 0.205286 0.021337 0.194805
v 0.172030 0.074545 0.155172
v 0.150789 0.021337 0.214640
v 0.150789 0.074545 0.162903
v -0.150789 -0.085238 0.244857
v -0.250381 -0.085238 0.072359
v -0.111458 -0.085238 0.021795
v -0.051198 -0.085238 0.072359
v -0.076870 -0.085238 0.217953
v -0.037538 -0.085238 0.149828
v -0.190121 -0.085238 0.021795
v -0.264041 -0.085238 0.149828
v -0.224709 -0.085238 0.217953
v -0.096293 0.021337 0.194805
v -0.129549 0.074545 0.155172
v -0.067296 0.021337 0.144581
v -0.118247 0.074545 0.135597
v -0.077367 0.021337 0.087468
v -0.122172 0.074545 0.113336
v -0.121793 0.021337 0.050190
v -0.139487 0.074545 0.098807
v -0.179786 0.021337 0.050190
v -0.162091 0.074545 0.098807
v -0.224212 0.021337 0.087468
v -0.179407 0.074545 0.113336
v -0.234283 0.021337 0.144581
v -0.183332 0.074545 0.135597
v -0.205286 0.021337 0.194805
v -0.172030 0.074545 0.155172
v -0.150789 0.021337 0.214640
v -0.150789 0.074545 0.162903
vn -0.0000 0.2728 -0.9621
vn 0.8332 0.2728 0.4810
vn -0.3290 0.2728 0.9041
vn -0.8332 0.2728 0.4810
vn -0.6184 0.2728 -0.7370
vn -0.9475 0.2728 -0.1671
vn 0.3290 0.2728 0.9041
vn 0.9475 0.2728 -0.1671
vn 0.6184 0.2728 -0.7370
vn -0.5645 0.4783 -0.6727
vn -0.2940 0.8893 -0.3503
vn -0.8648 0.4783 -0.1525
vn -0.4504 0.8893 -0.0794
vn -0.7605 0.4783 0.4391
vn -0.3961 0.8893 0.2287
vn -0.3004 0.4783 0.8252
vn -0.1564 0.8893 0.4298
vn 0.3004 0.4783 0.8252
vn 0.1564 0.8893 0.4298
vn 0.7605 0.4783 0.4391
vn 0.3961 0.8893 0.2287
vn 0.8648 0.4783 -0.1525
vn 0.4504 0.8893 -0.0794
vn 0.5645 0.4783 -0.6727
vn 0.2940 0.8893 -0.3503
vn -0.0000 0.4783 -0.8782
vn -0.0000 0.8893 -0.4573
vn -0.0000 0.2728 0.9621
vn 0.8332 0.2728 -0.4810
vn -0.3290 0.2728 -0.9041
vn -0.8332 0.2728 -0.4810
vn -0.6184 0.2728 0.7370
vn -0.9475 0.2728 0.1671
vn 0.3290 0.2728 -0.9041
vn 0.9475 0.2728 0.1671
vn 0.6184 0.2728 0.7370
vn -0.5645 0.4783 0.6727
vn -0.2940 0.8893 0.3503
vn -0.8648 0.4783 0.1525
vn -0.4504 0.8893 0.0794
vn -0.7605 0.4783 -0.4391
vn -0.3961 0.8893 -0.2287
vn -0.3004 0.4783 -0.8252
vn -0.1564 0.8893 -0.4298
vn 0.3004 0.4783 -0.8252
vn 0.1564 0.8893 -0.4298
vn 0.7605 0.4783 -0.4391
vn 0.3961 0.8893 -0.2287
vn 0.8648 0.4783 0.1525
vn 0.4504 0.8893 0.0794
vn 0.5645 0.4783 0.6727
vn 0.2940 0.8893 0.3503
vn -0.0000 0.4783 0.8782
vn -0.0000 0.8893 0.4573
vt 0.136102 0.337821
vt 0.116996 0.304728
vt 0.156035 0.270101
vt 0.190939 0.325798
vt 0.106299 0.244063
vt 0.112934 0.206431
vt 0.165097 0.204999
vt 0.143735 0.153082
vt 0.173007 0.128520
vt 0.213887 0.160953
vt 0.230894 0.107451
vt 0.269106 0.107451
vt 0.279575 0.158573
vt 0.326992 0.128520
vt 0.356265 0.153082
vt 0.331424 0.198973
vt 0.387066 0.206431
vt 0.393701 0.244063
vt 0.345174 0.263249
vt 0.383004 0.304728
vt 0.363898 0.337821
vt 0.314391 0.321326
vt 0.316709 0.377417
vt 0.280801 0.390487
vt 0.253479 0.346029
vt 0.219199 0.390487
vt 0.183291 0.377417
vt 0.095734 0.433847
vt 0.250000 0.490000
vt 0.250000 0.489995
vt 0.404269 0.433851
vt 0.404266 0.433847
vt 0.486354 0.291676
vt 0.486349 0.291675
vt 0.457846 0.130000
vt 0.457841 0.130003
vt 0.332085 0.024474
vt 0.332083 0.024479
vt 0.167915 0.024474
vt 0.167917 0.024479
vt 0.042154 0.130000
vt 0.042159 0.130003
vt 0.013646 0.291676
vt 0.013651 0.291675
vt 0.095731 0.433851
s 1
f 10/1/10 12/2/12 13/3/13 11/4/11
f 12/5/12 14/6/14 15/7/15 13/3/13
f 14/8/14 16/9/16 17/10/17 15/7/15
f 16/11/16 18/12/18 19/13/19 17/10/17
f 18/14/18 20/15/20 21/16/21 19/13/19
f 20/17/20 22/18/22 23/19/23 21/16/21
f 22/20/22 24/21/24 25/22/25 23/19/23
f 24/23/24 26/24/26 27/25/27 25/22/25
f 26/26/26 10/27/10 11/4/11 27/25/27
f 11/4/11 13/3/13 15/7/15 17/10/17 19/13/19 21/16/21 23/19/23 25/22/25 27/25/27
f 5/28/5 10/27/10 26/26/26 1/29/1
f 1/30/1 26/24/26 24/23/24 9/31/9
f 9/32/9 24/21/24 22/20/22 8/33/8
f 8/34/8 22/18/22 20/17/20 2/35/2
f 2/36/2 20/15/20 18/14/18 7/37/7
f 7/38/7 18/12/18 16/11/16 3/39/3
f 3/40/3 16/9/16 14/8/14 4/41/4
f 4/42/4 14/6/14 12/5/12 6/43/6
f 6/44/6 12/2/12 10/1/10 5/45/5
f 37/1/24 38/4/25 40/3/23 39/2/22
f 39/5/22 40/3/23 42/7/21 41/6/20
f 41/8/20 42/7/21 44/10/19 43/9/18
f 43/11/18 44/10/19 46/13/17 45/12/16
f 45/14/16 46/13/17 48/16/15 47/15/14
f 47/17/14 48/16/15 50/19/13 49/18/12
f 49/20/12 50/19/13 52/22/11 51/21/10
f 51/23/10 52/22/11 54/25/27 53/24/26
f 53/26/26 54/25/27 38/4/25 37/27/24
f 38/4/25 54/25/27 52/22/11 50/19/13 48/16/15 46/13/17 44/10/19 42/7/21 40/3/23
f 32/28/9 28/29/1 53/26/26 37/27/24
f 28/30/1 36/31/5 51/23/10 53/24/26
f 36/32/5 35/33/6 49/20/12 51/21/10
f 35/34/6 29/35/4 47/17/14 49/18/12
f 29/36/4 34/37/3 45/14/16 47/15/14
f 34/38/3 30/39/7 43/11/18 45/12/16
f 30/40/7 31/41/2 41/8/20 43/9/18
f 31/42/2 33/43/8 39/5/22 41/6/20
f 33/44/8 32/45/9 37/1/24 39/2/22
f 64/1/37 65/4/38 67/3/40 66/2/39
f 66/5/39 67/3/40 69/7/42 68/6/41
f 68/8/41 69/7/42 71/10/44 70/9/43
f 70/11/43 71/10/44 73/13/46 72/12/45
f 72/14/45 73/13/46 75/16/48 74/15/47
f 74/17/47 75/16/48 77/19/50 76/18/49
f 76/20/49 77/19/50 79/22/52 78/21/51
f 78/23/51 79/22/52 81/25/54 80/24/53
f 80/26/53 81/25/54 65/4/38 64/27/37
f 65/4/38 81/25/54 79/22/52 77/19/50 75/16/48 73/13/46 71/10/44 69/7/42 67/3/40
f 59/28/32 55/29/28 80/26/53 64/27/37
f 55/30/28 63/31/36 78/23/51 80/24/53
f 63/32/36 62/33/35 76/20/49 78/21/51
f 62/34/35 56/35/29 74/17/47 76/18/49
f 56/36/29 61/37/34 72/14/45 74/15/47
f 61/38/34 57/39/30 70/11/43 72/12/45
f 57/40/30 58/41/31 68/8/41 70/9/43
f 58/42/31 60/43/33 66/5/39 68/6/41
f 60/44/33 59/45/32 64/1/37 66/2/39
f 91/1/51 93/2/49 94/3/50 92/4/52
f 93/5/49 95/6/47 96/7/48 94/3/50
f 95/8/47 97/9/45 98/10/46 96/7/48
f 97/11/45 99/12/43 100/13/44 98/10/46
f 99/14/43 101/15/41 102/16/42 100/13/44
f 101/17/41 103/18/39 104/19/40 102/16/42
f 103/20/39 105/21/37 106/22/38 104/19/40
f 105/23/37 107/24/53 108/25/54 106/22/38
f 107/26/53 91/27/51 92/4/52 108/25/54
f 92/4/52 94/3/50 96/7/48 98/10/46 100/13/44 102/16/42 104/19/40 106/22/38 108/25/54
f 86/28/36 91/27/51 107/26/53 82/29/28
f 82/30/28 107/24/53 105/23/37 90/31/32
f 90/32/32 105/21/37 103/20/39 89/33/33
f 89/34/33 103/18/39 101/17/41 83/35/31
f 83/36/31 101/15/41 99/14/43 88/37/30
f 88/38/30 99/12/43 97/11/45 84/39/34
f 84/40/34 97/9/45 95/8/47 85/41/29
f 85/42/29 95/6/47 93/5/49 87/43/35
f 87/44/35 93/2/49 91/1/51 86/45/36
