# Blender 5.2.1 LTS
# www.blender.org
mtllib cannon2_head.mtl
o Head
v -0.300000 0.000000 0.300000
v -0.300000 -0.000000 -0.300000
v -0.300000 0.400000 -0.300000
v -0.300000 0.120000 0.300000
v -0.300000 0.400000 0.020000
v -0.030000 -0.000000 -0.300000
v -0.230000 -0.000000 -0.300000
v -0.230000 0.400000 -0.300000
v -0.030000 0.400000 -0.300000
v -0.230000 0.000000 0.300000
v -0.030000 0.000000 0.300000
v -0.030000 0.400000 0.020000
v -0.230000 0.400000 0.020000
v -0.230000 0.120000 0.300000
v -0.030000 0.120000 0.300000
v -0.300000 0.400000 -0.090000
v -0.030000 0.400000 -0.090000
v -0.230000 0.400000 -0.090000
v -0.030000 0.120000 0.020000
v -0.230000 0.120000 0.020000
v -0.030000 0.120000 -0.090000
v -0.230000 0.120000 -0.090000
v -0.331473 0.029350 -0.260535
v -0.331473 0.029350 0.269821
v -0.331473 0.382921 -0.260535
v -0.331473 0.123814 0.269821
v -0.331473 0.382921 -0.074911
v -0.331473 0.382921 0.010714
v -0.300000 0.370483 0.155777
v -0.300000 0.261614 0.269214
v -0.230000 0.370431 0.156018
v -0.230000 0.261631 0.269211
v -0.030000 0.261631 0.269211
v -0.030000 0.370431 0.156018
v -0.331473 0.250017 0.243868
v -0.331473 0.358276 0.130552
v 0.300000 0.000000 0.300000
v 0.300000 -0.000000 -0.300000
v 0.300000 0.400000 -0.300000
v 0.300000 0.120000 0.300000
v 0.300000 0.400000 0.020000
v 0.030000 -0.000000 -0.300000
v 0.230000 -0.000000 -0.300000
v 0.230000 0.400000 -0.300000
v 0.030000 0.400000 -0.300000
v 0.230000 0.000000 0.300000
v 0.030000 0.000000 0.300000
v 0.030000 0.400000 0.020000
v 0.230000 0.400000 0.020000
v 0.230000 0.120000 0.300000
v 0.030000 0.120000 0.300000
v 0.300000 0.400000 -0.090000
v 0.030000 0.400000 -0.090000
v 0.230000 0.400000 -0.090000
v 0.030000 0.120000 0.020000
v 0.230000 0.120000 0.020000
v 0.030000 0.120000 -0.090000
v 0.230000 0.120000 -0.090000
v 0.331473 0.029350 -0.260535
v 0.331473 0.029350 0.269821
v 0.331473 0.382921 -0.260535
v 0.331473 0.123814 0.269821
v 0.331473 0.382921 -0.074911
v 0.331473 0.382921 0.010714
v 0.300000 0.370483 0.155777
v 0.300000 0.261614 0.269214
v 0.230000 0.370431 0.156018
v 0.230000 0.261631 0.269211
v 0.030000 0.261631 0.269211
v 0.030000 0.370431 0.156018
v 0.331473 0.250017 0.243868
v 0.331473 0.358276 0.130552
vn -0.0000 -1.0000 -0.0000
vn -0.0000 -0.0000 1.0000
vn -0.0000 0.0712 0.9975
vn -0.0000 0.1068 0.9943
vn -0.0000 1.0000 -0.0000
vn -0.0000 0.9943 0.1068
vn -0.0000 -0.0000 -1.0000
vn 0.0012 0.4881 0.8728
vn -0.0012 0.4881 0.8728
vn -0.0012 0.8818 0.4715
vn 0.0012 0.8818 0.4715
vn 1.0000 -0.0000 -0.0000
vn -1.0000 -0.0000 -0.0000
vn -0.4889 0.8663 0.1024
vn -0.4770 0.8789 -0.0000
vn -0.4866 0.8700 0.0791
vn -0.6921 -0.0000 0.7218
vn -0.6818 0.0694 0.7283
vn -0.6789 0.0851 0.7292
vn -0.6820 -0.7313 -0.0000
vn -0.7818 -0.0000 -0.6235
vn -0.0005 0.4880 0.8729
vn -0.0005 0.4881 0.8728
vn -0.0005 0.8822 0.4708
vn -0.0005 0.8828 0.4698
vn -0.6025 0.6808 0.4165
vn -0.5656 0.7579 0.3251
vn -0.6678 0.3705 0.6456
vn -0.6687 0.3570 0.6523
vn 0.4889 0.8663 0.1024
vn 0.4866 0.8700 0.0791
vn 0.4770 0.8789 -0.0000
vn 0.6921 -0.0000 0.7218
vn 0.6789 0.0851 0.7292
vn 0.6818 0.0694 0.7283
vn 0.6820 -0.7313 -0.0000
vn 0.7818 -0.0000 -0.6235
vn 0.0005 0.4880 0.8729
vn 0.0005 0.8828 0.4698
vn 0.0005 0.8822 0.4708
vn 0.0005 0.4881 0.8728
vn 0.6025 0.6808 0.4165
vn 0.6687 0.3570 0.6523
vn 0.6678 0.3705 0.6456
vn 0.5656 0.7579 0.3251
vt 0.291667 0.500000
vt 0.291667 0.750000
vt 0.375000 0.833333
vt 0.512500 0.833333
vt 0.375000 0.916667
vt 0.512500 0.916667
vt 0.512500 1.000000
vt 0.375000 1.000000
vt 0.791667 0.591667
vt 0.875000 0.587500
vt 0.875000 0.675000
vt 0.791667 0.683333
vt 0.708333 0.595833
vt 0.708333 0.500000
vt 0.708333 0.691667
vt 0.125000 0.500000
vt 0.208333 0.500000
vt 0.208333 0.750000
vt 0.125000 0.750000
vt 0.375000 0.250000
vt 0.625000 0.250000
vt 0.625000 0.333333
vt 0.375000 0.333333
vt 0.625000 0.416667
vt 0.375000 0.416667
vt 0.791667 0.500000
vt 0.547138 0.823070
vt 0.591735 0.809857
vt 0.875000 0.500000
vt 0.547134 1.000000
vt 0.547138 0.911535
vt 0.591735 0.904928
vt 0.591794 1.000000
vt 0.593634 1.000000
vt 0.545532 1.000000
vt 0.625000 0.900000
vt 0.625000 1.000000
vt 0.709119 0.752328
vt 0.598453 0.844825
vt 0.625000 0.800000
vt 0.572796 0.789715
vt 0.650427 0.733557
vt 0.375000 0.000000
vt 0.512500 0.000000
vt 0.545532 0.022021
vt 0.593634 0.054089
vt 0.625000 0.075000
vt 0.625000 0.162500
s 1
f 42/1/1 47/2/1 11/2/1 6/1/1
f 11/3/2 47/3/2 51/4/3 15/4/3
f 10/5/2 14/6/3 4/7/4 1/8/2
f 18/9/5 16/10/5 5/11/6 13/12/6
f 17/13/5 53/13/5 45/14/5 9/14/5
f 12/15/6 48/15/6 53/13/5 17/13/5
f 11/3/2 15/4/3 14/6/3 10/5/2
f 2/16/1 7/17/1 10/18/1 1/19/1
f 7/17/1 6/1/1 11/2/1 10/18/1
f 2/20/7 3/21/7 8/22/7 7/23/7
f 7/23/7 8/22/7 9/24/7 6/25/7
f 9/14/5 8/26/5 18/9/5 17/13/5
f 33/27/8 69/27/9 70/28/10 34/28/11
f 8/26/5 3/29/5 16/10/5 18/9/5
f 17/13/2 18/9/2 22/9/2 21/13/2
f 18/9/12 13/12/12 20/12/12 22/9/12
f 12/15/13 17/13/13 21/13/13 19/15/13
f 19/15/5 21/13/5 22/9/5 20/12/5
f 14/6/5 15/4/5 19/15/5 20/12/5
f 5/11/14 16/10/15 27/10/15 28/11/16
f 1/8/17 4/7/18 26/7/19 24/8/17
f 16/10/15 3/29/15 25/29/15 27/10/15
f 2/16/20 1/19/20 24/19/20 23/16/20
f 3/21/21 2/20/21 23/20/21 25/21/21
f 30/30/22 32/31/23 31/32/24 29/33/25
f 15/4/3 51/4/3 69/27/9 33/27/8
f 29/33/26 36/34/27 35/35/28 30/30/29
f 13/36/6 5/37/6 29/33/25 31/32/24
f 32/31/23 30/30/22 4/7/4 14/6/3
f 29/33/26 5/37/14 28/37/16 36/34/27
f 4/7/18 30/30/29 35/35/28 26/7/19
f 14/6/12 20/12/12 13/12/12 31/38/12 32/39/12
f 34/28/11 70/28/10 48/40/6 12/40/6
f 12/15/13 19/15/13 15/4/13 33/41/13 34/42/13
f 24/43/13 26/44/13 35/45/13 36/46/13 28/47/13 27/48/13 25/21/13 23/20/13
f 46/5/2 37/8/2 40/7/4 50/6/3
f 54/9/5 49/12/6 41/11/6 52/10/5
f 47/3/2 46/5/2 50/6/3 51/4/3
f 38/16/1 37/19/1 46/18/1 43/17/1
f 43/17/1 46/18/1 47/2/1 42/1/1
f 38/20/7 43/23/7 44/22/7 39/21/7
f 43/23/7 42/25/7 45/24/7 44/22/7
f 45/14/5 53/13/5 54/9/5 44/26/5
f 44/26/5 54/9/5 52/10/5 39/29/5
f 53/13/2 57/13/2 58/9/2 54/9/2
f 54/9/13 58/9/13 56/12/13 49/12/13
f 48/15/12 55/15/12 57/13/12 53/13/12
f 55/15/5 56/12/5 58/9/5 57/13/5
f 50/6/5 56/12/5 55/15/5 51/4/5
f 41/11/30 64/11/31 63/10/32 52/10/32
f 37/8/33 60/8/33 62/7/34 40/7/35
f 52/10/32 63/10/32 61/29/32 39/29/32
f 38/16/36 59/16/36 60/19/36 37/19/36
f 39/21/37 61/21/37 59/20/37 38/20/37
f 66/30/38 65/33/39 67/32/40 68/31/41
f 65/33/42 66/30/43 71/35/44 72/34/45
f 49/36/6 67/32/40 65/33/39 41/37/6
f 68/31/41 50/6/3 40/7/4 66/30/38
f 65/33/42 72/34/45 64/37/31 41/37/30
f 40/7/35 62/7/34 71/35/44 66/30/43
f 50/6/13 68/39/13 67/38/13 49/12/13 56/12/13
f 48/15/12 70/42/12 69/41/12 51/4/12 55/15/12
f 60/43/12 59/20/12 61/21/12 63/48/12 64/47/12 72/46/12 71/45/12 62/44/12
f 42/25/7 6/25/7 9/24/7 45/24/7
