# Blender 5.2.1 LTS
# www.blender.org
mtllib mortar_barrel.mtl
o Barrel
v -0.142409 0.099375 0.112757
v -0.142409 0.099375 -0.112757
v 0.142409 0.099375 -0.112757
v 0.142409 0.099375 0.112757
v -0.095243 0.155891 -0.481925
v 0.142409 0.099375 -0.412125
v -0.142409 0.099375 -0.412125
v 0.095243 0.155891 -0.481925
v -0.047015 0.379375 0.112757
v -0.046830 0.379375 -0.112757
v 0.046830 0.379375 -0.112757
v 0.047015 0.379375 0.112757
v 0.046259 0.379375 -0.412125
v -0.030938 0.343156 -0.481925
v 0.030938 0.343156 -0.481925
v -0.046259 0.379375 -0.412125
v -0.110268 0.347748 0.112757
v -0.142409 0.308712 0.112757
v -0.110268 0.347656 -0.112757
v -0.142409 0.308610 -0.112757
v 0.142409 0.308610 -0.112757
v 0.110268 0.347656 -0.112757
v 0.142409 0.308712 0.112757
v 0.110268 0.347748 0.112757
v 0.110268 0.347371 -0.412125
v 0.142409 0.308295 -0.412125
v -0.095243 0.287976 -0.481925
v -0.063102 0.327074 -0.481925
v 0.063102 0.327074 -0.481925
v 0.095243 0.287976 -0.481925
v -0.142409 0.308295 -0.412125
v -0.110268 0.347371 -0.412125
v -0.036315 0.145681 0.112757
v 0.036315 0.145681 0.112757
v -0.033812 0.315694 0.112757
v 0.033812 0.315694 0.112757
v -0.085339 0.196367 0.112757
v -0.083795 0.267503 0.112757
v 0.083795 0.267503 0.112757
v 0.085339 0.196367 0.112757
v -0.036315 0.145681 0.094538
v 0.036315 0.145681 0.094538
v -0.033812 0.315694 0.094538
v 0.033812 0.315694 0.094538
v -0.085339 0.196367 0.094538
v -0.083795 0.267503 0.094538
v 0.083795 0.267503 0.094538
v 0.085339 0.196367 0.094538
vn 0.8471 -0.3004 -0.4383
vn -0.8471 -0.3004 -0.4383
vn -0.3788 -0.3377 -0.8617
vn 0.3788 -0.3377 -0.8617
vn -0.0000 -1.0000 -0.0000
vn -0.2299 0.9732 -0.0002
vn 0.2299 0.9732 -0.0002
vn 0.2298 0.9732 -0.0003
vn -0.2298 0.9732 -0.0003
vn 0.2274 0.9430 -0.2429
vn -0.2274 0.9430 -0.2429
vn 0.1211 0.5458 -0.8291
vn -0.1211 0.5458 -0.8291
vn -0.9413 0.3376 -0.0002
vn -0.9413 0.3377 -0.0001
vn -0.6232 0.7821 -0.0003
vn -0.6232 0.7820 -0.0005
vn 0.9413 0.3377 -0.0001
vn 0.9413 0.3376 -0.0002
vn 0.6232 0.7820 -0.0005
vn 0.6232 0.7821 -0.0003
vn 0.8990 0.3250 -0.2935
vn 0.4945 0.1717 -0.8520
vn 0.3119 0.4266 -0.8489
vn 0.6099 0.7421 -0.2780
vn -0.4945 0.1717 -0.8520
vn -0.8990 0.3250 -0.2935
vn -0.6099 0.7421 -0.2780
vn -0.3119 0.4266 -0.8489
vn -0.0000 -0.0000 1.0000
vn -1.0000 -0.0000 -0.0000
vn 1.0000 -0.0000 -0.0000
vn 0.9161 -0.4011 -0.0000
vn 0.9310 0.3649 -0.0000
vn 0.7232 0.2834 0.6298
vn 0.7110 -0.3113 0.6305
vn 0.4007 0.3875 0.8302
vn -0.4007 0.3875 0.8302
vn -0.7232 0.2834 0.6298
vn -0.7110 -0.3113 0.6305
vn -0.2901 -0.7188 0.6318
vn 0.2901 -0.7188 0.6318
vn -0.0000 1.0000 -0.0000
vn 0.3742 -0.9273 -0.0000
vn -0.7188 0.6952 -0.0000
vn -0.9310 0.3649 -0.0000
vn -0.9161 -0.4011 -0.0000
vn -0.3742 -0.9273 -0.0000
vn 0.7188 0.6952 -0.0000
vt 0.492115 0.416667
vt 0.492115 0.333333
vt 0.625000 0.361244
vt 0.625000 0.388756
vt 0.492115 0.388702
vt 0.492115 0.361298
vt 0.492115 0.388535
vt 0.492115 0.361465
vt 0.625000 0.333333
vt 0.625000 0.342737
vt 0.492115 0.342737
vt 0.625000 0.416667
vt 0.492115 0.407263
vt 0.625000 0.407263
vt 0.492115 0.416667
vt 0.492115 0.402606
vt 0.492115 0.407263
vt 0.492115 0.333333
vt 0.492115 0.342737
vt 0.492115 0.347394
vt 0.625000 0.416667
vt 0.625000 0.416667
vt 0.000000 0.000000
vt 0.625000 0.333333
vt 0.779386 0.632885
vt 0.720614 0.632885
vt 0.708333 0.632885
vt 0.717737 0.632885
vt 0.736244 0.632885
vt 0.763756 0.632885
vt 0.782263 0.632885
vt 0.791667 0.632885
s 1
f 6/1/1 7/2/2 5/2/3 8/1/4
f 3/1/5 2/2/5 7/2/5 6/1/5
f 9/3/6 12/4/7 11/5/8 10/6/9
f 10/6/9 11/5/8 13/7/10 16/8/11
f 16/8/11 13/7/10 15/7/12 14/8/13
f 20/2/14 18/9/15 17/10/16 19/11/17
f 23/12/18 21/1/19 22/13/20 24/14/21
f 26/1/22 30/15/23 29/16/24 25/17/25
f 27/18/26 31/2/27 32/19/28 28/20/29
f 21/1/19 26/1/22 25/17/25 22/13/20
f 31/2/27 20/2/14 19/11/17 32/19/28
f 9/3/30 17/10/30 38/10/30 35/3/30
f 9/3/6 10/6/9 19/11/17 17/10/16
f 2/2/31 1/9/31 18/9/15 20/2/14
f 10/6/9 16/8/11 32/19/28 19/11/17
f 2/2/31 20/2/14 31/2/27 7/2/2
f 13/7/10 11/5/8 22/13/20 25/17/25
f 21/1/19 3/1/32 6/1/1 26/1/22
f 11/5/8 12/4/7 24/14/21 22/13/20
f 4/21/32 3/1/32 21/1/19 23/12/18
f 13/7/10 25/17/25 29/16/24 15/7/12
f 26/1/22 6/1/1 8/1/4 30/15/23
f 5/2/3 27/18/26 28/20/29 14/8/13 15/7/12 29/16/24 30/15/23 8/1/4
f 32/19/28 16/8/11 14/8/13 28/20/29
f 7/2/2 31/2/27 27/18/26 5/2/3
f 38/10/33 37/9/34 45/9/35 46/10/36
f 4/21/30 23/12/30 40/12/30 34/22/30
s 0
f 1/23/30 4/23/30 34/23/30 33/23/30
s 1
f 23/12/30 24/14/30 39/14/30 40/12/30
f 17/10/30 18/9/30 37/9/30 38/10/30
f 24/14/30 12/4/30 36/4/30 39/14/30
f 18/9/30 1/9/30 33/24/30 37/9/30
f 12/4/30 9/3/30 35/3/30 36/4/30
f 41/25/37 42/26/38 48/27/39 47/28/40 44/29/41 43/30/42 46/31/36 45/32/35
s 0
f 33/23/43 34/23/43 42/23/43 41/23/43
s 1
f 35/3/44 38/10/33 46/10/36 43/3/42
f 34/22/45 40/12/46 48/12/39 42/22/38
f 40/12/46 39/14/47 47/14/40 48/12/39
f 36/4/48 35/3/44 43/3/42 44/4/41
f 39/14/47 36/4/48 44/4/41 47/14/40
f 37/9/34 33/24/49 41/24/37 45/9/35
