# Blender 5.2.1 LTS
# www.blender.org
mtllib mortar_head.mtl
o Head
v -0.300000 -0.000000 0.350000
v -0.300000 0.300000 0.350000
v -0.300000 -0.000000 0.050000
v -0.300000 0.300000 0.050000
v 0.300000 -0.000000 0.350000
v 0.300000 0.300000 0.350000
v 0.300000 -0.000000 0.050000
v 0.300000 0.300000 0.050000
vn -1.0000 -0.0000 -0.0000
vn 1.0000 -0.0000 -0.0000
vn -0.0000 -1.0000 -0.0000
vn -0.0000 -0.0000 -1.0000
vn -0.0000 1.0000 -0.0000
vn -0.0000 -0.0000 1.0000
vt 0.375000 0.000000
vt 0.625000 0.000000
vt 0.625000 0.250000
vt 0.375000 0.250000
vt 0.375000 0.500000
vt 0.625000 0.500000
vt 0.625000 0.750000
vt 0.375000 0.750000
s 0
f 1/1/1 2/2/1 4/3/1 3/4/1
f 7/5/2 8/6/2 6/7/2 5/8/2
f 3/4/3 7/5/3 5/8/3 1/1/3
f 3/4/4 4/3/4 8/6/4 7/5/4
f 2/2/5 6/7/5 8/6/5 4/3/5
f 1/1/6 5/8/6 6/7/6 2/2/6
