# Blender 5.2.1 LTS
# www.blender.org
mtllib turret_muzzle_flash.mtl
o Flash
v -0.068640 0.118888 -0.000000
v 0.068640 -0.118888 -0.000000
v -0.068640 0.118888 0.274560
v 0.068640 -0.118888 0.274560
v -0.137280 -0.000000 -0.000000
v 0.137280 0.000000 -0.000000
v -0.137280 -0.000000 0.274560
v 0.137280 0.000000 0.274560
v -0.068640 -0.118888 -0.000000
v 0.068640 0.118888 -0.000000
v -0.068640 -0.118888 0.274560
v 0.068640 0.118888 0.274560
vn 0.8660 0.5000 -0.0000
vn -0.0000 1.0000 -0.0000
vn -0.8660 0.5000 -0.0000
vt 0.009950 0.009950
vt 0.009950 0.990050
vt 0.990050 0.990050
vt 0.990050 0.009950
s 0
usemtl Material.001
f 1/1/1 3/2/1 4/3/1 2/4/1
f 5/1/2 7/2/2 8/3/2 6/4/2
f 9/1/3 11/2/3 12/3/3 10/4/3
