# Blender 5.2.1 LTS
# www.blender.org
mtllib sniper_head.mtl
o Cube
v 0.240000 -0.000000 -0.320000
v 0.080000 -0.000000 -0.400000
v -0.080000 -0.000000 -0.400000
v -0.240000 -0.000000 -0.320000
v -0.240000 0.200000 -0.320000
v -0.080000 0.100000 -0.400000
v 0.080000 0.100000 -0.400000
v 0.240000 0.200000 -0.320000
v -0.240000 -0.000000 0.320000
v -0.080000 -0.000000 0.400000
v 0.080000 -0.000000 0.400000
v 0.240000 -0.000000 0.320000
v 0.240000 0.200000 0.320000
v 0.080000 0.100000 0.400000
v -0.080000 0.100000 0.400000
v -0.240000 0.200000 0.320000
v -0.376000 -0.000000 0.320000
v -0.400000 -0.000000 0.294653
v -0.376000 0.200000 0.320000
v -0.400000 0.200000 0.294599
v -0.400000 -0.000000 -0.294653
v -0.376000 -0.000000 -0.320000
v -0.400000 0.200000 -0.294599
v -0.376000 0.200000 -0.320000
v 0.400000 -0.000000 0.294653
v 0.376000 -0.000000 0.320000
v 0.400000 0.200000 0.294599
v 0.376000 0.200000 0.320000
v 0.376000 -0.000000 -0.320000
v 0.400000 -0.000000 -0.294653
v 0.376000 0.200000 -0.320000
v 0.400000 0.200000 -0.294599
v 0.240000 0.500000 -0.081698
v 0.240000 0.429975 -0.197347
v -0.240000 0.500000 0.081698
v -0.240000 0.429975 0.197347
v -0.240000 0.429975 -0.197347
v -0.240000 0.500000 -0.081698
v 0.240000 0.429975 0.197347
v 0.240000 0.500000 0.081698
v -0.400000 0.405723 0.184828
v -0.400000 0.476000 0.068831
v -0.376000 0.429856 0.197410
v -0.376000 0.500000 0.081606
v -0.400000 0.476000 -0.068831
v -0.400000 0.405723 -0.184828
v -0.376000 0.500000 -0.081606
v -0.376000 0.429856 -0.197410
v 0.400000 0.405723 -0.184828
v 0.400000 0.476000 -0.068831
v 0.376000 0.429856 -0.197410
v 0.376000 0.500000 -0.081606
v 0.400000 0.476000 0.068831
v 0.400000 0.405723 0.184828
v 0.376000 0.500000 0.081606
v 0.376000 0.429856 0.197410
vn -0.5300 0.8480 -0.0000
vn -0.2351 0.9720 -0.0000
vn 0.2351 0.9720 -0.0000
vn 0.5300 0.8480 -0.0000
vn 0.4472 -0.0000 0.8944
vn 0.2617 -0.0000 0.9652
vn 0.2298 -0.0000 0.9732
vn -0.2617 -0.0000 0.9652
vn -0.2298 -0.0000 0.9732
vn -0.4472 -0.0000 0.8944
vn -0.4472 -0.0000 -0.8944
vn -0.2617 -0.0000 -0.9652
vn -0.2298 -0.0000 -0.9732
vn 0.2617 -0.0000 -0.9652
vn 0.2298 -0.0000 -0.9732
vn 0.4472 -0.0000 -0.8944
vn -0.7265 0.0001 0.6872
vn -0.7183 0.1528 0.6788
vn -0.7134 0.1921 0.6740
vn -0.7183 0.1528 -0.6788
vn -0.7265 0.0001 -0.6872
vn -0.7134 0.1921 -0.6740
vn 0.7134 0.1921 -0.6740
vn 0.7265 0.0001 -0.6872
vn 0.7183 0.1528 -0.6788
vn 0.7183 0.1528 0.6788
vn 0.7265 0.0001 0.6872
vn 0.7134 0.1921 0.6740
vn -1.0000 -0.0000 -0.0000
vn -0.0000 -0.0000 1.0000
vn -0.0000 0.2425 0.9701
vn -0.0000 -0.0000 -1.0000
vn -0.0000 0.2425 -0.9701
vn 1.0000 -0.0000 -0.0000
vn -0.7245 0.4479 0.5239
vn -0.7349 0.4833 0.4757
vn -0.7435 0.6397 0.1949
vn -0.7392 0.6545 0.1589
vn -0.7349 0.4833 -0.4757
vn -0.7245 0.4479 -0.5239
vn -0.7392 0.6545 -0.1589
vn -0.7435 0.6397 -0.1949
vn 0.7245 0.4479 -0.5239
vn 0.7349 0.4833 -0.4757
vn 0.7435 0.6397 -0.1949
vn 0.7392 0.6545 -0.1589
vn 0.7349 0.4833 0.4757
vn 0.7245 0.4479 0.5239
vn 0.7392 0.6545 0.1589
vn 0.7435 0.6397 0.1949
vn -0.0002 0.9631 0.2690
vn -0.0002 0.9632 0.2688
vn -0.0002 0.6874 0.7262
vn -0.0002 0.6877 0.7260
vn -0.0002 0.9632 -0.2688
vn -0.0002 0.9631 -0.2690
vn -0.0002 0.6877 -0.7260
vn -0.0002 0.6874 -0.7262
vn 0.0002 0.9632 0.2688
vn 0.0002 0.9631 0.2690
vn 0.0002 0.6877 0.7260
vn 0.0002 0.6874 0.7262
vn 0.0002 0.9631 -0.2690
vn 0.0002 0.9632 -0.2688
vn 0.0002 0.6874 -0.7262
vn 0.0002 0.6877 -0.7260
vt 0.675000 0.500000
vt 0.725000 0.500000
vt 0.725000 0.750000
vt 0.675000 0.750000
vt 0.775000 0.500000
vt 0.775000 0.750000
vt 0.825000 0.500000
vt 0.825000 0.750000
vt 0.375000 0.800000
vt 0.625000 0.800000
vt 0.625000 0.850000
vt 0.375000 0.850000
vt 0.625000 0.900000
vt 0.375000 0.900000
vt 0.625000 0.950000
vt 0.375000 0.950000
vt 0.375000 0.300000
vt 0.625000 0.300000
vt 0.625000 0.350000
vt 0.375000 0.350000
vt 0.625000 0.400000
vt 0.375000 0.400000
vt 0.625000 0.450000
vt 0.375000 0.450000
vt 0.375000 0.000000
vt 0.625000 0.000000
vt 0.625000 0.009922
vt 0.375000 0.009901
vt 0.625000 0.257500
vt 0.375000 0.257500
vt 0.375000 0.240099
vt 0.625000 0.240078
vt 0.625000 0.509922
vt 0.375000 0.509901
vt 0.372500 0.495000
vt 0.625000 0.492500
vt 0.625000 0.757500
vt 0.372500 0.755000
vt 0.375000 0.740099
vt 0.625000 0.740078
vt 0.625000 0.992500
vt 0.375000 0.992500
vt 0.625000 0.013996
vt 0.625000 0.062471
vt 0.625000 0.073790
vt 0.625000 0.255585
vt 0.625000 0.236004
vt 0.625000 0.176210
vt 0.625000 0.213353
vt 0.625000 0.513996
vt 0.627873 0.495373
vt 0.628750 0.543562
vt 0.625000 0.573790
vt 0.627873 0.754627
vt 0.625000 0.736004
vt 0.625000 0.676210
vt 0.628750 0.706438
vt 0.625000 0.992500
vt 0.625000 0.950000
vt 0.675000 0.561174
vt 0.675000 0.688826
vt 0.825000 0.561174
vt 0.867500 0.561246
vt 0.867500 0.688754
vt 0.825000 0.688826
vt 0.825000 0.750000
s 1
f 8/1/1 7/2/2 14/3/2 13/4/1
f 7/2/2 6/5/3 15/6/3 14/3/2
f 6/5/3 5/7/4 16/8/4 15/6/3
f 12/9/5 13/10/5 14/11/6 11/12/7
f 11/12/7 14/11/6 15/13/8 10/14/9
f 10/14/9 15/13/8 16/15/10 9/16/10
f 4/17/11 5/18/11 6/19/12 3/20/13
f 3/20/13 6/19/12 7/21/14 2/22/15
f 2/22/15 7/21/14 8/23/16 1/24/16
f 17/25/17 19/26/18 20/27/19 18/28/17
f 24/29/20 22/30/21 21/31/21 23/32/22
f 32/33/23 30/34/24 29/35/24 31/36/25
f 28/37/26 26/38/27 25/39/27 27/40/28
f 18/28/29 20/27/29 23/32/29 21/31/29
f 9/16/30 16/15/31 19/41/31 17/42/30
f 22/30/32 24/29/33 5/18/33 4/17/32
f 30/34/34 32/33/34 27/40/34 25/39/34
f 26/38/30 28/37/31 13/10/31 12/9/30
f 1/24/32 8/23/33 31/36/33 29/35/32
f 41/43/35 43/26/36 44/44/37 42/45/38
f 48/46/39 46/47/40 45/48/41 47/49/42
f 49/50/43 51/51/44 52/52/45 50/53/46
f 56/54/47 54/55/48 53/56/49 55/57/50
f 35/15/51 44/58/52 43/58/53 36/59/54
f 47/49/55 38/18/56 37/18/57 48/46/58
f 55/57/59 40/10/60 39/10/61 56/54/62
f 33/23/63 52/52/64 51/51/65 34/23/66
f 52/52/64 33/60/63 40/61/60 55/57/59
f 8/1/29 13/4/29 39/4/29 40/61/29 33/60/29 34/1/29
f 31/36/33 8/23/33 34/23/66 51/51/65
f 38/62/56 47/63/55 44/64/52 35/65/51
f 16/8/34 5/7/34 37/7/34 38/62/34 35/65/34 36/66/34
f 19/41/31 16/15/31 36/59/54 43/58/53
f 5/18/33 24/29/33 48/46/58 37/18/57
f 13/10/31 28/37/31 56/54/62 39/10/61
f 19/26/18 43/26/36 41/43/35 20/27/19
f 44/44/37 47/49/42 45/48/41 42/45/38
f 23/32/29 20/27/29 41/43/29 42/45/29 45/48/29 46/47/29
f 48/46/39 24/29/20 23/32/22 46/47/40
f 31/36/25 51/51/44 49/50/43 32/33/23
f 52/52/45 55/57/50 53/56/49 50/53/46
f 27/40/34 32/33/34 49/50/34 50/53/34 53/56/34 54/55/34
f 56/54/47 28/37/26 27/40/28 54/55/48
