# Blender 5.2.1 LTS
# www.blender.org
mtllib sniper1_barrel.mtl
o Cube.001
v -0.214268 -0.120000 -0.240000
v -0.240000 -0.095587 -0.240000
v -0.240000 0.095587 -0.240000
v -0.214268 0.120000 -0.240000
v 0.240000 -0.095587 -0.240000
v 0.214268 -0.120000 -0.240000
v 0.214268 0.120000 -0.240000
v 0.240000 0.095587 -0.240000
v -0.144000 -0.047570 -0.390000
v -0.118177 -0.072000 -0.390000
v -0.118177 0.072000 -0.390000
v -0.144000 0.047570 -0.390000
v 0.144000 0.047570 -0.390000
v 0.118177 0.072000 -0.390000
v 0.118177 -0.072000 -0.390000
v 0.144000 -0.047570 -0.390000
v -0.214320 -0.120000 0.134328
v -0.240000 -0.095599 0.134328
v -0.240000 0.095599 0.134328
v -0.214320 0.120000 0.134328
v 0.240000 -0.095599 0.134328
v 0.214320 -0.120000 0.134328
v 0.214320 0.120000 0.134328
v 0.240000 0.095599 0.134328
v -0.092046 -0.120000 0.218580
v -0.104036 -0.037257 0.240000
v -0.155747 -0.059447 0.218581
v -0.104036 0.037257 0.240000
v -0.155747 0.059447 0.218581
v -0.092046 0.120000 0.218580
v 0.104036 -0.037257 0.240000
v 0.155747 -0.059447 0.218581
v 0.092046 -0.120000 0.218580
v 0.092046 0.120000 0.218580
v 0.104036 0.037257 0.240000
v 0.155747 0.059447 0.218581
v 0.010531 0.039304 0.519044
v 0.015284 0.057040 0.220109
v 0.028772 0.028773 0.519044
v 0.041756 0.041756 0.220109
v 0.039304 0.010532 0.519044
v 0.057040 0.015284 0.220109
v 0.039304 -0.010531 0.519044
v 0.057040 -0.015284 0.220109
v 0.028772 -0.028772 0.519044
v 0.041756 -0.041756 0.220109
v 0.010531 -0.039304 0.519044
v 0.015284 -0.057040 0.220109
v -0.010531 -0.039304 0.519044
v -0.015284 -0.057040 0.220109
v -0.028772 -0.028772 0.519044
v -0.041756 -0.041756 0.220109
v -0.039304 -0.010531 0.519044
v -0.057040 -0.015284 0.220109
v -0.039304 0.010532 0.519044
v -0.057040 0.015284 0.220109
v -0.028772 0.028773 0.519044
v -0.041756 0.041756 0.220109
v -0.010531 0.039304 0.519044
v -0.015284 0.057040 0.220109
v 0.010476 0.061180 0.475297
v 0.010476 0.073979 0.220109
v -0.010476 0.073979 0.220109
v -0.010476 0.061179 0.475297
v 0.006734 0.025133 0.519044
v 0.018399 0.018399 0.519044
v 0.025133 0.006734 0.519044
v 0.025133 -0.006734 0.519044
v 0.018399 -0.018399 0.519044
v 0.006734 -0.025133 0.519044
v -0.006734 -0.025133 0.519044
v -0.018399 -0.018399 0.519044
v -0.025133 -0.006734 0.519044
v -0.025133 0.006734 0.519044
v -0.018399 0.018399 0.519044
v -0.006734 0.025133 0.519044
v 0.006734 0.025133 0.503660
v 0.018399 0.018399 0.503660
v 0.025133 0.006734 0.503660
v 0.025133 -0.006734 0.503660
v 0.018399 -0.018399 0.503660
v 0.006734 -0.025133 0.503660
v -0.006734 -0.025133 0.503660
v -0.018399 -0.018399 0.503660
v -0.025133 -0.006734 0.503660
v -0.025133 0.006734 0.503660
v -0.018399 0.018399 0.503660
v -0.006734 0.025133 0.503660
vn -0.6544 -0.6900 -0.3092
vn -0.6623 -0.6982 -0.2719
vn -0.5707 -0.6023 -0.5582
vn -0.5707 0.6023 -0.5582
vn -0.6623 0.6982 -0.2719
vn -0.6544 0.6900 -0.3092
vn 0.6623 -0.6982 -0.2719
vn 0.6544 -0.6900 -0.3092
vn 0.5707 -0.6023 -0.5582
vn 0.5707 0.6023 -0.5582
vn 0.6544 0.6900 -0.3092
vn 0.6623 0.6982 -0.2719
vn -0.0000 -0.9926 -0.1216
vn -0.0000 -0.9524 -0.3048
vn -0.9669 -0.0000 -0.2550
vn -0.8423 -0.0000 -0.5391
vn -0.0000 0.9926 -0.1216
vn -0.0000 0.9524 -0.3048
vn 0.9669 -0.0000 -0.2550
vn 0.8423 -0.0000 -0.5391
vn -0.0000 -0.0000 -1.0000
vn -0.6885 -0.7252 -0.0001
vn -1.0000 -0.0000 -0.0000
vn -0.6885 0.7252 -0.0001
vn 0.6885 -0.7252 -0.0001
vn 1.0000 -0.0000 -0.0000
vn 0.6885 0.7252 -0.0001
vn 0.1982 -0.3413 0.9188
vn 0.5135 -0.2204 0.8293
vn 0.1776 -0.1164 0.9772
vn 0.1776 0.1164 0.9772
vn 0.5135 0.2204 0.8293
vn 0.1982 0.3413 0.9188
vn -0.1776 0.1164 0.9772
vn -0.5135 0.2204 0.8293
vn -0.5135 -0.2204 0.8293
vn -0.1776 -0.1164 0.9772
vn -0.6218 -0.2668 0.7363
vn -0.4872 -0.5126 0.7071
vn -0.1982 -0.3413 0.9188
vn -0.0000 -1.0000 -0.0000
vn -0.6218 0.2668 0.7363
vn -0.1982 0.3413 0.9188
vn -0.4872 0.5126 0.7071
vn -0.0000 1.0000 -0.0000
vn 0.4872 -0.5126 0.7071
vn 0.6218 -0.2669 0.7363
vn 0.6218 0.2668 0.7363
vn 0.4872 0.5126 0.7071
vn 0.4991 0.8645 0.0592
vn 0.7058 0.7058 0.0613
vn 0.9641 0.2583 0.0613
vn 0.9641 -0.2583 0.0613
vn 0.7058 -0.7058 0.0613
vn 0.2583 -0.9641 0.0613
vn -0.2583 -0.9641 0.0613
vn -0.7058 -0.7058 0.0613
vn -0.9641 -0.2583 0.0613
vn -0.9641 0.2583 0.0613
vn -0.7058 0.7058 0.0613
vn -0.4991 0.8645 0.0592
vn -0.0000 0.8944 0.4472
vn -0.0000 -0.0000 1.0000
vn -0.0000 0.9987 0.0501
vn 0.9897 0.1424 0.0163
vn -0.9897 0.1424 0.0163
vn 0.9659 -0.2588 -0.0000
vn 0.7314 -0.1960 0.6532
vn 0.5354 -0.5354 0.6532
vn 0.7071 -0.7071 -0.0000
vn -0.1960 -0.7314 0.6532
vn 0.1960 -0.7314 0.6532
vn 0.7314 0.1960 0.6532
vn 0.5354 0.5354 0.6532
vn 0.1960 0.7314 0.6532
vn -0.1960 0.7314 0.6532
vn -0.5354 0.5354 0.6532
vn -0.7314 0.1960 0.6532
vn -0.7314 -0.1960 0.6532
vn -0.5354 -0.5354 0.6532
vn 0.2588 0.9659 -0.0000
vn 0.7071 0.7071 -0.0000
vn -0.9659 0.2588 -0.0000
vn -0.7071 0.7071 -0.0000
vn 0.2588 -0.9659 -0.0000
vn -0.2588 -0.9659 -0.0000
vn -0.7071 -0.7071 -0.0000
vn 0.9659 0.2588 -0.0000
vn -0.2588 0.9659 -0.0000
vn -0.9659 -0.2588 -0.0000
vt 0.138402 0.750000
vt 0.125000 0.750000
vt 0.147416 0.750000
vt 0.625000 0.000000
vt 0.582586 0.000000
vt 0.599570 0.000000
vt 0.400430 0.750000
vt 0.361598 0.750000
vt 0.360056 0.757472
vt 0.417414 0.750000
vt 0.582586 0.750000
vt 0.639944 0.757472
vt 0.638402 0.750000
vt 0.599570 0.750000
vt 0.417414 0.000000
vt 0.400430 0.000000
vt 0.852584 0.750000
vt 0.861598 0.750000
vt 0.375000 0.977584
vt 0.417414 1.000000
vt 0.582586 1.000000
vt 0.625000 0.977584
vt 0.138375 0.555038
vt 0.125000 0.555038
vt 0.400418 0.194962
vt 0.599582 0.194962
vt 0.625000 0.200175
vt 0.400418 0.555038
vt 0.365100 0.551563
vt 0.599582 0.555038
vt 0.634900 0.551563
vt 0.328982 0.425068
vt 0.435943 0.470766
vt 0.456298 0.438301
vt 0.543702 0.437898
vt 0.564056 0.470424
vt 0.654071 0.461897
vt 0.539657 0.321779
vt 0.562379 0.281723
vt 0.437621 0.283323
vt 0.460343 0.323189
vt 0.135658 0.511156
vt 0.170850 0.510521
vt 0.345929 0.463168
vt 0.627542 0.313369
vt 0.861625 0.555038
vt 0.796669 0.509885
vt 0.736445 0.477019
vt 1.000000 0.500000
vt 0.916667 0.500000
vt 0.916667 1.000000
vt 1.000000 1.000000
vt 0.833333 0.500000
vt 0.833333 1.000000
vt 0.750000 0.500000
vt 0.750000 1.000000
vt 0.666667 0.500000
vt 0.666667 1.000000
vt 0.583333 0.500000
vt 0.583333 1.000000
vt 0.500000 0.500000
vt 0.500000 1.000000
vt 0.416667 0.500000
vt 0.416667 1.000000
vt 0.333333 0.500000
vt 0.333333 1.000000
vt 0.250000 0.500000
vt 0.250000 1.000000
vt 0.166667 0.500000
vt 0.166667 1.000000
vt 0.083333 0.500000
vt 0.083333 1.000000
vt 0.750000 0.490000
vt 0.630000 0.457846
vt 0.000000 0.500000
vt 0.000000 1.000000
vt 0.542154 0.370000
vt 0.510000 0.250000
vt 0.542154 0.130000
vt 0.630000 0.042154
vt 0.750000 0.010000
vt 0.870000 0.042154
vt 0.957846 0.130000
vt 0.990000 0.250000
vt 0.957846 0.370000
vt 0.870000 0.457846
s 1
f 1/1/1 2/2/2 9/2/3 10/3/3
f 11/4/4 12/5/4 3/6/5 4/4/6
f 5/7/7 6/8/8 15/9/9 16/10/9
f 13/11/10 14/12/10 7/13/11 8/14/12
f 1/1/13 10/3/14 15/9/14 6/8/13
f 3/6/15 12/5/16 9/15/16 2/16/15
f 7/13/17 14/12/18 11/17/18 4/18/17
f 5/7/19 16/10/20 13/11/20 8/14/19
f 15/9/21 10/19/21 9/20/21 12/21/21 11/22/21 14/12/21 13/11/21 16/10/21
f 17/23/22 18/24/22 2/2/2 1/1/1
f 2/16/15 18/25/23 19/26/23 3/6/15
f 4/4/6 3/6/5 19/26/24 20/27/24
f 6/8/8 5/7/7 21/28/25 22/29/25
f 21/28/26 5/7/19 8/14/19 24/30/26
f 23/31/27 24/30/27 8/14/12 7/13/11
f 33/32/28 32/33/29 31/34/30
f 35/35/31 36/36/32 34/37/33
f 28/38/34 29/39/35 27/40/36 26/41/37
f 31/34/30 32/33/29 36/36/32 35/35/31
f 27/42/36 18/24/38 17/23/39 25/43/40
f 17/23/41 1/1/13 6/8/13 22/29/41 33/44/41 25/43/41
f 29/39/35 19/26/42 18/25/38 27/40/36
f 30/45/43 20/27/44 19/26/42 29/39/35
f 23/31/45 7/13/17 4/18/17 20/46/45 30/47/45 34/48/45
f 33/44/28 22/29/46 21/28/47 32/33/29
f 24/30/48 36/36/32 32/33/29 21/28/47
f 36/36/32 24/30/48 23/31/49 34/37/33
f 29/39/35 28/38/34 30/45/43
f 27/42/36 25/43/40 26/41/37
f 33/44/28 31/34/30 26/41/37 25/43/40
f 28/38/34 26/41/37 31/34/30 35/35/31
f 35/35/31 34/37/33 30/47/43 28/38/34
f 37/49/50 39/50/51 40/51/51 38/52/50
f 39/50/51 41/53/52 42/54/52 40/51/51
f 41/53/52 43/55/53 44/56/53 42/54/52
f 43/55/53 45/57/54 46/58/54 44/56/53
f 45/57/54 47/59/55 48/60/55 46/58/54
f 47/59/55 49/61/56 50/62/56 48/60/55
f 49/61/56 51/63/57 52/64/57 50/62/56
f 51/63/57 53/65/58 54/66/58 52/64/57
f 53/65/58 55/67/59 56/68/59 54/66/58
f 55/67/59 57/69/60 58/70/60 56/68/59
f 57/69/60 59/71/61 60/72/61 58/70/60
f 37/73/62 61/73/62 64/74/62 59/74/62
f 49/61/63 71/61/63 72/63/63 51/63/63
f 64/71/64 61/75/64 62/76/64 63/72/64
f 38/52/65 62/52/65 61/49/65 37/49/65
f 59/71/66 64/71/66 63/72/66 60/72/66
f 74/67/67 86/67/68 87/69/69 75/69/70
f 47/59/63 70/59/63 71/61/63 49/61/63
f 45/57/63 69/57/63 70/59/63 47/59/63
f 43/55/63 68/55/63 69/57/63 45/57/63
f 59/74/63 76/74/63 65/73/63 37/73/63
f 37/49/63 65/49/63 66/50/63 39/50/63
f 41/53/63 67/53/63 68/55/63 43/55/63
f 57/69/63 75/69/63 76/71/63 59/71/63
f 39/50/63 66/50/63 67/53/63 41/53/63
f 55/67/63 74/67/63 75/69/63 57/69/63
f 53/65/63 73/65/63 74/67/63 55/67/63
f 51/63/63 72/63/63 73/65/63 53/65/63
f 77/73/71 88/74/72 87/77/69 86/78/68 85/79/73 84/80/74 83/81/75 82/82/76 81/83/77 80/84/78 79/85/79 78/86/80
f 71/61/81 83/61/75 84/63/74 72/63/82
f 68/55/83 80/55/78 81/57/77 69/57/84
f 75/69/70 87/69/69 88/71/72 76/71/85
f 65/49/86 77/49/71 78/50/80 66/50/87
f 72/63/82 84/63/74 85/65/73 73/65/88
f 69/57/84 81/57/77 82/59/76 70/59/89
f 76/74/85 88/74/72 77/73/71 65/73/86
f 66/50/87 78/50/80 79/53/79 67/53/90
f 73/65/88 85/65/73 86/67/68 74/67/67
f 70/59/89 82/59/76 83/61/75 71/61/81
f 67/53/90 79/53/79 80/55/78 68/55/83
